%TF.GenerationSoftware,KiCad,Pcbnew,8.0.5*%
%TF.CreationDate,2024-10-26T10:21:32-07:00*%
%TF.ProjectId,cc-ring,63632d72-696e-4672-9e6b-696361645f70,rev?*%
%TF.SameCoordinates,Original*%
%TF.FileFunction,Legend,Top*%
%TF.FilePolarity,Positive*%
%FSLAX46Y46*%
G04 Gerber Fmt 4.6, Leading zero omitted, Abs format (unit mm)*
G04 Created by KiCad (PCBNEW 8.0.5) date 2024-10-26 10:21:32*
%MOMM*%
%LPD*%
G01*
G04 APERTURE LIST*
G04 Aperture macros list*
%AMRoundRect*
0 Rectangle with rounded corners*
0 $1 Rounding radius*
0 $2 $3 $4 $5 $6 $7 $8 $9 X,Y pos of 4 corners*
0 Add a 4 corners polygon primitive as box body*
4,1,4,$2,$3,$4,$5,$6,$7,$8,$9,$2,$3,0*
0 Add four circle primitives for the rounded corners*
1,1,$1+$1,$2,$3*
1,1,$1+$1,$4,$5*
1,1,$1+$1,$6,$7*
1,1,$1+$1,$8,$9*
0 Add four rect primitives between the rounded corners*
20,1,$1+$1,$2,$3,$4,$5,0*
20,1,$1+$1,$4,$5,$6,$7,0*
20,1,$1+$1,$6,$7,$8,$9,0*
20,1,$1+$1,$8,$9,$2,$3,0*%
%AMFreePoly0*
4,1,88,-1.238810,1.732880,-0.983455,1.674597,-0.739639,1.578906,-0.512808,1.447945,-0.308029,1.284639,-0.129877,1.092637,0.017669,0.876227,0.131313,0.640243,0.208516,0.389958,0.247553,0.130961,0.250000,0.000000,0.249224,0.000000,0.247151,-0.110927,0.208114,-0.369924,0.130911,-0.620209,0.017267,-0.856193,-0.130279,-1.072603,-0.308431,-1.264605,-0.513210,-1.427911,-0.740041,-1.558872,
-0.983857,-1.654563,-1.239212,-1.712846,-1.500402,-1.732420,-1.761592,-1.712846,-2.016947,-1.654563,-2.260763,-1.558872,-2.487594,-1.427911,-2.692373,-1.264605,-2.870525,-1.072603,-3.018071,-0.856193,-3.131715,-0.620209,-3.208918,-0.369924,-3.247955,-0.110927,-3.250042,0.000790,-2.749982,0.000790,-2.748024,-0.089119,-2.710115,-0.304108,-2.635451,-0.509248,-2.526298,-0.698306,-2.385974,-0.865538,
-2.218742,-1.005862,-2.029684,-1.115015,-1.824544,-1.189679,-1.609555,-1.227588,-1.391249,-1.227588,-1.176260,-1.189679,-0.971120,-1.115015,-0.782062,-1.005862,-0.614830,-0.865538,-0.474506,-0.698306,-0.365353,-0.509248,-0.290689,-0.304108,-0.252780,-0.089119,-0.250419,0.019243,-0.252378,0.109153,-0.290287,0.324142,-0.364951,0.529282,-0.474104,0.718340,-0.614428,0.885572,-0.781660,1.025896,
-0.970718,1.135049,-1.175858,1.209713,-1.390847,1.247622,-1.609153,1.247622,-1.824142,1.209713,-2.029282,1.135049,-2.218340,1.025896,-2.385572,0.885572,-2.525896,0.718340,-2.635049,0.529282,-2.709713,0.324142,-2.747622,0.109153,-2.749982,0.000790,-3.250042,0.000790,-3.250402,0.020034,-3.249626,0.020034,-3.247553,0.130961,-3.208516,0.389958,-3.131313,0.640243,-3.017669,0.876227,
-2.870123,1.092637,-2.691971,1.284639,-2.487192,1.447945,-2.260361,1.578906,-2.016545,1.674597,-1.761190,1.732880,-1.500000,1.752454,-1.238810,1.732880,-1.238810,1.732880,$1*%
%AMFreePoly1*
4,1,53,0.180798,1.454629,0.352531,1.394537,0.506585,1.297738,0.635238,1.169085,0.732037,1.015031,0.792129,0.843298,0.812500,0.662500,0.792129,0.481702,0.732037,0.309969,0.635238,0.155915,0.506585,0.027262,0.352531,-0.069537,0.180798,-0.129629,0.000000,-0.150000,-0.180798,-0.129629,-0.352531,-0.069537,-0.506585,0.027262,-0.635238,0.155915,-0.732037,0.309969,-0.792129,0.481702,
-0.812500,0.662500,-0.517770,0.662500,-0.496797,0.516627,-0.435576,0.382572,-0.339067,0.271196,-0.215089,0.191520,-0.073686,0.150000,0.073686,0.150000,0.215089,0.191520,0.339067,0.271196,0.435576,0.382572,0.496797,0.516627,0.517770,0.662500,0.496797,0.808373,0.435576,0.942428,0.339067,1.053804,0.215089,1.133480,0.073686,1.175000,-0.073686,1.175000,-0.215089,1.133480,
-0.339067,1.053804,-0.435576,0.942428,-0.496797,0.808373,-0.517770,0.662500,-0.812500,0.662500,-0.792129,0.843298,-0.732037,1.015031,-0.635238,1.169085,-0.506585,1.297738,-0.352531,1.394537,-0.180798,1.454629,0.000000,1.475000,0.180798,1.454629,0.180798,1.454629,$1*%
G04 Aperture macros list end*
%ADD10C,0.150000*%
%ADD11C,0.120000*%
%ADD12C,0.200000*%
%ADD13C,1.500000*%
%ADD14FreePoly0,0.000000*%
%ADD15C,0.290000*%
%ADD16RoundRect,0.500000X1.000000X0.500000X-1.000000X0.500000X-1.000000X-0.500000X1.000000X-0.500000X0*%
%ADD17C,0.299999*%
%ADD18RoundRect,0.070000X-0.355000X0.070000X-0.355000X-0.070000X0.355000X-0.070000X0.355000X0.070000X0*%
%ADD19RoundRect,0.070000X-0.305000X0.070000X-0.305000X-0.070000X0.305000X-0.070000X0.305000X0.070000X0*%
%ADD20C,0.500000*%
%ADD21R,0.725000X0.522000*%
%ADD22FreePoly1,0.000000*%
G04 APERTURE END LIST*
D10*
X190166666Y-66704819D02*
X190166666Y-67419104D01*
X190166666Y-67419104D02*
X190119047Y-67561961D01*
X190119047Y-67561961D02*
X190023809Y-67657200D01*
X190023809Y-67657200D02*
X189880952Y-67704819D01*
X189880952Y-67704819D02*
X189785714Y-67704819D01*
X191071428Y-67038152D02*
X191071428Y-67704819D01*
X190833333Y-66657200D02*
X190595238Y-67371485D01*
X190595238Y-67371485D02*
X191214285Y-67371485D01*
D11*
%TO.C,U1*%
X172819500Y-72673500D02*
X172819500Y-70108250D01*
X173601250Y-69326500D02*
X176180500Y-69326500D01*
X176180500Y-69326500D02*
X176180500Y-72673500D01*
X176180500Y-72673500D02*
X172819500Y-72673500D01*
X172819500Y-69326500D02*
X172319500Y-69326500D01*
X172819500Y-68826500D01*
X172819500Y-69326500D01*
G36*
X172819500Y-69326500D02*
G01*
X172319500Y-69326500D01*
X172819500Y-68826500D01*
X172819500Y-69326500D01*
G37*
D12*
%TO.C,U3*%
X169300000Y-71575000D02*
X169300000Y-71750001D01*
X169300000Y-71575000D02*
X169499999Y-71575000D01*
X169300000Y-72749999D02*
X169300000Y-72925000D01*
X169300000Y-72925000D02*
X169499999Y-72925000D01*
X171300001Y-71575000D02*
X171700000Y-71575000D01*
X171500001Y-72925000D02*
X171700000Y-72925000D01*
X171700000Y-71575000D02*
X171700000Y-72074999D01*
X171700000Y-72749999D02*
X171700000Y-72925000D01*
D11*
%TO.C,U2*%
X169715000Y-71150000D02*
X171285000Y-71150000D01*
X169920000Y-69350000D02*
X171280000Y-69350000D01*
X169600000Y-69350000D02*
X169320000Y-69350000D01*
X169600000Y-69070000D01*
X169600000Y-69350000D01*
G36*
X169600000Y-69350000D02*
G01*
X169320000Y-69350000D01*
X169600000Y-69070000D01*
X169600000Y-69350000D01*
G37*
%TO.C,MK1*%
X177560000Y-73360000D02*
X177560000Y-69940000D01*
X177860000Y-69640000D02*
X180440000Y-69640000D01*
X180440000Y-69640000D02*
X180440000Y-73360000D01*
X180440000Y-73360000D02*
X177560000Y-73360000D01*
X177560000Y-69640000D02*
X177280000Y-69640000D01*
X177560000Y-69360000D01*
X177560000Y-69640000D01*
G36*
X177560000Y-69640000D02*
G01*
X177280000Y-69640000D01*
X177560000Y-69360000D01*
X177560000Y-69640000D01*
G37*
%TD*%
%LPC*%
D13*
%TO.C,J4*%
X190250000Y-71000000D03*
D14*
X191750000Y-71000000D03*
%TD*%
D15*
%TO.C,U1*%
X173300000Y-69800000D03*
X173700000Y-69800000D03*
X174100000Y-69800000D03*
X174500000Y-69800000D03*
X174900000Y-69800000D03*
X175300000Y-69800000D03*
X175700000Y-69800000D03*
X173300000Y-70200000D03*
X173700000Y-70200000D03*
X174100000Y-70200000D03*
X174500000Y-70200000D03*
X174900000Y-70200000D03*
X175300000Y-70200000D03*
X173700000Y-70600000D03*
X174100000Y-70600000D03*
X174500000Y-70600000D03*
X174900000Y-70600000D03*
X175300000Y-70600000D03*
X175700000Y-70600000D03*
X173300000Y-71000000D03*
X173700000Y-71000000D03*
X174100000Y-71000000D03*
X174500000Y-71000000D03*
X174900000Y-71000000D03*
X175300000Y-71000000D03*
X175700000Y-71000000D03*
X173300000Y-71400000D03*
X173700000Y-71400000D03*
X174100000Y-71400000D03*
X174500000Y-71400000D03*
X174900000Y-71400000D03*
X175300000Y-71400000D03*
X175700000Y-71400000D03*
X173300000Y-71800000D03*
X173700000Y-71800000D03*
X174100000Y-71800000D03*
X174500000Y-71800000D03*
X174900000Y-71800000D03*
X175300000Y-71800000D03*
X175700000Y-71800000D03*
X173300000Y-72200000D03*
X173700000Y-72200000D03*
X174100000Y-72200000D03*
X174500000Y-72200000D03*
X174900000Y-72200000D03*
X175300000Y-72200000D03*
X175700000Y-72200000D03*
%TD*%
D16*
%TO.C,J1*%
X167000000Y-72250000D03*
X167000000Y-69750000D03*
%TD*%
D17*
%TO.C,U3*%
X171150001Y-71924999D03*
X171150001Y-72575001D03*
X170500000Y-71924999D03*
X170500000Y-72575001D03*
X169850001Y-71924999D03*
X169850001Y-72575001D03*
%TD*%
D18*
%TO.C,U2*%
X169975000Y-69750000D03*
D19*
X169925000Y-70250000D03*
X169925000Y-70750000D03*
X171075000Y-70750000D03*
X171075000Y-70250000D03*
X171075000Y-69750000D03*
%TD*%
D20*
%TO.C,MK1*%
X179000000Y-72270000D03*
D21*
X178162500Y-70196000D03*
X178162500Y-71018000D03*
D22*
X179000000Y-72932500D03*
D21*
X179837500Y-71018000D03*
X179837500Y-70196000D03*
%TD*%
%LPD*%
M02*
