%TF.GenerationSoftware,KiCad,Pcbnew,8.0.5*%
%TF.CreationDate,2024-10-26T10:21:32-07:00*%
%TF.ProjectId,cc-ring,63632d72-696e-4672-9e6b-696361645f70,rev?*%
%TF.SameCoordinates,Original*%
%TF.FileFunction,Copper,L2,Bot*%
%TF.FilePolarity,Positive*%
%FSLAX46Y46*%
G04 Gerber Fmt 4.6, Leading zero omitted, Abs format (unit mm)*
G04 Created by KiCad (PCBNEW 8.0.5) date 2024-10-26 10:21:32*
%MOMM*%
%LPD*%
G01*
G04 APERTURE LIST*
G04 Aperture macros list*
%AMRoundRect*
0 Rectangle with rounded corners*
0 $1 Rounding radius*
0 $2 $3 $4 $5 $6 $7 $8 $9 X,Y pos of 4 corners*
0 Add a 4 corners polygon primitive as box body*
4,1,4,$2,$3,$4,$5,$6,$7,$8,$9,$2,$3,0*
0 Add four circle primitives for the rounded corners*
1,1,$1+$1,$2,$3*
1,1,$1+$1,$4,$5*
1,1,$1+$1,$6,$7*
1,1,$1+$1,$8,$9*
0 Add four rect primitives between the rounded corners*
20,1,$1+$1,$2,$3,$4,$5,0*
20,1,$1+$1,$4,$5,$6,$7,0*
20,1,$1+$1,$6,$7,$8,$9,0*
20,1,$1+$1,$8,$9,$2,$3,0*%
G04 Aperture macros list end*
%TA.AperFunction,SMDPad,CuDef*%
%ADD10RoundRect,0.147500X-0.172500X0.147500X-0.172500X-0.147500X0.172500X-0.147500X0.172500X0.147500X0*%
%TD*%
%TA.AperFunction,SMDPad,CuDef*%
%ADD11R,0.700000X0.700000*%
%TD*%
%TA.AperFunction,SMDPad,CuDef*%
%ADD12RoundRect,0.135000X0.185000X-0.135000X0.185000X0.135000X-0.185000X0.135000X-0.185000X-0.135000X0*%
%TD*%
%TA.AperFunction,SMDPad,CuDef*%
%ADD13RoundRect,0.140000X-0.170000X0.140000X-0.170000X-0.140000X0.170000X-0.140000X0.170000X0.140000X0*%
%TD*%
%TA.AperFunction,SMDPad,CuDef*%
%ADD14RoundRect,0.140000X0.140000X0.170000X-0.140000X0.170000X-0.140000X-0.170000X0.140000X-0.170000X0*%
%TD*%
%TA.AperFunction,SMDPad,CuDef*%
%ADD15RoundRect,0.140000X0.170000X-0.140000X0.170000X0.140000X-0.170000X0.140000X-0.170000X-0.140000X0*%
%TD*%
%TA.AperFunction,SMDPad,CuDef*%
%ADD16RoundRect,0.135000X-0.185000X0.135000X-0.185000X-0.135000X0.185000X-0.135000X0.185000X0.135000X0*%
%TD*%
%TA.AperFunction,SMDPad,CuDef*%
%ADD17C,1.000000*%
%TD*%
%TA.AperFunction,SMDPad,CuDef*%
%ADD18RoundRect,0.147500X0.172500X-0.147500X0.172500X0.147500X-0.172500X0.147500X-0.172500X-0.147500X0*%
%TD*%
%TA.AperFunction,SMDPad,CuDef*%
%ADD19RoundRect,0.500000X1.000000X0.500000X-1.000000X0.500000X-1.000000X-0.500000X1.000000X-0.500000X0*%
%TD*%
%TA.AperFunction,SMDPad,CuDef*%
%ADD20RoundRect,0.140000X-0.140000X-0.170000X0.140000X-0.170000X0.140000X0.170000X-0.140000X0.170000X0*%
%TD*%
%TA.AperFunction,ViaPad*%
%ADD21C,0.350000*%
%TD*%
%TA.AperFunction,Conductor*%
%ADD22C,0.127000*%
%TD*%
%TA.AperFunction,Conductor*%
%ADD23C,0.381000*%
%TD*%
%TA.AperFunction,Conductor*%
%ADD24C,0.254000*%
%TD*%
%TA.AperFunction,Conductor*%
%ADD25C,0.076200*%
%TD*%
%TA.AperFunction,Conductor*%
%ADD26C,0.508000*%
%TD*%
G04 APERTURE END LIST*
D10*
%TO.P,D9,1,K*%
%TO.N,GND*%
X178500000Y-70515000D03*
%TO.P,D9,2,A*%
%TO.N,LED_SNS*%
X178500000Y-71485000D03*
%TD*%
D11*
%TO.P,D8,1,DOUT*%
%TO.N,Net-(D11-DIN)*%
X215165000Y-70450000D03*
%TO.P,D8,2,VSS*%
%TO.N,GND*%
X215165000Y-71550000D03*
%TO.P,D8,3,DIN*%
%TO.N,Net-(D7-DOUT)*%
X213335000Y-71550000D03*
%TO.P,D8,4,VDD*%
%TO.N,+BATT*%
X213335000Y-70450000D03*
%TD*%
D12*
%TO.P,R1,1*%
%TO.N,LED_SNS*%
X179500000Y-71510000D03*
%TO.P,R1,2*%
%TO.N,GND*%
X179500000Y-70490000D03*
%TD*%
D13*
%TO.P,C7,1*%
%TO.N,+BATT*%
X188250000Y-70520000D03*
%TO.P,C7,2*%
%TO.N,GND*%
X188250000Y-71480000D03*
%TD*%
D14*
%TO.P,C5,1*%
%TO.N,VDD*%
X175480000Y-70000000D03*
%TO.P,C5,2*%
%TO.N,GND*%
X174520000Y-70000000D03*
%TD*%
D12*
%TO.P,R3,1*%
%TO.N,+BATT*%
X170500000Y-70010000D03*
%TO.P,R3,2*%
%TO.N,Net-(U2-BAT)*%
X170500000Y-68990000D03*
%TD*%
D15*
%TO.P,C3,1*%
%TO.N,VDD*%
X175500000Y-71980000D03*
%TO.P,C3,2*%
%TO.N,GND*%
X175500000Y-71020000D03*
%TD*%
D13*
%TO.P,C9,1*%
%TO.N,+BATT*%
X204250000Y-70520000D03*
%TO.P,C9,2*%
%TO.N,GND*%
X204250000Y-71480000D03*
%TD*%
D11*
%TO.P,D5,1,DOUT*%
%TO.N,Net-(D5-DOUT)*%
X203165000Y-70450000D03*
%TO.P,D5,2,VSS*%
%TO.N,GND*%
X203165000Y-71550000D03*
%TO.P,D5,3,DIN*%
%TO.N,Net-(D4-DOUT)*%
X201335000Y-71550000D03*
%TO.P,D5,4,VDD*%
%TO.N,+BATT*%
X201335000Y-70450000D03*
%TD*%
D16*
%TO.P,R2,1*%
%TO.N,+BATT*%
X192250000Y-70490000D03*
%TO.P,R2,2*%
%TO.N,Net-(J4-Pin_1)*%
X192250000Y-71510000D03*
%TD*%
D13*
%TO.P,C12,1*%
%TO.N,+BATT*%
X228250000Y-70520000D03*
%TO.P,C12,2*%
%TO.N,GND*%
X228250000Y-71480000D03*
%TD*%
D17*
%TO.P,J2,1,Pin_1*%
%TO.N,VDD*%
X171135000Y-71615000D03*
%TO.P,J2,2,Pin_2*%
%TO.N,GND*%
X169865000Y-71615000D03*
%TO.P,J2,3,Pin_3*%
%TO.N,SWCLK*%
X171135000Y-72885000D03*
%TO.P,J2,4,Pin_4*%
%TO.N,SWDIO*%
X169865000Y-72885000D03*
%TD*%
D11*
%TO.P,D13,1,DOUT*%
%TO.N,Net-(D13-DOUT)*%
X227165000Y-70450000D03*
%TO.P,D13,2,VSS*%
%TO.N,GND*%
X227165000Y-71550000D03*
%TO.P,D13,3,DIN*%
%TO.N,Net-(D12-DOUT)*%
X225335000Y-71550000D03*
%TO.P,D13,4,VDD*%
%TO.N,+BATT*%
X225335000Y-70450000D03*
%TD*%
%TO.P,D2,1,DOUT*%
%TO.N,Net-(D2-DOUT)*%
X191165000Y-70450000D03*
%TO.P,D2,2,VSS*%
%TO.N,GND*%
X191165000Y-71550000D03*
%TO.P,D2,3,DIN*%
%TO.N,Net-(D1-DOUT)*%
X189335000Y-71550000D03*
%TO.P,D2,4,VDD*%
%TO.N,+BATT*%
X189335000Y-70450000D03*
%TD*%
D13*
%TO.P,C2,1*%
%TO.N,VDD*%
X173500000Y-70020000D03*
%TO.P,C2,2*%
%TO.N,GND*%
X173500000Y-70980000D03*
%TD*%
D11*
%TO.P,D14,1,DOUT*%
%TO.N,Net-(D14-DOUT)*%
X231165000Y-70450000D03*
%TO.P,D14,2,VSS*%
%TO.N,GND*%
X231165000Y-71550000D03*
%TO.P,D14,3,DIN*%
%TO.N,Net-(D13-DOUT)*%
X229335000Y-71550000D03*
%TO.P,D14,4,VDD*%
%TO.N,+BATT*%
X229335000Y-70450000D03*
%TD*%
D18*
%TO.P,D10,1,K*%
%TO.N,VDD*%
X177500000Y-71485000D03*
%TO.P,D10,2,A*%
%TO.N,+BATT*%
X177500000Y-70515000D03*
%TD*%
D13*
%TO.P,C1,1*%
%TO.N,Net-(U2-BAT)*%
X171500000Y-69020000D03*
%TO.P,C1,2*%
%TO.N,-BATT*%
X171500000Y-69980000D03*
%TD*%
%TO.P,C8,1*%
%TO.N,+BATT*%
X196250000Y-70520000D03*
%TO.P,C8,2*%
%TO.N,GND*%
X196250000Y-71480000D03*
%TD*%
D14*
%TO.P,C6,1*%
%TO.N,VDD*%
X178900000Y-69070000D03*
%TO.P,C6,2*%
%TO.N,GND*%
X177940000Y-69070000D03*
%TD*%
D13*
%TO.P,C13,1*%
%TO.N,+BATT*%
X220250000Y-70520000D03*
%TO.P,C13,2*%
%TO.N,GND*%
X220250000Y-71480000D03*
%TD*%
D19*
%TO.P,J3,1,Pin_1*%
%TO.N,-BATT*%
X167000000Y-69750000D03*
%TO.P,J3,2,Pin_2*%
%TO.N,+BATT*%
X167000000Y-72250000D03*
%TD*%
D11*
%TO.P,D16,1,DOUT*%
%TO.N,unconnected-(D16-DOUT-Pad1)*%
X239165000Y-70450000D03*
%TO.P,D16,2,VSS*%
%TO.N,GND*%
X239165000Y-71550000D03*
%TO.P,D16,3,DIN*%
%TO.N,Net-(D15-DOUT)*%
X237335000Y-71550000D03*
%TO.P,D16,4,VDD*%
%TO.N,+BATT*%
X237335000Y-70450000D03*
%TD*%
%TO.P,D7,1,DOUT*%
%TO.N,Net-(D7-DOUT)*%
X211165000Y-70450000D03*
%TO.P,D7,2,VSS*%
%TO.N,GND*%
X211165000Y-71550000D03*
%TO.P,D7,3,DIN*%
%TO.N,Net-(D6-DOUT)*%
X209335000Y-71550000D03*
%TO.P,D7,4,VDD*%
%TO.N,+BATT*%
X209335000Y-70450000D03*
%TD*%
%TO.P,D15,1,DOUT*%
%TO.N,Net-(D15-DOUT)*%
X235165000Y-70450000D03*
%TO.P,D15,2,VSS*%
%TO.N,GND*%
X235165000Y-71550000D03*
%TO.P,D15,3,DIN*%
%TO.N,Net-(D14-DOUT)*%
X233335000Y-71550000D03*
%TO.P,D15,4,VDD*%
%TO.N,+BATT*%
X233335000Y-70450000D03*
%TD*%
%TO.P,D4,1,DOUT*%
%TO.N,Net-(D4-DOUT)*%
X199165000Y-70450000D03*
%TO.P,D4,2,VSS*%
%TO.N,GND*%
X199165000Y-71550000D03*
%TO.P,D4,3,DIN*%
%TO.N,Net-(D3-DOUT)*%
X197335000Y-71550000D03*
%TO.P,D4,4,VDD*%
%TO.N,+BATT*%
X197335000Y-70450000D03*
%TD*%
D13*
%TO.P,C11,1*%
%TO.N,+BATT*%
X236250000Y-70520000D03*
%TO.P,C11,2*%
%TO.N,GND*%
X236250000Y-71480000D03*
%TD*%
D11*
%TO.P,D1,1,DOUT*%
%TO.N,Net-(D1-DOUT)*%
X187165000Y-70450000D03*
%TO.P,D1,2,VSS*%
%TO.N,GND*%
X187165000Y-71550000D03*
%TO.P,D1,3,DIN*%
%TO.N,LED_D*%
X185335000Y-71550000D03*
%TO.P,D1,4,VDD*%
%TO.N,+BATT*%
X185335000Y-70450000D03*
%TD*%
%TO.P,D6,1,DOUT*%
%TO.N,Net-(D6-DOUT)*%
X207165000Y-70450000D03*
%TO.P,D6,2,VSS*%
%TO.N,GND*%
X207165000Y-71550000D03*
%TO.P,D6,3,DIN*%
%TO.N,Net-(D5-DOUT)*%
X205335000Y-71550000D03*
%TO.P,D6,4,VDD*%
%TO.N,+BATT*%
X205335000Y-70450000D03*
%TD*%
%TO.P,D12,1,DOUT*%
%TO.N,Net-(D12-DOUT)*%
X223165000Y-70450000D03*
%TO.P,D12,2,VSS*%
%TO.N,GND*%
X223165000Y-71550000D03*
%TO.P,D12,3,DIN*%
%TO.N,Net-(D11-DOUT)*%
X221335000Y-71550000D03*
%TO.P,D12,4,VDD*%
%TO.N,+BATT*%
X221335000Y-70450000D03*
%TD*%
%TO.P,D11,1,DOUT*%
%TO.N,Net-(D11-DOUT)*%
X219165000Y-70450000D03*
%TO.P,D11,2,VSS*%
%TO.N,GND*%
X219165000Y-71550000D03*
%TO.P,D11,3,DIN*%
%TO.N,Net-(D11-DIN)*%
X217335000Y-71550000D03*
%TO.P,D11,4,VDD*%
%TO.N,+BATT*%
X217335000Y-70450000D03*
%TD*%
D20*
%TO.P,C4,1*%
%TO.N,VDD*%
X173520000Y-72000000D03*
%TO.P,C4,2*%
%TO.N,GND*%
X174480000Y-72000000D03*
%TD*%
D11*
%TO.P,D3,1,DOUT*%
%TO.N,Net-(D3-DOUT)*%
X195165000Y-70450000D03*
%TO.P,D3,2,VSS*%
%TO.N,GND*%
X195165000Y-71550000D03*
%TO.P,D3,3,DIN*%
%TO.N,Net-(D2-DOUT)*%
X193335000Y-71550000D03*
%TO.P,D3,4,VDD*%
%TO.N,+BATT*%
X193335000Y-70450000D03*
%TD*%
D13*
%TO.P,C10,1*%
%TO.N,+BATT*%
X212250000Y-70520000D03*
%TO.P,C10,2*%
%TO.N,GND*%
X212250000Y-71480000D03*
%TD*%
D21*
%TO.N,+BATT*%
X167000000Y-72250000D03*
%TO.N,GND*%
X171800000Y-71040000D03*
%TO.N,VDD*%
X171968071Y-71589701D03*
%TO.N,Net-(J4-Pin_1)*%
X190460000Y-71920000D03*
%TO.N,Net-(U2-BAT)*%
X172100000Y-69750000D03*
%TO.N,-BATT*%
X167000000Y-69750000D03*
X171720000Y-70520000D03*
%TO.N,VDD*%
X176155231Y-69731725D03*
X172950000Y-69990000D03*
X180600000Y-71130000D03*
X172870000Y-72010000D03*
X179550000Y-69140000D03*
X176150000Y-71980000D03*
%TO.N,GND*%
X180100000Y-68900000D03*
X181700000Y-71100000D03*
X173500000Y-73200000D03*
X196250000Y-72250000D03*
X168900000Y-73200000D03*
X172000000Y-73200000D03*
X180200000Y-71700000D03*
X175200000Y-73200000D03*
X172390000Y-72450000D03*
X174700000Y-69420000D03*
X204250000Y-72250000D03*
X216250000Y-71750000D03*
X208250000Y-71750000D03*
X200250000Y-71750000D03*
X188250000Y-72250000D03*
X172900000Y-70530000D03*
X228250000Y-72250000D03*
X176900000Y-68800000D03*
X232250000Y-71750000D03*
X169200000Y-72300000D03*
X176200000Y-71040000D03*
X177800000Y-72800000D03*
X212250000Y-72250000D03*
X183000000Y-71100000D03*
X168900000Y-69700000D03*
X184250000Y-71100000D03*
X224250000Y-71750000D03*
X220250000Y-72250000D03*
X236250000Y-72250000D03*
X174300000Y-72590000D03*
X172700000Y-69300000D03*
%TO.N,LED_D*%
X180169300Y-73213709D03*
%TO.N,+BATT*%
X176784500Y-70204500D03*
X169790000Y-68914500D03*
X172200000Y-68914500D03*
%TO.N,LED_SNS*%
X176500000Y-72500000D03*
%TO.N,SWDIO*%
X172245000Y-71235000D03*
%TO.N,SWCLK*%
X173750000Y-69300000D03*
%TD*%
D22*
%TO.N,Net-(U2-BAT)*%
X172100000Y-69620000D02*
X171500000Y-69020000D01*
X172100000Y-69750000D02*
X172100000Y-69620000D01*
D23*
%TO.N,+BATT*%
X167000000Y-72250000D02*
X167558317Y-72250000D01*
X167558317Y-72250000D02*
X169450000Y-70358317D01*
X169450000Y-70358317D02*
X169450000Y-69640000D01*
X169450000Y-69640000D02*
X169790000Y-69300000D01*
X169790000Y-69300000D02*
X170120000Y-69630000D01*
X170120000Y-69630000D02*
X170500000Y-70010000D01*
D24*
%TO.N,Net-(J4-Pin_1)*%
X190460000Y-71920000D02*
X190460000Y-72100000D01*
X190460000Y-72100000D02*
X190660000Y-72300000D01*
X190660000Y-72300000D02*
X191650000Y-72300000D01*
X192250000Y-71700000D02*
X192250000Y-71510000D01*
X191650000Y-72300000D02*
X192250000Y-71700000D01*
D23*
%TO.N,+BATT*%
X169790000Y-68914500D02*
X169790000Y-69300000D01*
D22*
%TO.N,-BATT*%
X171500000Y-70300000D02*
X171500000Y-69980000D01*
X171720000Y-70520000D02*
X171500000Y-70300000D01*
D24*
%TO.N,VDD*%
X171942772Y-71615000D02*
X171135000Y-71615000D01*
X171968071Y-71589701D02*
X171942772Y-71615000D01*
D25*
%TO.N,SWDIO*%
X172350000Y-71670000D02*
X171790700Y-72229300D01*
X171790700Y-72229300D02*
X170520700Y-72229300D01*
X172245000Y-71235000D02*
X172350000Y-71340000D01*
X172350000Y-71340000D02*
X172350000Y-71670000D01*
X170520700Y-72229300D02*
X169865000Y-72885000D01*
%TO.N,SWCLK*%
X173750000Y-69300000D02*
X173700000Y-69300000D01*
X172570000Y-71109764D02*
X172570000Y-71690000D01*
X171375000Y-72885000D02*
X171135000Y-72885000D01*
X173700000Y-69300000D02*
X173400000Y-69600000D01*
X172256700Y-70233300D02*
X172256700Y-70796464D01*
X173400000Y-69600000D02*
X172890000Y-69600000D01*
X172890000Y-69600000D02*
X172256700Y-70233300D01*
X172256700Y-70796464D02*
X172570000Y-71109764D01*
X172570000Y-71690000D02*
X171375000Y-72885000D01*
D23*
%TO.N,+BATT*%
X189335000Y-70450000D02*
X190015200Y-69769800D01*
X190015200Y-69769800D02*
X191718200Y-69769800D01*
X191718200Y-69769800D02*
X192398400Y-70450000D01*
X192398400Y-70450000D02*
X193335000Y-70450000D01*
D22*
%TO.N,Net-(D2-DOUT)*%
X191165000Y-70450000D02*
X191675000Y-70960000D01*
X191675000Y-70960000D02*
X192745000Y-70960000D01*
X192745000Y-70960000D02*
X193335000Y-71550000D01*
%TO.N,Net-(U2-BAT)*%
X170530000Y-69020000D02*
X170500000Y-68990000D01*
X171500000Y-69020000D02*
X170530000Y-69020000D01*
D24*
%TO.N,VDD*%
X177346486Y-71485000D02*
X176155231Y-70293745D01*
D22*
X179783026Y-70000000D02*
X178284750Y-70000000D01*
D24*
X172840000Y-71038514D02*
X172840000Y-71980000D01*
X176155231Y-70293745D02*
X176155231Y-69731725D01*
X176155231Y-69731725D02*
X175748275Y-69731725D01*
D22*
X178000000Y-70284750D02*
X178000000Y-70985000D01*
X180410300Y-70940300D02*
X180410300Y-70627274D01*
D24*
X173470000Y-69990000D02*
X173500000Y-70020000D01*
X174133486Y-72992000D02*
X174488000Y-72992000D01*
D22*
X178284750Y-70000000D02*
X178000000Y-70284750D01*
X178000000Y-70985000D02*
X177500000Y-71485000D01*
D24*
X172950000Y-69990000D02*
X173470000Y-69990000D01*
X172840000Y-71980000D02*
X172870000Y-72010000D01*
X172498000Y-70696514D02*
X172840000Y-71038514D01*
D23*
X178970000Y-69140000D02*
X178900000Y-69070000D01*
D24*
X172812000Y-70128000D02*
X172733486Y-70128000D01*
X175500000Y-71980000D02*
X176150000Y-71980000D01*
X172498000Y-70363486D02*
X172498000Y-70696514D01*
X173520000Y-72000000D02*
X173520000Y-72378514D01*
X177500000Y-71485000D02*
X177346486Y-71485000D01*
X176150000Y-71980000D02*
X177005000Y-71980000D01*
D22*
X180410300Y-70627274D02*
X179783026Y-70000000D01*
D23*
X179550000Y-69140000D02*
X178970000Y-69140000D01*
D24*
X172870000Y-72010000D02*
X173510000Y-72010000D01*
X174488000Y-72992000D02*
X175500000Y-71980000D01*
X175748275Y-69731725D02*
X175480000Y-70000000D01*
D22*
X180600000Y-71130000D02*
X180410300Y-70940300D01*
D24*
X173520000Y-72378514D02*
X174133486Y-72992000D01*
X177005000Y-71980000D02*
X177500000Y-71485000D01*
X173510000Y-72010000D02*
X173520000Y-72000000D01*
X172733486Y-70128000D02*
X172498000Y-70363486D01*
X172950000Y-69990000D02*
X172812000Y-70128000D01*
%TO.N,GND*%
X174700000Y-69420000D02*
X174700000Y-69820000D01*
X175520000Y-71040000D02*
X175500000Y-71020000D01*
X175460000Y-70980000D02*
X175500000Y-71020000D01*
X174300000Y-72590000D02*
X174300000Y-72180000D01*
X174480000Y-72000000D02*
X174480000Y-70040000D01*
X173500000Y-70980000D02*
X175460000Y-70980000D01*
X174300000Y-72180000D02*
X174480000Y-72000000D01*
X172900000Y-70530000D02*
X173350000Y-70980000D01*
X176200000Y-71040000D02*
X175520000Y-71040000D01*
X174700000Y-69820000D02*
X174520000Y-70000000D01*
X174480000Y-70040000D02*
X174520000Y-70000000D01*
X173350000Y-70980000D02*
X173500000Y-70980000D01*
D22*
%TO.N,Net-(D1-DOUT)*%
X187708000Y-70993000D02*
X188778000Y-70993000D01*
X187165000Y-70450000D02*
X187708000Y-70993000D01*
X188778000Y-70993000D02*
X189335000Y-71550000D01*
%TO.N,LED_D*%
X180169300Y-73213709D02*
X180381308Y-73001701D01*
X180889562Y-71635218D02*
X181130047Y-71635218D01*
X185258283Y-71626717D02*
X185335000Y-71550000D01*
X180381308Y-73001701D02*
X180381308Y-72143472D01*
X180381308Y-72143472D02*
X180889562Y-71635218D01*
X181390537Y-71626717D02*
X185258283Y-71626717D01*
X181130047Y-71635218D02*
X181390537Y-71626717D01*
D23*
%TO.N,+BATT*%
X202015200Y-69769800D02*
X204654800Y-69769800D01*
X217335000Y-70450000D02*
X218015200Y-69769800D01*
X218015200Y-69769800D02*
X220654800Y-69769800D01*
X179896700Y-69646700D02*
X180804000Y-70554000D01*
X172314500Y-68800000D02*
X176030000Y-68800000D01*
X205335000Y-70450000D02*
X206015200Y-69769800D01*
D26*
X196250000Y-70520000D02*
X197265000Y-70520000D01*
D23*
X232654800Y-69769800D02*
X233335000Y-70450000D01*
X196654800Y-69769800D02*
X197335000Y-70450000D01*
D26*
X177500000Y-70515000D02*
X177565000Y-70450000D01*
X204250000Y-70520000D02*
X205265000Y-70520000D01*
D23*
X212654800Y-69769800D02*
X213335000Y-70450000D01*
D26*
X180804000Y-70554000D02*
X185231000Y-70554000D01*
D23*
X226015200Y-69769800D02*
X228654800Y-69769800D01*
X194015200Y-69769800D02*
X196654800Y-69769800D01*
X198015200Y-69769800D02*
X200654800Y-69769800D01*
X172200000Y-68914500D02*
X172314500Y-68800000D01*
D26*
X236250000Y-70520000D02*
X237265000Y-70520000D01*
D23*
X234015200Y-69769800D02*
X236654800Y-69769800D01*
D26*
X220250000Y-70520000D02*
X221265000Y-70520000D01*
X189265000Y-70520000D02*
X189335000Y-70450000D01*
D23*
X176784500Y-70204500D02*
X177095000Y-70515000D01*
X233335000Y-70450000D02*
X234015200Y-69769800D01*
X188654800Y-69769800D02*
X189335000Y-70450000D01*
X176784500Y-69554500D02*
X176784500Y-70204500D01*
X221335000Y-70450000D02*
X222015200Y-69769800D01*
X204654800Y-69769800D02*
X205335000Y-70450000D01*
X208654800Y-69769800D02*
X209335000Y-70450000D01*
X197335000Y-70450000D02*
X198015200Y-69769800D01*
X228654800Y-69769800D02*
X229335000Y-70450000D01*
D26*
X177500000Y-70515000D02*
X177500000Y-70407500D01*
X197265000Y-70520000D02*
X197335000Y-70450000D01*
D23*
X176030000Y-68800000D02*
X176784500Y-69554500D01*
X176876700Y-69646700D02*
X179896700Y-69646700D01*
D26*
X213265000Y-70520000D02*
X213335000Y-70450000D01*
X185231000Y-70554000D02*
X185335000Y-70450000D01*
D23*
X224654800Y-69769800D02*
X225335000Y-70450000D01*
X225335000Y-70450000D02*
X226015200Y-69769800D01*
D26*
X221265000Y-70520000D02*
X221335000Y-70450000D01*
D23*
X186015200Y-69769800D02*
X188654800Y-69769800D01*
X209335000Y-70450000D02*
X209745600Y-70450000D01*
X206015200Y-69769800D02*
X208654800Y-69769800D01*
X213335000Y-70450000D02*
X214015200Y-69769800D01*
X236654800Y-69769800D02*
X237335000Y-70450000D01*
D26*
X205265000Y-70520000D02*
X205335000Y-70450000D01*
D23*
X200654800Y-69769800D02*
X201335000Y-70450000D01*
X210425800Y-69769800D02*
X212654800Y-69769800D01*
X216654800Y-69769800D02*
X217335000Y-70450000D01*
X214015200Y-69769800D02*
X216654800Y-69769800D01*
X229335000Y-70450000D02*
X230015200Y-69769800D01*
X193335000Y-70450000D02*
X194015200Y-69769800D01*
D26*
X212250000Y-70520000D02*
X213265000Y-70520000D01*
D23*
X220654800Y-69769800D02*
X221335000Y-70450000D01*
D26*
X188250000Y-70520000D02*
X189265000Y-70520000D01*
D23*
X201335000Y-70450000D02*
X202015200Y-69769800D01*
D26*
X228250000Y-70520000D02*
X229265000Y-70520000D01*
X237265000Y-70520000D02*
X237335000Y-70450000D01*
D23*
X222015200Y-69769800D02*
X224654800Y-69769800D01*
X185335000Y-70450000D02*
X186015200Y-69769800D01*
X177095000Y-70515000D02*
X177500000Y-70515000D01*
X176784500Y-69554500D02*
X176876700Y-69646700D01*
X209745600Y-70450000D02*
X210425800Y-69769800D01*
X230015200Y-69769800D02*
X232654800Y-69769800D01*
D26*
X229265000Y-70520000D02*
X229335000Y-70450000D01*
D22*
%TO.N,Net-(D3-DOUT)*%
X195165000Y-70450000D02*
X195708000Y-70993000D01*
X196778000Y-70993000D02*
X197335000Y-71550000D01*
X195708000Y-70993000D02*
X196778000Y-70993000D01*
%TO.N,Net-(D4-DOUT)*%
X201335000Y-71358801D02*
X201335000Y-71550000D01*
X200426199Y-70450000D02*
X201335000Y-71358801D01*
X199165000Y-70450000D02*
X200426199Y-70450000D01*
%TO.N,Net-(D5-DOUT)*%
X203708000Y-70993000D02*
X204778000Y-70993000D01*
X203165000Y-70450000D02*
X203708000Y-70993000D01*
X204778000Y-70993000D02*
X205335000Y-71550000D01*
%TO.N,Net-(D6-DOUT)*%
X208235000Y-70450000D02*
X209335000Y-71550000D01*
X207165000Y-70450000D02*
X208235000Y-70450000D01*
%TO.N,Net-(D7-DOUT)*%
X211165000Y-70450000D02*
X211708000Y-70993000D01*
X211708000Y-70993000D02*
X212778000Y-70993000D01*
X212778000Y-70993000D02*
X213335000Y-71550000D01*
%TO.N,LED_SNS*%
X178500000Y-71485000D02*
X177485000Y-72500000D01*
X179475000Y-71485000D02*
X179500000Y-71510000D01*
X177485000Y-72500000D02*
X177000000Y-72500000D01*
X178500000Y-71485000D02*
X179475000Y-71485000D01*
X177000000Y-72500000D02*
X176500000Y-72500000D01*
%TO.N,Net-(D11-DIN)*%
X215165000Y-70450000D02*
X216235000Y-70450000D01*
X216235000Y-70450000D02*
X217335000Y-71550000D01*
%TO.N,Net-(D11-DOUT)*%
X219715000Y-71000000D02*
X220785000Y-71000000D01*
X220785000Y-71000000D02*
X221335000Y-71550000D01*
X219165000Y-70450000D02*
X219715000Y-71000000D01*
%TO.N,Net-(D12-DOUT)*%
X224235000Y-70450000D02*
X225335000Y-71550000D01*
X223165000Y-70450000D02*
X224235000Y-70450000D01*
%TO.N,Net-(D13-DOUT)*%
X227165000Y-70450000D02*
X227715000Y-71000000D01*
X227715000Y-71000000D02*
X228785000Y-71000000D01*
X228785000Y-71000000D02*
X229335000Y-71550000D01*
%TO.N,Net-(D14-DOUT)*%
X232235000Y-70450000D02*
X233335000Y-71550000D01*
X231165000Y-70450000D02*
X232235000Y-70450000D01*
%TO.N,Net-(D15-DOUT)*%
X236785000Y-71000000D02*
X237335000Y-71550000D01*
X235715000Y-71000000D02*
X236785000Y-71000000D01*
X235165000Y-70450000D02*
X235715000Y-71000000D01*
%TD*%
%TA.AperFunction,Conductor*%
%TO.N,GND*%
G36*
X171101996Y-69178506D02*
G01*
X171119101Y-69210507D01*
X171125872Y-69244550D01*
X171125874Y-69244554D01*
X171131760Y-69253363D01*
X171173768Y-69316232D01*
X171245448Y-69364127D01*
X171308658Y-69376700D01*
X171632539Y-69376700D01*
X171676733Y-69395006D01*
X171812397Y-69530670D01*
X171830703Y-69574864D01*
X171812397Y-69619058D01*
X171768203Y-69637364D01*
X171756010Y-69636163D01*
X171691342Y-69623300D01*
X171308658Y-69623300D01*
X171245449Y-69635872D01*
X171245445Y-69635874D01*
X171173768Y-69683768D01*
X171125874Y-69755445D01*
X171125872Y-69755449D01*
X171113300Y-69818657D01*
X171113300Y-70141342D01*
X171125872Y-70204550D01*
X171125874Y-70204554D01*
X171129824Y-70210465D01*
X171173768Y-70276232D01*
X171245448Y-70324127D01*
X171308658Y-70336700D01*
X171321689Y-70336700D01*
X171365883Y-70355006D01*
X171379432Y-70375284D01*
X171381142Y-70379414D01*
X171381145Y-70379418D01*
X171429188Y-70427461D01*
X171447494Y-70471655D01*
X171446293Y-70483847D01*
X171439103Y-70519997D01*
X171439103Y-70520000D01*
X171460484Y-70627494D01*
X171460485Y-70627496D01*
X171521375Y-70718624D01*
X171612503Y-70779514D01*
X171612505Y-70779515D01*
X171719999Y-70800897D01*
X171720000Y-70800897D01*
X171720001Y-70800897D01*
X171773747Y-70790206D01*
X171827495Y-70779515D01*
X171918624Y-70718624D01*
X171979515Y-70627495D01*
X172000897Y-70520000D01*
X172000896Y-70519997D01*
X171979515Y-70412505D01*
X171979514Y-70412503D01*
X171918626Y-70321378D01*
X171918625Y-70321377D01*
X171910925Y-70316232D01*
X171885860Y-70299484D01*
X171859286Y-70259711D01*
X171868617Y-70212797D01*
X171874127Y-70204552D01*
X171886700Y-70141342D01*
X171886700Y-70055747D01*
X171905006Y-70011553D01*
X171949200Y-69993247D01*
X171983924Y-70003781D01*
X171992505Y-70009515D01*
X172099999Y-70030897D01*
X172099999Y-70030896D01*
X172100000Y-70030897D01*
X172143529Y-70022238D01*
X172190443Y-70031570D01*
X172217020Y-70071343D01*
X172207688Y-70118259D01*
X172199916Y-70127730D01*
X172182881Y-70144766D01*
X172159378Y-70168269D01*
X172159376Y-70168272D01*
X172149821Y-70191342D01*
X172141900Y-70210465D01*
X172141900Y-70773629D01*
X172141900Y-70819299D01*
X172150948Y-70841144D01*
X172159376Y-70861491D01*
X172159378Y-70861494D01*
X172168146Y-70870262D01*
X172186452Y-70914456D01*
X172168146Y-70958650D01*
X172142804Y-70972197D01*
X172143191Y-70973130D01*
X172137503Y-70975485D01*
X172046375Y-71036375D01*
X171985485Y-71127503D01*
X171985484Y-71127505D01*
X171965900Y-71225966D01*
X171964103Y-71235000D01*
X171966183Y-71245457D01*
X171956849Y-71292373D01*
X171917077Y-71318947D01*
X171860576Y-71330185D01*
X171824707Y-71354153D01*
X171769447Y-71391077D01*
X171769446Y-71391078D01*
X171769445Y-71391079D01*
X171767526Y-71392998D01*
X171765020Y-71394035D01*
X171764330Y-71394497D01*
X171764238Y-71394359D01*
X171723335Y-71411300D01*
X171716601Y-71411300D01*
X171672407Y-71392994D01*
X171658859Y-71372718D01*
X171638747Y-71324164D01*
X171638745Y-71324161D01*
X171632039Y-71315422D01*
X171614371Y-71292396D01*
X171546307Y-71203692D01*
X171425838Y-71111254D01*
X171425835Y-71111252D01*
X171285552Y-71053145D01*
X171285542Y-71053142D01*
X171135002Y-71033324D01*
X171134998Y-71033324D01*
X170984457Y-71053142D01*
X170984447Y-71053145D01*
X170844164Y-71111252D01*
X170844161Y-71111254D01*
X170723692Y-71203692D01*
X170631254Y-71324161D01*
X170631252Y-71324164D01*
X170573145Y-71464447D01*
X170573142Y-71464457D01*
X170553324Y-71614998D01*
X170553324Y-71615001D01*
X170573142Y-71765542D01*
X170573145Y-71765552D01*
X170631252Y-71905835D01*
X170631254Y-71905839D01*
X170714213Y-72013952D01*
X170726594Y-72060158D01*
X170702677Y-72101584D01*
X170664629Y-72114500D01*
X170497865Y-72114500D01*
X170455672Y-72131976D01*
X170455669Y-72131978D01*
X170221115Y-72366531D01*
X170176921Y-72384837D01*
X170153003Y-72380079D01*
X170015552Y-72323145D01*
X170015542Y-72323142D01*
X169865002Y-72303324D01*
X169864998Y-72303324D01*
X169714457Y-72323142D01*
X169714447Y-72323145D01*
X169574164Y-72381252D01*
X169574161Y-72381254D01*
X169453692Y-72473692D01*
X169361254Y-72594161D01*
X169361252Y-72594164D01*
X169303145Y-72734447D01*
X169303142Y-72734457D01*
X169283324Y-72884998D01*
X169283324Y-72885001D01*
X169303142Y-73035542D01*
X169303145Y-73035552D01*
X169361252Y-73175835D01*
X169361254Y-73175838D01*
X169453692Y-73296307D01*
X169507266Y-73337415D01*
X169531184Y-73378842D01*
X169518804Y-73425047D01*
X169477377Y-73448965D01*
X169469219Y-73449500D01*
X168058594Y-73449500D01*
X168014400Y-73431194D01*
X167996094Y-73387000D01*
X168014400Y-73342806D01*
X168050437Y-73325035D01*
X168150541Y-73311857D01*
X168150540Y-73311857D01*
X168150549Y-73311856D01*
X168290838Y-73253746D01*
X168411307Y-73161307D01*
X168503746Y-73040838D01*
X168561856Y-72900549D01*
X168576700Y-72787797D01*
X168576699Y-71712204D01*
X168568773Y-71651999D01*
X168581153Y-71605795D01*
X168586536Y-71599657D01*
X169676521Y-70509674D01*
X169717200Y-70411466D01*
X169717200Y-70305168D01*
X169717200Y-69776566D01*
X169735506Y-69732372D01*
X169745806Y-69722072D01*
X169790000Y-69703766D01*
X169834194Y-69722072D01*
X170084994Y-69972872D01*
X170103300Y-70017066D01*
X170103300Y-70165846D01*
X170103301Y-70165850D01*
X170115582Y-70227599D01*
X170115584Y-70227603D01*
X170131250Y-70251049D01*
X170162373Y-70297627D01*
X170232399Y-70344417D01*
X170294151Y-70356700D01*
X170705848Y-70356699D01*
X170767601Y-70344417D01*
X170837627Y-70297627D01*
X170884417Y-70227601D01*
X170896700Y-70165849D01*
X170896699Y-69854152D01*
X170884417Y-69792399D01*
X170837627Y-69722373D01*
X170791049Y-69691250D01*
X170767603Y-69675584D01*
X170767599Y-69675582D01*
X170705849Y-69663300D01*
X170557066Y-69663300D01*
X170512872Y-69644994D01*
X170311271Y-69443393D01*
X170292965Y-69399199D01*
X170311271Y-69355005D01*
X170355462Y-69336699D01*
X170705848Y-69336699D01*
X170767601Y-69324417D01*
X170837627Y-69277627D01*
X170884417Y-69207601D01*
X170884418Y-69207595D01*
X170886771Y-69201916D01*
X170888969Y-69202826D01*
X170910418Y-69170731D01*
X170945138Y-69160200D01*
X171057802Y-69160200D01*
X171101996Y-69178506D01*
G37*
%TD.AperFunction*%
%TA.AperFunction,Conductor*%
G36*
X186719994Y-70055306D02*
G01*
X186738300Y-70099500D01*
X186738300Y-70807557D01*
X186742749Y-70829926D01*
X186742750Y-70829928D01*
X186750245Y-70841144D01*
X186759702Y-70855298D01*
X186770116Y-70862256D01*
X186785071Y-70872249D01*
X186785073Y-70872250D01*
X186807444Y-70876700D01*
X187367539Y-70876700D01*
X187411733Y-70895006D01*
X187628583Y-71111856D01*
X187680112Y-71133200D01*
X187735888Y-71133200D01*
X188694039Y-71133200D01*
X188738233Y-71151506D01*
X188889994Y-71303267D01*
X188908300Y-71347461D01*
X188908300Y-71907557D01*
X188912749Y-71929926D01*
X188912750Y-71929928D01*
X188916171Y-71935047D01*
X188929702Y-71955298D01*
X188948686Y-71967982D01*
X188955071Y-71972249D01*
X188955073Y-71972250D01*
X188977444Y-71976700D01*
X189692556Y-71976700D01*
X189714927Y-71972250D01*
X189740298Y-71955298D01*
X189757250Y-71929927D01*
X189761700Y-71907556D01*
X189761700Y-71192444D01*
X189757250Y-71170073D01*
X189740298Y-71144702D01*
X189723084Y-71133200D01*
X189714928Y-71127750D01*
X189714926Y-71127749D01*
X189692557Y-71123300D01*
X189692556Y-71123300D01*
X189132461Y-71123300D01*
X189088267Y-71104994D01*
X188966667Y-70983394D01*
X188948361Y-70939200D01*
X188966667Y-70895006D01*
X189010861Y-70876700D01*
X189692556Y-70876700D01*
X189714927Y-70872250D01*
X189740298Y-70855298D01*
X189757250Y-70829927D01*
X189761700Y-70807556D01*
X189761700Y-70427066D01*
X189780006Y-70382872D01*
X190107572Y-70055306D01*
X190151766Y-70037000D01*
X190675800Y-70037000D01*
X190719994Y-70055306D01*
X190738300Y-70099500D01*
X190738300Y-70807557D01*
X190742749Y-70829926D01*
X190742750Y-70829928D01*
X190750245Y-70841144D01*
X190759702Y-70855298D01*
X190770116Y-70862256D01*
X190785071Y-70872249D01*
X190785073Y-70872250D01*
X190807444Y-70876700D01*
X191367539Y-70876700D01*
X191411733Y-70895006D01*
X191556144Y-71039417D01*
X191595583Y-71078856D01*
X191647112Y-71100200D01*
X191889183Y-71100200D01*
X191933377Y-71118506D01*
X191951683Y-71162700D01*
X191933377Y-71206894D01*
X191923906Y-71214667D01*
X191912373Y-71222373D01*
X191865584Y-71292396D01*
X191865582Y-71292400D01*
X191853300Y-71354150D01*
X191853300Y-71665846D01*
X191853301Y-71665853D01*
X191865581Y-71727596D01*
X191867938Y-71733286D01*
X191866181Y-71734013D01*
X191873952Y-71773074D01*
X191856847Y-71805076D01*
X191583931Y-72077994D01*
X191539737Y-72096300D01*
X190781985Y-72096300D01*
X190737791Y-72077994D01*
X190719485Y-72033800D01*
X190720686Y-72021607D01*
X190740897Y-71920000D01*
X190740897Y-71919999D01*
X190719515Y-71812505D01*
X190719514Y-71812503D01*
X190658624Y-71721375D01*
X190567496Y-71660485D01*
X190567494Y-71660484D01*
X190460001Y-71639103D01*
X190459999Y-71639103D01*
X190352505Y-71660484D01*
X190352503Y-71660485D01*
X190261375Y-71721375D01*
X190200485Y-71812503D01*
X190200484Y-71812505D01*
X190179103Y-71919999D01*
X190179103Y-71920000D01*
X190200484Y-72027494D01*
X190200486Y-72027497D01*
X190245766Y-72095262D01*
X190256300Y-72129986D01*
X190256300Y-72140518D01*
X190287310Y-72215385D01*
X190287312Y-72215388D01*
X190353403Y-72281479D01*
X190353405Y-72281480D01*
X190483742Y-72411817D01*
X190483748Y-72411824D01*
X190487310Y-72415386D01*
X190487311Y-72415387D01*
X190544613Y-72472689D01*
X190544615Y-72472690D01*
X190544617Y-72472691D01*
X190570701Y-72483496D01*
X190570706Y-72483497D01*
X190619482Y-72503701D01*
X190707792Y-72503701D01*
X190707800Y-72503700D01*
X190915937Y-72503700D01*
X190960131Y-72522006D01*
X190978437Y-72566200D01*
X190960131Y-72610394D01*
X190937411Y-72624895D01*
X190743294Y-72695913D01*
X190734875Y-72698339D01*
X190501304Y-72748229D01*
X190492630Y-72749454D01*
X190254380Y-72766194D01*
X190245618Y-72766194D01*
X190007368Y-72749454D01*
X189998694Y-72748229D01*
X189765123Y-72698339D01*
X189756704Y-72695913D01*
X189532403Y-72613851D01*
X189524413Y-72610275D01*
X189372190Y-72528882D01*
X189316559Y-72499136D01*
X189314782Y-72498148D01*
X189306157Y-72493169D01*
X189304144Y-72491956D01*
X189290686Y-72483497D01*
X189269621Y-72470256D01*
X189226039Y-72459265D01*
X189225152Y-72459035D01*
X189189552Y-72449496D01*
X189188432Y-72449349D01*
X189181320Y-72447989D01*
X189177328Y-72446982D01*
X189177321Y-72446982D01*
X189141995Y-72449358D01*
X189137801Y-72449499D01*
X185004919Y-72449499D01*
X184995144Y-72448730D01*
X184978807Y-72446142D01*
X184948128Y-72441284D01*
X184929531Y-72435241D01*
X184891556Y-72415892D01*
X184875736Y-72404398D01*
X184845601Y-72374263D01*
X184834107Y-72358443D01*
X184814758Y-72320468D01*
X184808715Y-72301870D01*
X184801269Y-72254854D01*
X184800500Y-72245078D01*
X184800500Y-72187974D01*
X184787719Y-72131977D01*
X184772895Y-72067031D01*
X184719071Y-71955263D01*
X184719070Y-71955262D01*
X184719070Y-71955261D01*
X184719067Y-71955258D01*
X184649788Y-71868385D01*
X184636545Y-71822420D01*
X184659684Y-71780553D01*
X184698652Y-71766917D01*
X184845800Y-71766917D01*
X184889994Y-71785223D01*
X184908300Y-71829417D01*
X184908300Y-71907557D01*
X184912749Y-71929926D01*
X184912750Y-71929928D01*
X184916171Y-71935047D01*
X184929702Y-71955298D01*
X184948686Y-71967982D01*
X184955071Y-71972249D01*
X184955073Y-71972250D01*
X184977444Y-71976700D01*
X185692556Y-71976700D01*
X185714927Y-71972250D01*
X185740298Y-71955298D01*
X185757250Y-71929927D01*
X185761700Y-71907556D01*
X185761700Y-71192444D01*
X185757250Y-71170073D01*
X185740298Y-71144702D01*
X185723084Y-71133200D01*
X185714928Y-71127750D01*
X185714926Y-71127749D01*
X185692557Y-71123300D01*
X185692556Y-71123300D01*
X184977444Y-71123300D01*
X184977442Y-71123300D01*
X184955073Y-71127749D01*
X184955071Y-71127750D01*
X184929702Y-71144702D01*
X184912750Y-71170071D01*
X184912749Y-71170073D01*
X184908300Y-71192442D01*
X184908300Y-71424017D01*
X184889994Y-71468211D01*
X184845800Y-71486517D01*
X181424022Y-71486517D01*
X181413841Y-71485681D01*
X181389262Y-71486484D01*
X181387223Y-71486517D01*
X181362644Y-71486517D01*
X181362634Y-71486519D01*
X181352504Y-71487682D01*
X181128765Y-71494985D01*
X181126726Y-71495018D01*
X180861674Y-71495018D01*
X180810146Y-71516361D01*
X180810143Y-71516363D01*
X180770730Y-71555777D01*
X180770706Y-71555801D01*
X180770705Y-71555802D01*
X180532368Y-71794139D01*
X180293100Y-72033406D01*
X180293099Y-72033406D01*
X180293100Y-72033407D01*
X180262451Y-72064056D01*
X180241108Y-72115584D01*
X180241108Y-72870938D01*
X180222802Y-72915132D01*
X180178608Y-72933438D01*
X180172241Y-72932812D01*
X180169299Y-72932812D01*
X180061805Y-72954193D01*
X180061803Y-72954194D01*
X179970675Y-73015084D01*
X179909785Y-73106212D01*
X179909784Y-73106214D01*
X179888403Y-73213708D01*
X179888403Y-73213709D01*
X179909784Y-73321203D01*
X179909785Y-73321205D01*
X179930547Y-73352277D01*
X179939879Y-73399193D01*
X179913303Y-73438967D01*
X179878580Y-73449500D01*
X171530781Y-73449500D01*
X171486587Y-73431194D01*
X171468281Y-73387000D01*
X171486587Y-73342806D01*
X171492734Y-73337415D01*
X171546307Y-73296307D01*
X171596206Y-73231277D01*
X171638746Y-73175838D01*
X171696856Y-73035549D01*
X171710299Y-72933438D01*
X171716676Y-72885001D01*
X171716676Y-72884998D01*
X171699837Y-72757094D01*
X171712217Y-72710888D01*
X171717601Y-72704749D01*
X172487303Y-71935046D01*
X172531496Y-71916741D01*
X172575690Y-71935047D01*
X172593996Y-71979241D01*
X172592795Y-71991432D01*
X172589103Y-72009996D01*
X172589103Y-72010000D01*
X172610484Y-72117494D01*
X172610485Y-72117496D01*
X172671375Y-72208624D01*
X172762503Y-72269514D01*
X172762505Y-72269515D01*
X172869999Y-72290897D01*
X172870000Y-72290897D01*
X172870001Y-72290897D01*
X172943731Y-72276231D01*
X172977495Y-72269515D01*
X173022394Y-72239514D01*
X173045264Y-72224233D01*
X173079987Y-72213700D01*
X173117190Y-72213700D01*
X173161384Y-72232006D01*
X173174932Y-72252282D01*
X173175871Y-72254550D01*
X173190358Y-72276231D01*
X173223768Y-72326232D01*
X173288524Y-72369500D01*
X173315099Y-72409272D01*
X173315825Y-72416643D01*
X173316300Y-72419032D01*
X173316300Y-72419033D01*
X173327877Y-72446982D01*
X173347310Y-72493899D01*
X173347312Y-72493902D01*
X173413403Y-72559993D01*
X173413404Y-72559993D01*
X174018099Y-73164689D01*
X174092967Y-73195700D01*
X174092969Y-73195700D01*
X174528517Y-73195700D01*
X174528519Y-73195700D01*
X174603387Y-73164689D01*
X174660689Y-73107387D01*
X174660689Y-73107386D01*
X174669477Y-73098598D01*
X174669478Y-73098595D01*
X175413069Y-72355006D01*
X175457263Y-72336700D01*
X175691342Y-72336700D01*
X175754552Y-72324127D01*
X175826232Y-72276232D01*
X175869500Y-72211477D01*
X175909274Y-72184901D01*
X175921467Y-72183700D01*
X175940013Y-72183700D01*
X175974736Y-72194233D01*
X176042503Y-72239514D01*
X176042505Y-72239515D01*
X176149999Y-72260897D01*
X176150000Y-72260897D01*
X176207782Y-72249403D01*
X176254698Y-72258735D01*
X176281274Y-72298508D01*
X176271942Y-72345425D01*
X176240485Y-72392503D01*
X176240484Y-72392505D01*
X176219103Y-72499999D01*
X176219103Y-72500000D01*
X176240484Y-72607494D01*
X176240485Y-72607496D01*
X176301375Y-72698624D01*
X176392503Y-72759514D01*
X176392505Y-72759515D01*
X176499999Y-72780897D01*
X176500000Y-72780897D01*
X176500001Y-72780897D01*
X176554813Y-72769994D01*
X176607495Y-72759515D01*
X176698624Y-72698624D01*
X176719102Y-72667977D01*
X176758876Y-72641401D01*
X176771069Y-72640200D01*
X177512888Y-72640200D01*
X177564417Y-72618856D01*
X178308266Y-71875004D01*
X178352460Y-71856699D01*
X178625310Y-71856699D01*
X178669504Y-71875005D01*
X178687810Y-71919199D01*
X178669504Y-71963393D01*
X178639515Y-71993381D01*
X178639508Y-71993390D01*
X178580203Y-72096108D01*
X178580200Y-72096114D01*
X178549501Y-72210684D01*
X178549500Y-72210692D01*
X178549500Y-72329307D01*
X178549501Y-72329315D01*
X178580200Y-72443885D01*
X178580203Y-72443891D01*
X178639508Y-72546609D01*
X178639515Y-72546618D01*
X178723381Y-72630484D01*
X178723390Y-72630491D01*
X178826108Y-72689796D01*
X178826114Y-72689799D01*
X178940691Y-72720500D01*
X178940692Y-72720500D01*
X179059308Y-72720500D01*
X179059309Y-72720500D01*
X179173886Y-72689799D01*
X179276613Y-72630489D01*
X179360489Y-72546613D01*
X179419799Y-72443886D01*
X179450500Y-72329309D01*
X179450500Y-72210691D01*
X179419799Y-72096114D01*
X179419379Y-72095387D01*
X179360491Y-71993390D01*
X179360484Y-71993381D01*
X179330496Y-71963393D01*
X179312190Y-71919199D01*
X179330496Y-71875005D01*
X179374688Y-71856699D01*
X179705848Y-71856699D01*
X179767601Y-71844417D01*
X179837627Y-71797627D01*
X179884417Y-71727601D01*
X179896700Y-71665849D01*
X179896699Y-71354152D01*
X179884417Y-71292399D01*
X179837627Y-71222373D01*
X179786397Y-71188142D01*
X179767603Y-71175584D01*
X179767599Y-71175582D01*
X179705849Y-71163300D01*
X179294153Y-71163300D01*
X179294149Y-71163301D01*
X179232400Y-71175582D01*
X179232396Y-71175584D01*
X179162373Y-71222373D01*
X179115584Y-71292396D01*
X179115583Y-71292398D01*
X179115583Y-71292399D01*
X179115167Y-71294492D01*
X179113981Y-71296266D01*
X179113229Y-71298084D01*
X179112867Y-71297934D01*
X179088593Y-71334265D01*
X179053868Y-71344800D01*
X178953835Y-71344800D01*
X178909641Y-71326494D01*
X178892536Y-71294492D01*
X178891913Y-71291359D01*
X178883691Y-71250022D01*
X178834139Y-71175861D01*
X178780768Y-71140200D01*
X178759979Y-71126309D01*
X178759977Y-71126308D01*
X178694579Y-71113300D01*
X178305423Y-71113300D01*
X178305419Y-71113301D01*
X178240024Y-71126308D01*
X178240022Y-71126309D01*
X178207672Y-71147924D01*
X178160755Y-71157255D01*
X178120982Y-71130678D01*
X178111651Y-71083761D01*
X178117191Y-71070391D01*
X178116500Y-71070105D01*
X178118856Y-71064417D01*
X178140200Y-71012888D01*
X178140200Y-70368711D01*
X178158506Y-70324517D01*
X178324517Y-70158506D01*
X178368711Y-70140200D01*
X179699065Y-70140200D01*
X179743259Y-70158506D01*
X180251794Y-70667041D01*
X180270100Y-70711235D01*
X180270100Y-70912412D01*
X180270100Y-70968188D01*
X180282447Y-70997997D01*
X180291443Y-71019715D01*
X180291445Y-71019718D01*
X180309188Y-71037461D01*
X180327494Y-71081655D01*
X180326293Y-71093847D01*
X180319103Y-71129997D01*
X180319103Y-71130000D01*
X180340484Y-71237494D01*
X180340485Y-71237496D01*
X180401375Y-71328624D01*
X180492503Y-71389514D01*
X180492505Y-71389515D01*
X180599999Y-71410897D01*
X180600000Y-71410897D01*
X180600001Y-71410897D01*
X180653747Y-71400206D01*
X180707495Y-71389515D01*
X180798624Y-71328624D01*
X180859515Y-71237495D01*
X180880897Y-71130000D01*
X180880896Y-71129997D01*
X180859515Y-71022505D01*
X180859514Y-71022503D01*
X180832399Y-70981923D01*
X180823067Y-70935007D01*
X180849643Y-70895233D01*
X180884366Y-70884700D01*
X185274537Y-70884700D01*
X185274538Y-70884700D01*
X185296446Y-70878829D01*
X185312622Y-70876700D01*
X185692556Y-70876700D01*
X185714927Y-70872250D01*
X185740298Y-70855298D01*
X185757250Y-70829927D01*
X185761700Y-70807556D01*
X185761700Y-70427066D01*
X185780006Y-70382872D01*
X186107572Y-70055306D01*
X186151766Y-70037000D01*
X186675800Y-70037000D01*
X186719994Y-70055306D01*
G37*
%TD.AperFunction*%
%TA.AperFunction,Conductor*%
G36*
X175937628Y-69085506D02*
G01*
X176196256Y-69344134D01*
X176214562Y-69388328D01*
X176196256Y-69432522D01*
X176160787Y-69447213D01*
X176161268Y-69449627D01*
X176047736Y-69472209D01*
X176047734Y-69472210D01*
X175979967Y-69517492D01*
X175945244Y-69528025D01*
X175707756Y-69528025D01*
X175632889Y-69559035D01*
X175632886Y-69559037D01*
X175596930Y-69594994D01*
X175552736Y-69613300D01*
X175318658Y-69613300D01*
X175255449Y-69625872D01*
X175255445Y-69625874D01*
X175183768Y-69673768D01*
X175135874Y-69745445D01*
X175135872Y-69745449D01*
X175123300Y-69808657D01*
X175123300Y-70191342D01*
X175135872Y-70254550D01*
X175135873Y-70254552D01*
X175183768Y-70326232D01*
X175255448Y-70374127D01*
X175318658Y-70386700D01*
X175641342Y-70386700D01*
X175704552Y-70374127D01*
X175776232Y-70326232D01*
X175824127Y-70254552D01*
X175827732Y-70236426D01*
X175854308Y-70196653D01*
X175901224Y-70187321D01*
X175940998Y-70213897D01*
X175951531Y-70248620D01*
X175951531Y-70334264D01*
X175960824Y-70356699D01*
X175982541Y-70409130D01*
X175982543Y-70409133D01*
X176048634Y-70475224D01*
X176048636Y-70475225D01*
X177084994Y-71511583D01*
X177103300Y-71555777D01*
X177103300Y-71567736D01*
X177084994Y-71611930D01*
X176938931Y-71757994D01*
X176894737Y-71776300D01*
X176359987Y-71776300D01*
X176325264Y-71765767D01*
X176257496Y-71720485D01*
X176257494Y-71720484D01*
X176150001Y-71699103D01*
X176149999Y-71699103D01*
X176042505Y-71720484D01*
X176042503Y-71720485D01*
X175974736Y-71765767D01*
X175940013Y-71776300D01*
X175921467Y-71776300D01*
X175877273Y-71757994D01*
X175869500Y-71748523D01*
X175864429Y-71740934D01*
X175826232Y-71683768D01*
X175759386Y-71639103D01*
X175754554Y-71635874D01*
X175754550Y-71635872D01*
X175691342Y-71623300D01*
X175308658Y-71623300D01*
X175245449Y-71635872D01*
X175245445Y-71635874D01*
X175173768Y-71683768D01*
X175125874Y-71755445D01*
X175125872Y-71755449D01*
X175113300Y-71818657D01*
X175113300Y-72052737D01*
X175094994Y-72096931D01*
X174421931Y-72769994D01*
X174377737Y-72788300D01*
X174243750Y-72788300D01*
X174199556Y-72769994D01*
X173828293Y-72398731D01*
X173809987Y-72354537D01*
X173820520Y-72319814D01*
X173826901Y-72310264D01*
X173864127Y-72254552D01*
X173876700Y-72191342D01*
X173876700Y-71808658D01*
X173864127Y-71745448D01*
X173816232Y-71673768D01*
X173759517Y-71635872D01*
X173744554Y-71625874D01*
X173744550Y-71625872D01*
X173681342Y-71613300D01*
X173358658Y-71613300D01*
X173295449Y-71625872D01*
X173295445Y-71625874D01*
X173223768Y-71673768D01*
X173175874Y-71745445D01*
X173175872Y-71745449D01*
X173173776Y-71755992D01*
X173147201Y-71795766D01*
X173112477Y-71806300D01*
X173106200Y-71806300D01*
X173062006Y-71787994D01*
X173043700Y-71743800D01*
X173043700Y-70997997D01*
X173043700Y-70997995D01*
X173012689Y-70923127D01*
X172955387Y-70865825D01*
X172955386Y-70865824D01*
X172951824Y-70862262D01*
X172951817Y-70862256D01*
X172720006Y-70630445D01*
X172701700Y-70586251D01*
X172701700Y-70473749D01*
X172720006Y-70429555D01*
X172799556Y-70350006D01*
X172843750Y-70331700D01*
X172852517Y-70331700D01*
X172852519Y-70331700D01*
X172927387Y-70300689D01*
X172945553Y-70282521D01*
X172977554Y-70265415D01*
X173057495Y-70249515D01*
X173057496Y-70249513D01*
X173063179Y-70247160D01*
X173064078Y-70249332D01*
X173102006Y-70241786D01*
X173141780Y-70268359D01*
X173173768Y-70316232D01*
X173245448Y-70364127D01*
X173308658Y-70376700D01*
X173691342Y-70376700D01*
X173754552Y-70364127D01*
X173826232Y-70316232D01*
X173874127Y-70244552D01*
X173886700Y-70181342D01*
X173886700Y-69858658D01*
X173874127Y-69795448D01*
X173826232Y-69723768D01*
X173776801Y-69690739D01*
X173769433Y-69685816D01*
X173742857Y-69646042D01*
X173752189Y-69599126D01*
X173791963Y-69572550D01*
X173857495Y-69559515D01*
X173948624Y-69498624D01*
X174009515Y-69407495D01*
X174030897Y-69300000D01*
X174023207Y-69261342D01*
X174016323Y-69226733D01*
X174009515Y-69192505D01*
X173990750Y-69164422D01*
X173981419Y-69117507D01*
X174007994Y-69077733D01*
X174042718Y-69067200D01*
X175893434Y-69067200D01*
X175937628Y-69085506D01*
G37*
%TD.AperFunction*%
%TA.AperFunction,Conductor*%
G36*
X239504854Y-69551269D02*
G01*
X239515898Y-69553018D01*
X239551871Y-69558715D01*
X239570468Y-69564758D01*
X239608443Y-69584107D01*
X239624263Y-69595601D01*
X239654398Y-69625736D01*
X239665892Y-69641556D01*
X239685241Y-69679531D01*
X239691283Y-69698127D01*
X239698730Y-69745143D01*
X239699500Y-69754921D01*
X239699500Y-70032031D01*
X239681194Y-70076225D01*
X239637000Y-70094531D01*
X239592806Y-70076225D01*
X239585034Y-70066755D01*
X239570298Y-70044702D01*
X239544928Y-70027750D01*
X239544926Y-70027749D01*
X239522557Y-70023300D01*
X239522556Y-70023300D01*
X238807444Y-70023300D01*
X238807442Y-70023300D01*
X238785073Y-70027749D01*
X238785071Y-70027750D01*
X238759702Y-70044702D01*
X238742750Y-70070071D01*
X238742749Y-70070073D01*
X238738300Y-70092442D01*
X238738300Y-70807557D01*
X238742749Y-70829926D01*
X238742750Y-70829928D01*
X238750245Y-70841144D01*
X238759702Y-70855298D01*
X238770116Y-70862256D01*
X238785071Y-70872249D01*
X238785073Y-70872250D01*
X238807444Y-70876700D01*
X239522556Y-70876700D01*
X239544927Y-70872250D01*
X239570298Y-70855298D01*
X239585033Y-70833244D01*
X239624807Y-70806669D01*
X239671723Y-70816001D01*
X239698299Y-70855775D01*
X239699500Y-70867968D01*
X239699500Y-72245078D01*
X239698730Y-72254856D01*
X239691283Y-72301872D01*
X239685241Y-72320468D01*
X239665892Y-72358443D01*
X239654398Y-72374263D01*
X239624263Y-72404398D01*
X239608443Y-72415892D01*
X239570468Y-72435241D01*
X239551871Y-72441284D01*
X239517321Y-72446755D01*
X239504854Y-72448730D01*
X239495080Y-72449499D01*
X191939463Y-72449499D01*
X191895269Y-72431193D01*
X191876963Y-72386999D01*
X191895269Y-72342805D01*
X192123574Y-72114500D01*
X192356595Y-71881478D01*
X192356602Y-71881474D01*
X192363072Y-71875005D01*
X192375194Y-71869983D01*
X192381022Y-71866382D01*
X192381028Y-71866380D01*
X192381375Y-71867423D01*
X192407266Y-71856699D01*
X192455847Y-71856699D01*
X192455848Y-71856699D01*
X192517601Y-71844417D01*
X192587627Y-71797627D01*
X192634417Y-71727601D01*
X192646700Y-71665849D01*
X192646699Y-71354152D01*
X192634417Y-71292399D01*
X192587627Y-71222373D01*
X192576093Y-71214666D01*
X192549518Y-71174893D01*
X192558850Y-71127977D01*
X192598624Y-71101401D01*
X192610817Y-71100200D01*
X192661039Y-71100200D01*
X192705233Y-71118506D01*
X192889994Y-71303267D01*
X192908300Y-71347461D01*
X192908300Y-71907557D01*
X192912749Y-71929926D01*
X192912750Y-71929928D01*
X192916171Y-71935047D01*
X192929702Y-71955298D01*
X192948686Y-71967982D01*
X192955071Y-71972249D01*
X192955073Y-71972250D01*
X192977444Y-71976700D01*
X193692556Y-71976700D01*
X193714927Y-71972250D01*
X193740298Y-71955298D01*
X193757250Y-71929927D01*
X193761700Y-71907556D01*
X193761700Y-71192444D01*
X193757250Y-71170073D01*
X193740298Y-71144702D01*
X193723084Y-71133200D01*
X193714928Y-71127750D01*
X193714926Y-71127749D01*
X193692557Y-71123300D01*
X193692556Y-71123300D01*
X193132461Y-71123300D01*
X193088267Y-71104994D01*
X192966667Y-70983394D01*
X192948361Y-70939200D01*
X192966667Y-70895006D01*
X193010861Y-70876700D01*
X193692556Y-70876700D01*
X193714927Y-70872250D01*
X193740298Y-70855298D01*
X193757250Y-70829927D01*
X193761700Y-70807556D01*
X193761700Y-70427066D01*
X193780006Y-70382872D01*
X194107572Y-70055306D01*
X194151766Y-70037000D01*
X194675800Y-70037000D01*
X194719994Y-70055306D01*
X194738300Y-70099500D01*
X194738300Y-70807557D01*
X194742749Y-70829926D01*
X194742750Y-70829928D01*
X194750245Y-70841144D01*
X194759702Y-70855298D01*
X194770116Y-70862256D01*
X194785071Y-70872249D01*
X194785073Y-70872250D01*
X194807444Y-70876700D01*
X195367539Y-70876700D01*
X195411733Y-70895006D01*
X195589144Y-71072417D01*
X195628583Y-71111856D01*
X195680112Y-71133200D01*
X196694039Y-71133200D01*
X196738233Y-71151506D01*
X196889994Y-71303267D01*
X196908300Y-71347461D01*
X196908300Y-71907557D01*
X196912749Y-71929926D01*
X196912750Y-71929928D01*
X196916171Y-71935047D01*
X196929702Y-71955298D01*
X196948686Y-71967982D01*
X196955071Y-71972249D01*
X196955073Y-71972250D01*
X196977444Y-71976700D01*
X197692556Y-71976700D01*
X197714927Y-71972250D01*
X197740298Y-71955298D01*
X197757250Y-71929927D01*
X197761700Y-71907556D01*
X197761700Y-71192444D01*
X197757250Y-71170073D01*
X197740298Y-71144702D01*
X197723084Y-71133200D01*
X197714928Y-71127750D01*
X197714926Y-71127749D01*
X197692557Y-71123300D01*
X197692556Y-71123300D01*
X197132461Y-71123300D01*
X197088267Y-71104994D01*
X196966667Y-70983394D01*
X196948361Y-70939200D01*
X196966667Y-70895006D01*
X197010861Y-70876700D01*
X197692556Y-70876700D01*
X197714927Y-70872250D01*
X197740298Y-70855298D01*
X197757250Y-70829927D01*
X197761700Y-70807556D01*
X197761700Y-70427066D01*
X197780006Y-70382872D01*
X198107572Y-70055306D01*
X198151766Y-70037000D01*
X198675800Y-70037000D01*
X198719994Y-70055306D01*
X198738300Y-70099500D01*
X198738300Y-70807557D01*
X198742749Y-70829926D01*
X198742750Y-70829928D01*
X198750245Y-70841144D01*
X198759702Y-70855298D01*
X198770116Y-70862256D01*
X198785071Y-70872249D01*
X198785073Y-70872250D01*
X198807444Y-70876700D01*
X199522556Y-70876700D01*
X199544927Y-70872250D01*
X199570298Y-70855298D01*
X199587250Y-70829927D01*
X199591700Y-70807556D01*
X199591700Y-70652700D01*
X199610006Y-70608506D01*
X199654200Y-70590200D01*
X200342238Y-70590200D01*
X200386432Y-70608506D01*
X200894975Y-71117049D01*
X200913281Y-71161243D01*
X200912081Y-71173434D01*
X200910104Y-71183372D01*
X200908301Y-71192442D01*
X200908300Y-71192446D01*
X200908300Y-71907557D01*
X200912749Y-71929926D01*
X200912750Y-71929928D01*
X200916171Y-71935047D01*
X200929702Y-71955298D01*
X200948686Y-71967982D01*
X200955071Y-71972249D01*
X200955073Y-71972250D01*
X200977444Y-71976700D01*
X201692556Y-71976700D01*
X201714927Y-71972250D01*
X201740298Y-71955298D01*
X201757250Y-71929927D01*
X201761700Y-71907556D01*
X201761700Y-71192444D01*
X201757250Y-71170073D01*
X201740298Y-71144702D01*
X201723084Y-71133200D01*
X201714928Y-71127750D01*
X201714926Y-71127749D01*
X201692557Y-71123300D01*
X201692556Y-71123300D01*
X201323659Y-71123300D01*
X201279465Y-71104994D01*
X201157865Y-70983394D01*
X201139559Y-70939200D01*
X201157865Y-70895006D01*
X201202059Y-70876700D01*
X201692556Y-70876700D01*
X201714927Y-70872250D01*
X201740298Y-70855298D01*
X201757250Y-70829927D01*
X201761700Y-70807556D01*
X201761700Y-70427066D01*
X201780006Y-70382872D01*
X202107572Y-70055306D01*
X202151766Y-70037000D01*
X202675800Y-70037000D01*
X202719994Y-70055306D01*
X202738300Y-70099500D01*
X202738300Y-70807557D01*
X202742749Y-70829926D01*
X202742750Y-70829928D01*
X202750245Y-70841144D01*
X202759702Y-70855298D01*
X202770116Y-70862256D01*
X202785071Y-70872249D01*
X202785073Y-70872250D01*
X202807444Y-70876700D01*
X203367539Y-70876700D01*
X203411733Y-70895006D01*
X203628583Y-71111856D01*
X203680112Y-71133200D01*
X203735888Y-71133200D01*
X204694039Y-71133200D01*
X204738233Y-71151506D01*
X204889994Y-71303267D01*
X204908300Y-71347461D01*
X204908300Y-71907557D01*
X204912749Y-71929926D01*
X204912750Y-71929928D01*
X204916171Y-71935047D01*
X204929702Y-71955298D01*
X204948686Y-71967982D01*
X204955071Y-71972249D01*
X204955073Y-71972250D01*
X204977444Y-71976700D01*
X205692556Y-71976700D01*
X205714927Y-71972250D01*
X205740298Y-71955298D01*
X205757250Y-71929927D01*
X205761700Y-71907556D01*
X205761700Y-71192444D01*
X205757250Y-71170073D01*
X205740298Y-71144702D01*
X205723084Y-71133200D01*
X205714928Y-71127750D01*
X205714926Y-71127749D01*
X205692557Y-71123300D01*
X205692556Y-71123300D01*
X205132461Y-71123300D01*
X205088267Y-71104994D01*
X204966667Y-70983394D01*
X204948361Y-70939200D01*
X204966667Y-70895006D01*
X205010861Y-70876700D01*
X205692556Y-70876700D01*
X205714927Y-70872250D01*
X205740298Y-70855298D01*
X205757250Y-70829927D01*
X205761700Y-70807556D01*
X205761700Y-70427066D01*
X205780006Y-70382872D01*
X206107572Y-70055306D01*
X206151766Y-70037000D01*
X206675800Y-70037000D01*
X206719994Y-70055306D01*
X206738300Y-70099500D01*
X206738300Y-70807557D01*
X206742749Y-70829926D01*
X206742750Y-70829928D01*
X206750245Y-70841144D01*
X206759702Y-70855298D01*
X206770116Y-70862256D01*
X206785071Y-70872249D01*
X206785073Y-70872250D01*
X206807444Y-70876700D01*
X207522556Y-70876700D01*
X207544927Y-70872250D01*
X207570298Y-70855298D01*
X207587250Y-70829927D01*
X207591700Y-70807556D01*
X207591700Y-70652700D01*
X207610006Y-70608506D01*
X207654200Y-70590200D01*
X208151039Y-70590200D01*
X208195233Y-70608506D01*
X208889994Y-71303267D01*
X208908300Y-71347461D01*
X208908300Y-71907557D01*
X208912749Y-71929926D01*
X208912750Y-71929928D01*
X208916171Y-71935047D01*
X208929702Y-71955298D01*
X208948686Y-71967982D01*
X208955071Y-71972249D01*
X208955073Y-71972250D01*
X208977444Y-71976700D01*
X209692556Y-71976700D01*
X209714927Y-71972250D01*
X209740298Y-71955298D01*
X209757250Y-71929927D01*
X209761700Y-71907556D01*
X209761700Y-71192444D01*
X209757250Y-71170073D01*
X209740298Y-71144702D01*
X209723084Y-71133200D01*
X209714928Y-71127750D01*
X209714926Y-71127749D01*
X209692557Y-71123300D01*
X209692556Y-71123300D01*
X209132461Y-71123300D01*
X209088267Y-71104994D01*
X208966667Y-70983394D01*
X208948361Y-70939200D01*
X208966667Y-70895006D01*
X209010861Y-70876700D01*
X209692556Y-70876700D01*
X209714927Y-70872250D01*
X209740298Y-70855298D01*
X209757250Y-70829927D01*
X209761700Y-70807556D01*
X209761700Y-70774307D01*
X209780006Y-70730113D01*
X209800280Y-70716565D01*
X209896957Y-70676521D01*
X210518172Y-70055306D01*
X210562366Y-70037000D01*
X210675800Y-70037000D01*
X210719994Y-70055306D01*
X210738300Y-70099500D01*
X210738300Y-70807557D01*
X210742749Y-70829926D01*
X210742750Y-70829928D01*
X210750245Y-70841144D01*
X210759702Y-70855298D01*
X210770116Y-70862256D01*
X210785071Y-70872249D01*
X210785073Y-70872250D01*
X210807444Y-70876700D01*
X211367539Y-70876700D01*
X211411733Y-70895006D01*
X211589144Y-71072417D01*
X211628583Y-71111856D01*
X211680112Y-71133200D01*
X212694039Y-71133200D01*
X212738233Y-71151506D01*
X212889994Y-71303267D01*
X212908300Y-71347461D01*
X212908300Y-71907557D01*
X212912749Y-71929926D01*
X212912750Y-71929928D01*
X212916171Y-71935047D01*
X212929702Y-71955298D01*
X212948686Y-71967982D01*
X212955071Y-71972249D01*
X212955073Y-71972250D01*
X212977444Y-71976700D01*
X213692556Y-71976700D01*
X213714927Y-71972250D01*
X213740298Y-71955298D01*
X213757250Y-71929927D01*
X213761700Y-71907556D01*
X213761700Y-71192444D01*
X213757250Y-71170073D01*
X213740298Y-71144702D01*
X213723084Y-71133200D01*
X213714928Y-71127750D01*
X213714926Y-71127749D01*
X213692557Y-71123300D01*
X213692556Y-71123300D01*
X213132461Y-71123300D01*
X213088267Y-71104994D01*
X212966667Y-70983394D01*
X212948361Y-70939200D01*
X212966667Y-70895006D01*
X213010861Y-70876700D01*
X213692556Y-70876700D01*
X213714927Y-70872250D01*
X213740298Y-70855298D01*
X213757250Y-70829927D01*
X213761700Y-70807556D01*
X213761700Y-70427066D01*
X213780006Y-70382872D01*
X214107572Y-70055306D01*
X214151766Y-70037000D01*
X214675800Y-70037000D01*
X214719994Y-70055306D01*
X214738300Y-70099500D01*
X214738300Y-70807557D01*
X214742749Y-70829926D01*
X214742750Y-70829928D01*
X214750245Y-70841144D01*
X214759702Y-70855298D01*
X214770116Y-70862256D01*
X214785071Y-70872249D01*
X214785073Y-70872250D01*
X214807444Y-70876700D01*
X215522556Y-70876700D01*
X215544927Y-70872250D01*
X215570298Y-70855298D01*
X215587250Y-70829927D01*
X215591700Y-70807556D01*
X215591700Y-70652700D01*
X215610006Y-70608506D01*
X215654200Y-70590200D01*
X216151039Y-70590200D01*
X216195233Y-70608506D01*
X216889994Y-71303267D01*
X216908300Y-71347461D01*
X216908300Y-71907557D01*
X216912749Y-71929926D01*
X216912750Y-71929928D01*
X216916171Y-71935047D01*
X216929702Y-71955298D01*
X216948686Y-71967982D01*
X216955071Y-71972249D01*
X216955073Y-71972250D01*
X216977444Y-71976700D01*
X217692556Y-71976700D01*
X217714927Y-71972250D01*
X217740298Y-71955298D01*
X217757250Y-71929927D01*
X217761700Y-71907556D01*
X217761700Y-71192444D01*
X217757250Y-71170073D01*
X217740298Y-71144702D01*
X217723084Y-71133200D01*
X217714928Y-71127750D01*
X217714926Y-71127749D01*
X217692557Y-71123300D01*
X217692556Y-71123300D01*
X217132461Y-71123300D01*
X217088267Y-71104994D01*
X216966667Y-70983394D01*
X216948361Y-70939200D01*
X216966667Y-70895006D01*
X217010861Y-70876700D01*
X217692556Y-70876700D01*
X217714927Y-70872250D01*
X217740298Y-70855298D01*
X217757250Y-70829927D01*
X217761700Y-70807556D01*
X217761700Y-70427066D01*
X217780006Y-70382872D01*
X218107572Y-70055306D01*
X218151766Y-70037000D01*
X218675800Y-70037000D01*
X218719994Y-70055306D01*
X218738300Y-70099500D01*
X218738300Y-70807557D01*
X218742749Y-70829926D01*
X218742750Y-70829928D01*
X218750245Y-70841144D01*
X218759702Y-70855298D01*
X218770116Y-70862256D01*
X218785071Y-70872249D01*
X218785073Y-70872250D01*
X218807444Y-70876700D01*
X219367539Y-70876700D01*
X219411733Y-70895006D01*
X219635583Y-71118856D01*
X219687112Y-71140200D01*
X219742887Y-71140200D01*
X220701039Y-71140200D01*
X220745233Y-71158506D01*
X220889994Y-71303267D01*
X220908300Y-71347461D01*
X220908300Y-71907557D01*
X220912749Y-71929926D01*
X220912750Y-71929928D01*
X220916171Y-71935047D01*
X220929702Y-71955298D01*
X220948686Y-71967982D01*
X220955071Y-71972249D01*
X220955073Y-71972250D01*
X220977444Y-71976700D01*
X221692556Y-71976700D01*
X221714927Y-71972250D01*
X221740298Y-71955298D01*
X221757250Y-71929927D01*
X221761700Y-71907556D01*
X221761700Y-71192444D01*
X221757250Y-71170073D01*
X221740298Y-71144702D01*
X221723084Y-71133200D01*
X221714928Y-71127750D01*
X221714926Y-71127749D01*
X221692557Y-71123300D01*
X221692556Y-71123300D01*
X221132461Y-71123300D01*
X221088267Y-71104994D01*
X220966667Y-70983394D01*
X220948361Y-70939200D01*
X220966667Y-70895006D01*
X221010861Y-70876700D01*
X221692556Y-70876700D01*
X221714927Y-70872250D01*
X221740298Y-70855298D01*
X221757250Y-70829927D01*
X221761700Y-70807556D01*
X221761700Y-70427066D01*
X221780006Y-70382872D01*
X222107572Y-70055306D01*
X222151766Y-70037000D01*
X222675800Y-70037000D01*
X222719994Y-70055306D01*
X222738300Y-70099500D01*
X222738300Y-70807557D01*
X222742749Y-70829926D01*
X222742750Y-70829928D01*
X222750245Y-70841144D01*
X222759702Y-70855298D01*
X222770116Y-70862256D01*
X222785071Y-70872249D01*
X222785073Y-70872250D01*
X222807444Y-70876700D01*
X223522556Y-70876700D01*
X223544927Y-70872250D01*
X223570298Y-70855298D01*
X223587250Y-70829927D01*
X223591700Y-70807556D01*
X223591700Y-70652700D01*
X223610006Y-70608506D01*
X223654200Y-70590200D01*
X224151039Y-70590200D01*
X224195233Y-70608506D01*
X224889994Y-71303267D01*
X224908300Y-71347461D01*
X224908300Y-71907557D01*
X224912749Y-71929926D01*
X224912750Y-71929928D01*
X224916171Y-71935047D01*
X224929702Y-71955298D01*
X224948686Y-71967982D01*
X224955071Y-71972249D01*
X224955073Y-71972250D01*
X224977444Y-71976700D01*
X225692556Y-71976700D01*
X225714927Y-71972250D01*
X225740298Y-71955298D01*
X225757250Y-71929927D01*
X225761700Y-71907556D01*
X225761700Y-71192444D01*
X225757250Y-71170073D01*
X225740298Y-71144702D01*
X225723084Y-71133200D01*
X225714928Y-71127750D01*
X225714926Y-71127749D01*
X225692557Y-71123300D01*
X225692556Y-71123300D01*
X225132461Y-71123300D01*
X225088267Y-71104994D01*
X224966667Y-70983394D01*
X224948361Y-70939200D01*
X224966667Y-70895006D01*
X225010861Y-70876700D01*
X225692556Y-70876700D01*
X225714927Y-70872250D01*
X225740298Y-70855298D01*
X225757250Y-70829927D01*
X225761700Y-70807556D01*
X225761700Y-70427066D01*
X225780006Y-70382872D01*
X226107572Y-70055306D01*
X226151766Y-70037000D01*
X226675800Y-70037000D01*
X226719994Y-70055306D01*
X226738300Y-70099500D01*
X226738300Y-70807557D01*
X226742749Y-70829926D01*
X226742750Y-70829928D01*
X226750245Y-70841144D01*
X226759702Y-70855298D01*
X226770116Y-70862256D01*
X226785071Y-70872249D01*
X226785073Y-70872250D01*
X226807444Y-70876700D01*
X227367539Y-70876700D01*
X227411733Y-70895006D01*
X227596144Y-71079417D01*
X227635583Y-71118856D01*
X227687112Y-71140200D01*
X228701039Y-71140200D01*
X228745233Y-71158506D01*
X228889994Y-71303267D01*
X228908300Y-71347461D01*
X228908300Y-71907557D01*
X228912749Y-71929926D01*
X228912750Y-71929928D01*
X228916171Y-71935047D01*
X228929702Y-71955298D01*
X228948686Y-71967982D01*
X228955071Y-71972249D01*
X228955073Y-71972250D01*
X228977444Y-71976700D01*
X229692556Y-71976700D01*
X229714927Y-71972250D01*
X229740298Y-71955298D01*
X229757250Y-71929927D01*
X229761700Y-71907556D01*
X229761700Y-71192444D01*
X229757250Y-71170073D01*
X229740298Y-71144702D01*
X229723084Y-71133200D01*
X229714928Y-71127750D01*
X229714926Y-71127749D01*
X229692557Y-71123300D01*
X229692556Y-71123300D01*
X229132461Y-71123300D01*
X229088267Y-71104994D01*
X228966667Y-70983394D01*
X228948361Y-70939200D01*
X228966667Y-70895006D01*
X229010861Y-70876700D01*
X229692556Y-70876700D01*
X229714927Y-70872250D01*
X229740298Y-70855298D01*
X229757250Y-70829927D01*
X229761700Y-70807556D01*
X229761700Y-70427066D01*
X229780006Y-70382872D01*
X230107572Y-70055306D01*
X230151766Y-70037000D01*
X230675800Y-70037000D01*
X230719994Y-70055306D01*
X230738300Y-70099500D01*
X230738300Y-70807557D01*
X230742749Y-70829926D01*
X230742750Y-70829928D01*
X230750245Y-70841144D01*
X230759702Y-70855298D01*
X230770116Y-70862256D01*
X230785071Y-70872249D01*
X230785073Y-70872250D01*
X230807444Y-70876700D01*
X231522556Y-70876700D01*
X231544927Y-70872250D01*
X231570298Y-70855298D01*
X231587250Y-70829927D01*
X231591700Y-70807556D01*
X231591700Y-70652700D01*
X231610006Y-70608506D01*
X231654200Y-70590200D01*
X232151039Y-70590200D01*
X232195233Y-70608506D01*
X232889994Y-71303267D01*
X232908300Y-71347461D01*
X232908300Y-71907557D01*
X232912749Y-71929926D01*
X232912750Y-71929928D01*
X232916171Y-71935047D01*
X232929702Y-71955298D01*
X232948686Y-71967982D01*
X232955071Y-71972249D01*
X232955073Y-71972250D01*
X232977444Y-71976700D01*
X233692556Y-71976700D01*
X233714927Y-71972250D01*
X233740298Y-71955298D01*
X233757250Y-71929927D01*
X233761700Y-71907556D01*
X233761700Y-71192444D01*
X233757250Y-71170073D01*
X233740298Y-71144702D01*
X233723084Y-71133200D01*
X233714928Y-71127750D01*
X233714926Y-71127749D01*
X233692557Y-71123300D01*
X233692556Y-71123300D01*
X233132461Y-71123300D01*
X233088267Y-71104994D01*
X232966667Y-70983394D01*
X232948361Y-70939200D01*
X232966667Y-70895006D01*
X233010861Y-70876700D01*
X233692556Y-70876700D01*
X233714927Y-70872250D01*
X233740298Y-70855298D01*
X233757250Y-70829927D01*
X233761700Y-70807556D01*
X233761700Y-70427066D01*
X233780006Y-70382872D01*
X234107572Y-70055306D01*
X234151766Y-70037000D01*
X234675800Y-70037000D01*
X234719994Y-70055306D01*
X234738300Y-70099500D01*
X234738300Y-70807557D01*
X234742749Y-70829926D01*
X234742750Y-70829928D01*
X234750245Y-70841144D01*
X234759702Y-70855298D01*
X234770116Y-70862256D01*
X234785071Y-70872249D01*
X234785073Y-70872250D01*
X234807444Y-70876700D01*
X235367539Y-70876700D01*
X235411733Y-70895006D01*
X235635583Y-71118856D01*
X235687112Y-71140200D01*
X235742887Y-71140200D01*
X236701039Y-71140200D01*
X236745233Y-71158506D01*
X236889994Y-71303267D01*
X236908300Y-71347461D01*
X236908300Y-71907557D01*
X236912749Y-71929926D01*
X236912750Y-71929928D01*
X236916171Y-71935047D01*
X236929702Y-71955298D01*
X236948686Y-71967982D01*
X236955071Y-71972249D01*
X236955073Y-71972250D01*
X236977444Y-71976700D01*
X237692556Y-71976700D01*
X237714927Y-71972250D01*
X237740298Y-71955298D01*
X237757250Y-71929927D01*
X237761700Y-71907556D01*
X237761700Y-71192444D01*
X237757250Y-71170073D01*
X237740298Y-71144702D01*
X237723084Y-71133200D01*
X237714928Y-71127750D01*
X237714926Y-71127749D01*
X237692557Y-71123300D01*
X237692556Y-71123300D01*
X237132461Y-71123300D01*
X237088267Y-71104994D01*
X236966667Y-70983394D01*
X236948361Y-70939200D01*
X236966667Y-70895006D01*
X237010861Y-70876700D01*
X237692556Y-70876700D01*
X237714927Y-70872250D01*
X237740298Y-70855298D01*
X237757250Y-70829927D01*
X237761700Y-70807556D01*
X237761700Y-70092444D01*
X237757250Y-70070073D01*
X237740298Y-70044702D01*
X237727612Y-70036226D01*
X237714928Y-70027750D01*
X237714926Y-70027749D01*
X237692557Y-70023300D01*
X237692556Y-70023300D01*
X237312066Y-70023300D01*
X237267872Y-70004994D01*
X236920072Y-69657194D01*
X236901766Y-69613000D01*
X236920072Y-69568806D01*
X236964266Y-69550500D01*
X239495078Y-69550500D01*
X239504854Y-69551269D01*
G37*
%TD.AperFunction*%
%TA.AperFunction,Conductor*%
G36*
X169677037Y-68568806D02*
G01*
X169695343Y-68613000D01*
X169677037Y-68657194D01*
X169667566Y-68664967D01*
X169591375Y-68715875D01*
X169530485Y-68807003D01*
X169530484Y-68807005D01*
X169509103Y-68914499D01*
X169509103Y-68914500D01*
X169521599Y-68977321D01*
X169522800Y-68989514D01*
X169522800Y-69163434D01*
X169504494Y-69207628D01*
X169223480Y-69488641D01*
X169223479Y-69488642D01*
X169215950Y-69506819D01*
X169185267Y-69580897D01*
X169182800Y-69586852D01*
X169182800Y-70221750D01*
X169164494Y-70265944D01*
X168244952Y-71185485D01*
X168200758Y-71203791D01*
X168176842Y-71199034D01*
X168150552Y-71188145D01*
X168150550Y-71188144D01*
X168150549Y-71188144D01*
X168150547Y-71188143D01*
X168150541Y-71188142D01*
X168037797Y-71173300D01*
X165962210Y-71173300D01*
X165962196Y-71173301D01*
X165849458Y-71188142D01*
X165849447Y-71188145D01*
X165709164Y-71246252D01*
X165709161Y-71246254D01*
X165588692Y-71338692D01*
X165496254Y-71459161D01*
X165496252Y-71459164D01*
X165438145Y-71599447D01*
X165438142Y-71599458D01*
X165424965Y-71699555D01*
X165401048Y-71740982D01*
X165354843Y-71753363D01*
X165313416Y-71729446D01*
X165300500Y-71691398D01*
X165300500Y-70308594D01*
X165318806Y-70264400D01*
X165363000Y-70246094D01*
X165407194Y-70264400D01*
X165424965Y-70300437D01*
X165438142Y-70400541D01*
X165438145Y-70400552D01*
X165496252Y-70540835D01*
X165496254Y-70540838D01*
X165588692Y-70661307D01*
X165660705Y-70716564D01*
X165709162Y-70753746D01*
X165849451Y-70811856D01*
X165849457Y-70811856D01*
X165849458Y-70811857D01*
X165858798Y-70813086D01*
X165962203Y-70826700D01*
X168037796Y-70826699D01*
X168150549Y-70811856D01*
X168290838Y-70753746D01*
X168411307Y-70661307D01*
X168503746Y-70540838D01*
X168561856Y-70400549D01*
X168576700Y-70287797D01*
X168576699Y-69212204D01*
X168575610Y-69203933D01*
X168561857Y-69099458D01*
X168561856Y-69099457D01*
X168561856Y-69099451D01*
X168503746Y-68959162D01*
X168469475Y-68914499D01*
X168411307Y-68838692D01*
X168290838Y-68746254D01*
X168290835Y-68746252D01*
X168150552Y-68688145D01*
X168150550Y-68688144D01*
X168150549Y-68688144D01*
X168150547Y-68688143D01*
X168150541Y-68688142D01*
X168050445Y-68674965D01*
X168009018Y-68651048D01*
X167996637Y-68604843D01*
X168020554Y-68563416D01*
X168058602Y-68550500D01*
X169632843Y-68550500D01*
X169677037Y-68568806D01*
G37*
%TD.AperFunction*%
%TA.AperFunction,Conductor*%
G36*
X173501476Y-69085506D02*
G01*
X173519782Y-69129700D01*
X173509249Y-69164422D01*
X173502840Y-69174015D01*
X173490484Y-69192506D01*
X173469103Y-69299999D01*
X173469103Y-69300002D01*
X173473957Y-69324408D01*
X173464624Y-69371324D01*
X173456853Y-69380794D01*
X173370753Y-69466894D01*
X173326561Y-69485200D01*
X172867161Y-69485200D01*
X172854804Y-69490319D01*
X172824975Y-69502674D01*
X172824969Y-69502678D01*
X172792676Y-69534972D01*
X172477731Y-69849915D01*
X172433537Y-69868221D01*
X172389343Y-69849915D01*
X172371037Y-69805721D01*
X172372237Y-69793536D01*
X172380897Y-69750000D01*
X172379701Y-69743989D01*
X172359515Y-69642505D01*
X172359514Y-69642503D01*
X172298624Y-69551375D01*
X172207495Y-69490485D01*
X172177731Y-69484564D01*
X172145732Y-69467459D01*
X171905006Y-69226733D01*
X171886700Y-69182539D01*
X171886700Y-69147534D01*
X171905006Y-69103340D01*
X171949200Y-69085034D01*
X171993394Y-69103340D01*
X172001169Y-69112814D01*
X172001376Y-69113124D01*
X172092503Y-69174014D01*
X172092505Y-69174015D01*
X172199999Y-69195397D01*
X172200000Y-69195397D01*
X172200001Y-69195397D01*
X172235831Y-69188269D01*
X172307495Y-69174015D01*
X172398624Y-69113124D01*
X172406474Y-69101376D01*
X172410750Y-69094977D01*
X172450524Y-69068401D01*
X172462717Y-69067200D01*
X173457282Y-69067200D01*
X173501476Y-69085506D01*
G37*
%TD.AperFunction*%
%TA.AperFunction,Conductor*%
G36*
X180004064Y-68551035D02*
G01*
X180108181Y-68564742D01*
X180123941Y-68568965D01*
X180217147Y-68607573D01*
X180231275Y-68615728D01*
X180311319Y-68677149D01*
X180322850Y-68688680D01*
X180378625Y-68761367D01*
X180384269Y-68768722D01*
X180392426Y-68782852D01*
X180431034Y-68876058D01*
X180435257Y-68891818D01*
X180448965Y-68995936D01*
X180449500Y-69004094D01*
X180449500Y-69578842D01*
X180469587Y-69679829D01*
X180460255Y-69726745D01*
X180420481Y-69753321D01*
X180373565Y-69743989D01*
X180364094Y-69736216D01*
X180048057Y-69420179D01*
X180017435Y-69407495D01*
X179949849Y-69379500D01*
X179949848Y-69379500D01*
X179838242Y-69379500D01*
X179794048Y-69361194D01*
X179775742Y-69317000D01*
X179786275Y-69282277D01*
X179806658Y-69251771D01*
X179809515Y-69247495D01*
X179830897Y-69140000D01*
X179825550Y-69113121D01*
X179809515Y-69032505D01*
X179809514Y-69032503D01*
X179748624Y-68941375D01*
X179657496Y-68880485D01*
X179657494Y-68880484D01*
X179550001Y-68859103D01*
X179549999Y-68859103D01*
X179487178Y-68871599D01*
X179474985Y-68872800D01*
X179306827Y-68872800D01*
X179262633Y-68854494D01*
X179245528Y-68822491D01*
X179244127Y-68815449D01*
X179244126Y-68815446D01*
X179219512Y-68778609D01*
X179196232Y-68743768D01*
X179134280Y-68702373D01*
X179124554Y-68695874D01*
X179124550Y-68695872D01*
X179061342Y-68683300D01*
X178738658Y-68683300D01*
X178675449Y-68695872D01*
X178675445Y-68695874D01*
X178603768Y-68743768D01*
X178555874Y-68815445D01*
X178555872Y-68815449D01*
X178546714Y-68861494D01*
X178543300Y-68878658D01*
X178543300Y-69261342D01*
X178551945Y-69304807D01*
X178542614Y-69351723D01*
X178502841Y-69378299D01*
X178490647Y-69379500D01*
X177013266Y-69379500D01*
X176969072Y-69361194D01*
X176265072Y-68657194D01*
X176246766Y-68613000D01*
X176265072Y-68568806D01*
X176309266Y-68550500D01*
X179952405Y-68550500D01*
X179995906Y-68550500D01*
X180004064Y-68551035D01*
G37*
%TD.AperFunction*%
%TD*%
M02*
