%TF.GenerationSoftware,KiCad,Pcbnew,8.0.6*%
%TF.CreationDate,2024-11-02T14:47:31-07:00*%
%TF.ProjectId,cc-ring,63632d72-696e-4672-9e6b-696361645f70,rev?*%
%TF.SameCoordinates,Original*%
%TF.FileFunction,Copper,L1,Top*%
%TF.FilePolarity,Positive*%
%FSLAX46Y46*%
G04 Gerber Fmt 4.6, Leading zero omitted, Abs format (unit mm)*
G04 Created by KiCad (PCBNEW 8.0.6) date 2024-11-02 14:47:31*
%MOMM*%
%LPD*%
G01*
G04 APERTURE LIST*
G04 Aperture macros list*
%AMRoundRect*
0 Rectangle with rounded corners*
0 $1 Rounding radius*
0 $2 $3 $4 $5 $6 $7 $8 $9 X,Y pos of 4 corners*
0 Add a 4 corners polygon primitive as box body*
4,1,4,$2,$3,$4,$5,$6,$7,$8,$9,$2,$3,0*
0 Add four circle primitives for the rounded corners*
1,1,$1+$1,$2,$3*
1,1,$1+$1,$4,$5*
1,1,$1+$1,$6,$7*
1,1,$1+$1,$8,$9*
0 Add four rect primitives between the rounded corners*
20,1,$1+$1,$2,$3,$4,$5,0*
20,1,$1+$1,$4,$5,$6,$7,0*
20,1,$1+$1,$6,$7,$8,$9,0*
20,1,$1+$1,$8,$9,$2,$3,0*%
%AMFreePoly0*
4,1,53,0.180798,1.454629,0.352531,1.394537,0.506585,1.297738,0.635238,1.169085,0.732037,1.015031,0.792129,0.843298,0.812500,0.662500,0.792129,0.481702,0.732037,0.309969,0.635238,0.155915,0.506585,0.027262,0.352531,-0.069537,0.180798,-0.129629,0.000000,-0.150000,-0.180798,-0.129629,-0.352531,-0.069537,-0.506585,0.027262,-0.635238,0.155915,-0.732037,0.309969,-0.792129,0.481702,
-0.812500,0.662500,-0.517770,0.662500,-0.496797,0.516627,-0.435576,0.382572,-0.339067,0.271196,-0.215089,0.191520,-0.073686,0.150000,0.073686,0.150000,0.215089,0.191520,0.339067,0.271196,0.435576,0.382572,0.496797,0.516627,0.517770,0.662500,0.496797,0.808373,0.435576,0.942428,0.339067,1.053804,0.215089,1.133480,0.073686,1.175000,-0.073686,1.175000,-0.215089,1.133480,
-0.339067,1.053804,-0.435576,0.942428,-0.496797,0.808373,-0.517770,0.662500,-0.812500,0.662500,-0.792129,0.843298,-0.732037,1.015031,-0.635238,1.169085,-0.506585,1.297738,-0.352531,1.394537,-0.180798,1.454629,0.000000,1.475000,0.180798,1.454629,0.180798,1.454629,$1*%
%AMFreePoly1*
4,1,88,-1.238810,1.732880,-0.983455,1.674597,-0.739639,1.578906,-0.512808,1.447945,-0.308029,1.284639,-0.129877,1.092637,0.017669,0.876227,0.131313,0.640243,0.208516,0.389958,0.247553,0.130961,0.250000,0.000000,0.249224,0.000000,0.247151,-0.110927,0.208114,-0.369924,0.130911,-0.620209,0.017267,-0.856193,-0.130279,-1.072603,-0.308431,-1.264605,-0.513210,-1.427911,-0.740041,-1.558872,
-0.983857,-1.654563,-1.239212,-1.712846,-1.500402,-1.732420,-1.761592,-1.712846,-2.016947,-1.654563,-2.260763,-1.558872,-2.487594,-1.427911,-2.692373,-1.264605,-2.870525,-1.072603,-3.018071,-0.856193,-3.131715,-0.620209,-3.208918,-0.369924,-3.247955,-0.110927,-3.250042,0.000790,-2.749982,0.000790,-2.748024,-0.089119,-2.710115,-0.304108,-2.635451,-0.509248,-2.526298,-0.698306,-2.385974,-0.865538,
-2.218742,-1.005862,-2.029684,-1.115015,-1.824544,-1.189679,-1.609555,-1.227588,-1.391249,-1.227588,-1.176260,-1.189679,-0.971120,-1.115015,-0.782062,-1.005862,-0.614830,-0.865538,-0.474506,-0.698306,-0.365353,-0.509248,-0.290689,-0.304108,-0.252780,-0.089119,-0.250419,0.019243,-0.252378,0.109153,-0.290287,0.324142,-0.364951,0.529282,-0.474104,0.718340,-0.614428,0.885572,-0.781660,1.025896,
-0.970718,1.135049,-1.175858,1.209713,-1.390847,1.247622,-1.609153,1.247622,-1.824142,1.209713,-2.029282,1.135049,-2.218340,1.025896,-2.385572,0.885572,-2.525896,0.718340,-2.635049,0.529282,-2.709713,0.324142,-2.747622,0.109153,-2.749982,0.000790,-3.250042,0.000790,-3.250402,0.020034,-3.249626,0.020034,-3.247553,0.130961,-3.208516,0.389958,-3.131313,0.640243,-3.017669,0.876227,
-2.870123,1.092637,-2.691971,1.284639,-2.487192,1.447945,-2.260361,1.578906,-2.016545,1.674597,-1.761190,1.732880,-1.500000,1.752454,-1.238810,1.732880,-1.238810,1.732880,$1*%
G04 Aperture macros list end*
%TA.AperFunction,BGAPad,CuDef*%
%ADD10C,0.225000*%
%TD*%
%TA.AperFunction,SMDPad,CuDef*%
%ADD11RoundRect,0.500000X1.000000X0.500000X-1.000000X0.500000X-1.000000X-0.500000X1.000000X-0.500000X0*%
%TD*%
%TA.AperFunction,SMDPad,CuDef*%
%ADD12C,0.299999*%
%TD*%
%TA.AperFunction,SMDPad,CuDef*%
%ADD13RoundRect,0.070000X-0.355000X0.070000X-0.355000X-0.070000X0.355000X-0.070000X0.355000X0.070000X0*%
%TD*%
%TA.AperFunction,SMDPad,CuDef*%
%ADD14RoundRect,0.070000X-0.305000X0.070000X-0.305000X-0.070000X0.305000X-0.070000X0.305000X0.070000X0*%
%TD*%
%TA.AperFunction,SMDPad,CuDef*%
%ADD15R,0.725000X0.522000*%
%TD*%
%TA.AperFunction,SMDPad,CuDef*%
%ADD16FreePoly0,0.000000*%
%TD*%
%TA.AperFunction,SMDPad,CuDef*%
%ADD17C,1.500000*%
%TD*%
%TA.AperFunction,SMDPad,CuDef*%
%ADD18FreePoly1,0.000000*%
%TD*%
%TA.AperFunction,ViaPad*%
%ADD19C,0.350000*%
%TD*%
%TA.AperFunction,Conductor*%
%ADD20C,0.381000*%
%TD*%
%TA.AperFunction,Conductor*%
%ADD21C,0.127000*%
%TD*%
%TA.AperFunction,Conductor*%
%ADD22C,0.254000*%
%TD*%
%TA.AperFunction,Conductor*%
%ADD23C,0.076200*%
%TD*%
G04 APERTURE END LIST*
D10*
%TO.P,U1,A1,VDD*%
%TO.N,VDD*%
X173300000Y-69800000D03*
%TO.P,U1,A2,PA14*%
%TO.N,SWCLK*%
X173700000Y-69800000D03*
%TO.P,U1,A3,PB3*%
%TO.N,SPI_CLK*%
X174100000Y-69800000D03*
%TO.P,U1,A4,PB4*%
%TO.N,SPI_MISO*%
X174500000Y-69800000D03*
%TO.P,U1,A5,PH3*%
%TO.N,unconnected-(U1-PH3-PadA5)*%
X174900000Y-69800000D03*
%TO.P,U1,A6,VSS*%
%TO.N,GND*%
X175300000Y-69800000D03*
%TO.P,U1,A7,VDD*%
%TO.N,VDD*%
X175700000Y-69800000D03*
%TO.P,U1,B1,VSS*%
%TO.N,GND*%
X173300000Y-70200000D03*
%TO.P,U1,B2,PA13*%
%TO.N,SWDIO*%
X173700000Y-70200000D03*
%TO.P,U1,B3,PA15*%
%TO.N,unconnected-(U1-PA15-PadB3)*%
X174100000Y-70200000D03*
%TO.P,U1,B4,PB5*%
%TO.N,unconnected-(U1-PB5-PadB4)*%
X174500000Y-70200000D03*
%TO.P,U1,B5,PB8*%
%TO.N,unconnected-(U1-PB8-PadB5)*%
X174900000Y-70200000D03*
%TO.P,U1,B6,VBAT*%
%TO.N,+BATT*%
X175300000Y-70200000D03*
%TO.P,U1,C3,PA12*%
%TO.N,unconnected-(U1-PA12-PadC3)*%
X174100000Y-70600000D03*
%TO.P,U1,C4,PB6*%
%TO.N,unconnected-(U1-PB6-PadC4)*%
X174500000Y-70600000D03*
%TO.P,U1,C5,PB9*%
%TO.N,unconnected-(U1-PB9-PadC5)*%
X174900000Y-70600000D03*
%TO.P,U1,C6,PC15*%
%TO.N,unconnected-(U1-PC15-PadC6)*%
X175300000Y-70600000D03*
%TO.P,U1,C7,PC14*%
%TO.N,unconnected-(U1-PC14-PadC7)*%
X175700000Y-70600000D03*
%TO.P,U1,D1,PA8*%
%TO.N,unconnected-(U1-PA8-PadD1)*%
X173300000Y-71000000D03*
%TO.P,U1,D2,PA9*%
%TO.N,unconnected-(U1-PA9-PadD2)*%
X173700000Y-71000000D03*
%TO.P,U1,D3,PB15*%
%TO.N,unconnected-(U1-PB15-PadD3)*%
X174100000Y-71000000D03*
%TO.P,U1,D4,PB7*%
%TO.N,unconnected-(U1-PB7-PadD4)*%
X174500000Y-71000000D03*
%TO.P,U1,D5,NRST*%
%TO.N,unconnected-(U1-NRST-PadD5)*%
X174900000Y-71000000D03*
%TO.P,U1,D6,PH1*%
%TO.N,unconnected-(U1-PH1-PadD6)*%
X175300000Y-71000000D03*
%TO.P,U1,D7,PH0*%
%TO.N,unconnected-(U1-PH0-PadD7)*%
X175700000Y-71000000D03*
%TO.P,U1,E1,PB14*%
%TO.N,unconnected-(U1-PB14-PadE1)*%
X173300000Y-71400000D03*
%TO.P,U1,E2,PB13*%
%TO.N,unconnected-(U1-PB13-PadE2)*%
X173700000Y-71400000D03*
%TO.P,U1,E3,PB10*%
%TO.N,unconnected-(U1-PB10-PadE3)*%
X174100000Y-71400000D03*
%TO.P,U1,E4,PA3*%
%TO.N,unconnected-(U1-PA3-PadE4)*%
X174500000Y-71400000D03*
%TO.P,U1,E5,PA2*%
%TO.N,unconnected-(U1-PA2-PadE5)*%
X174900000Y-71400000D03*
%TO.P,U1,E6,PC3*%
%TO.N,unconnected-(U1-PC3-PadE6)*%
X175300000Y-71400000D03*
%TO.P,U1,E7,VSSA*%
%TO.N,GND*%
X175700000Y-71400000D03*
%TO.P,U1,F1,PB12*%
%TO.N,unconnected-(U1-PB12-PadF1)*%
X173300000Y-71800000D03*
%TO.P,U1,F2,PB11*%
%TO.N,unconnected-(U1-PB11-PadF2)*%
X173700000Y-71800000D03*
%TO.P,U1,F3,PA7*%
%TO.N,unconnected-(U1-PA7-PadF3)*%
X174100000Y-71800000D03*
%TO.P,U1,F4,PA6*%
%TO.N,unconnected-(U1-PA6-PadF4)*%
X174500000Y-71800000D03*
%TO.P,U1,F5,PA5*%
%TO.N,unconnected-(U1-PA5-PadF5)*%
X174900000Y-71800000D03*
%TO.P,U1,F6,PA0*%
%TO.N,unconnected-(U1-PA0-PadF6)*%
X175300000Y-71800000D03*
%TO.P,U1,F7,VDDA*%
%TO.N,VDD*%
X175700000Y-71800000D03*
%TO.P,U1,G1,VDD*%
X173300000Y-72200000D03*
%TO.P,U1,G2,VSS*%
%TO.N,GND*%
X173700000Y-72200000D03*
%TO.P,U1,G3,PB2*%
%TO.N,unconnected-(U1-PB2-PadG3)*%
X174100000Y-72200000D03*
%TO.P,U1,G4,PB1*%
%TO.N,unconnected-(U1-PB1-PadG4)*%
X174500000Y-72200000D03*
%TO.P,U1,G5,PB0*%
%TO.N,LED_D*%
X174900000Y-72200000D03*
%TO.P,U1,G6,PA4*%
%TO.N,unconnected-(U1-PA4-PadG6)*%
X175300000Y-72200000D03*
%TO.P,U1,G7,PA1*%
%TO.N,LED_SNS*%
X175700000Y-72200000D03*
%TD*%
D11*
%TO.P,J1,1,Pin_1*%
%TO.N,+BATT*%
X167000000Y-72250000D03*
%TO.P,J1,2,Pin_2*%
%TO.N,-BATT2*%
X167000000Y-69750000D03*
%TD*%
D12*
%TO.P,U3,A1,S1*%
%TO.N,-BATT*%
X171150001Y-71924999D03*
%TO.P,U3,A2,S2*%
%TO.N,GND*%
X171150001Y-72575001D03*
%TO.P,U3,B1,G1*%
%TO.N,Net-(U2-Dout)*%
X170500000Y-71924999D03*
%TO.P,U3,B2,G2*%
%TO.N,Net-(U2-Cout)*%
X170500000Y-72575001D03*
%TO.P,U3,C1,S1*%
%TO.N,-BATT2*%
X169850001Y-71924999D03*
%TO.P,U3,C2,S2*%
%TO.N,GND*%
X169850001Y-72575001D03*
%TD*%
D13*
%TO.P,U2,1,NC*%
%TO.N,unconnected-(U2-NC-Pad1)*%
X169975000Y-69750000D03*
D14*
%TO.P,U2,2,Cout*%
%TO.N,Net-(U2-Cout)*%
X169925000Y-70250000D03*
%TO.P,U2,3,Dout*%
%TO.N,Net-(U2-Dout)*%
X169925000Y-70750000D03*
%TO.P,U2,4,VSS*%
%TO.N,-BATT*%
X171075000Y-70750000D03*
%TO.P,U2,5,BAT*%
%TO.N,Net-(U2-BAT)*%
X171075000Y-70250000D03*
%TO.P,U2,6,V-*%
%TO.N,GND*%
X171075000Y-69750000D03*
%TD*%
D15*
%TO.P,MK1,1,DATA*%
%TO.N,SPI_MISO*%
X178162500Y-70196000D03*
%TO.P,MK1,2,SEL*%
%TO.N,GND*%
X178162500Y-71018000D03*
D16*
%TO.P,MK1,3,GND*%
X179000000Y-72932500D03*
D15*
%TO.P,MK1,4,CLOCK*%
%TO.N,SPI_CLK*%
X179837500Y-71018000D03*
%TO.P,MK1,5,VDD*%
%TO.N,VDD*%
X179837500Y-70196000D03*
%TD*%
D17*
%TO.P,J4,1,Pin_1*%
%TO.N,Net-(J4-Pin_1)*%
X190250000Y-71000000D03*
D18*
%TO.P,J4,2,Pin_2*%
%TO.N,GND*%
X191750000Y-71000000D03*
%TD*%
D19*
%TO.N,GND*%
X181030000Y-71100000D03*
X180280000Y-71760000D03*
X195810000Y-72040000D03*
X235830000Y-72010000D03*
X227820000Y-72030000D03*
X219800000Y-72010000D03*
X203830000Y-72040000D03*
X211820000Y-72000000D03*
X194010000Y-72230000D03*
X187800000Y-72000000D03*
X238290000Y-69880000D03*
X238370000Y-71600000D03*
X191400000Y-71680000D03*
%TO.N,Net-(J4-Pin_1)*%
X190482024Y-70972491D03*
%TO.N,GND*%
X198260000Y-71570000D03*
X206240000Y-71540000D03*
X214300000Y-71540000D03*
X218610000Y-71570000D03*
X226570000Y-71580000D03*
%TO.N,Net-(U2-BAT)*%
X172180000Y-69650000D03*
%TO.N,-BATT2*%
X167000000Y-69750000D03*
%TO.N,-BATT*%
X171790000Y-70500000D03*
%TO.N,VDD*%
X176155231Y-69731725D03*
X172837596Y-69990000D03*
X171968071Y-71589701D03*
X180600000Y-71400000D03*
X172930000Y-72220000D03*
X179550000Y-69140000D03*
X176150000Y-71980000D03*
%TO.N,GND*%
X180000000Y-72630000D03*
X180100000Y-68900000D03*
X181700000Y-71100000D03*
X173500000Y-73200000D03*
X194550000Y-71600000D03*
X172000000Y-73200000D03*
X174990000Y-73250000D03*
X172390000Y-72450000D03*
X175011579Y-69311072D03*
X202490000Y-71500000D03*
X216250000Y-71750000D03*
X208250000Y-71750000D03*
X200250000Y-71750000D03*
X186520000Y-71560000D03*
X230240000Y-71610000D03*
X176900000Y-68800000D03*
X232250000Y-71750000D03*
X169200000Y-72300000D03*
X176200000Y-71040000D03*
X177500000Y-72940000D03*
X210540000Y-71540000D03*
X172820000Y-70490000D03*
X183000000Y-71100000D03*
X168900000Y-69700000D03*
X184250000Y-71100000D03*
X224250000Y-71750000D03*
X222220000Y-71640000D03*
X234540000Y-71580000D03*
X171830000Y-71010000D03*
X174310000Y-72740000D03*
X177500000Y-71000000D03*
X172700000Y-69300000D03*
%TO.N,LED_D*%
X180169300Y-73213709D03*
%TO.N,+BATT*%
X167000000Y-72250000D03*
X177380000Y-69790000D03*
X169560000Y-68980000D03*
X172364500Y-68750000D03*
%TO.N,LED_SNS*%
X176940000Y-72740000D03*
%TO.N,SWDIO*%
X172245000Y-71235000D03*
%TO.N,SWCLK*%
X173750000Y-69300000D03*
%TO.N,Net-(U2-Cout)*%
X169005361Y-73048252D03*
X169170000Y-71050000D03*
%TD*%
D20*
%TO.N,+BATT*%
X169560000Y-68980000D02*
X172134500Y-68980000D01*
X172134500Y-68980000D02*
X172364500Y-68750000D01*
D21*
%TO.N,-BATT*%
X171790000Y-70500000D02*
X171540000Y-70750000D01*
X171540000Y-70750000D02*
X171075000Y-70750000D01*
%TO.N,VDD*%
X172930000Y-72220000D02*
X172950000Y-72200000D01*
X172950000Y-72200000D02*
X173300000Y-72200000D01*
D22*
X172930000Y-72220000D02*
X172508000Y-71798000D01*
X172508000Y-71798000D02*
X172239486Y-71798000D01*
X172239486Y-71798000D02*
X172031187Y-71589701D01*
X172031187Y-71589701D02*
X171968071Y-71589701D01*
D21*
%TO.N,Net-(U2-Cout)*%
X169170000Y-71050000D02*
X169170000Y-70576763D01*
X169170000Y-70576763D02*
X169496763Y-70250000D01*
X169496763Y-70250000D02*
X169925000Y-70250000D01*
%TO.N,VDD*%
X173027596Y-69800000D02*
X173300000Y-69800000D01*
X172837596Y-69990000D02*
X173027596Y-69800000D01*
X180600000Y-71400000D02*
X180470000Y-71270000D01*
X180470000Y-71270000D02*
X180470000Y-70550000D01*
X180470000Y-70550000D02*
X180413500Y-70493500D01*
X180413500Y-70493500D02*
X180135000Y-70493500D01*
X180135000Y-70493500D02*
X179837500Y-70196000D01*
%TO.N,LED_SNS*%
X176940000Y-72740000D02*
X176240000Y-72740000D01*
X176240000Y-72740000D02*
X175700000Y-72200000D01*
%TO.N,Net-(U2-Cout)*%
X169005361Y-73048252D02*
X169065113Y-72988500D01*
X169065113Y-72988500D02*
X170086501Y-72988500D01*
X170086501Y-72988500D02*
X170500000Y-72575001D01*
D23*
%TO.N,SPI_CLK*%
X179837500Y-71018000D02*
X179118000Y-71018000D01*
X179118000Y-71018000D02*
X178793840Y-70693840D01*
X178793840Y-70693840D02*
X178793840Y-69826102D01*
X174818762Y-68845572D02*
X174100000Y-69564334D01*
X178793840Y-69826102D02*
X178117738Y-69150000D01*
X178117738Y-69150000D02*
X175515526Y-69150000D01*
X175515526Y-69150000D02*
X175211098Y-68845572D01*
X175211098Y-68845572D02*
X174818762Y-68845572D01*
X174100000Y-69564334D02*
X174100000Y-69800000D01*
%TO.N,SPI_MISO*%
X178162500Y-70196000D02*
X178090000Y-70123500D01*
X175543225Y-69393225D02*
X175147972Y-68997972D01*
X174881888Y-68997972D02*
X174500000Y-69379860D01*
X178090000Y-70123500D02*
X178090000Y-69950000D01*
X178090000Y-69950000D02*
X177533225Y-69393225D01*
X177533225Y-69393225D02*
X175543225Y-69393225D01*
X175147972Y-68997972D02*
X174881888Y-68997972D01*
X174500000Y-69379860D02*
X174500000Y-69800000D01*
D21*
%TO.N,LED_D*%
X180169300Y-73213709D02*
X180013009Y-73370000D01*
X180013009Y-73370000D02*
X175870133Y-73370000D01*
X174900000Y-72399867D02*
X174900000Y-72200000D01*
X175870133Y-73370000D02*
X174900000Y-72399867D01*
%TO.N,Net-(U2-BAT)*%
X171890000Y-69810000D02*
X171450000Y-70250000D01*
X172020000Y-69810000D02*
X171890000Y-69810000D01*
X171450000Y-70250000D02*
X171075000Y-70250000D01*
X172180000Y-69650000D02*
X172020000Y-69810000D01*
D22*
%TO.N,-BATT*%
X171075000Y-71849998D02*
X171150001Y-71924999D01*
%TO.N,-BATT2*%
X167000000Y-69750000D02*
X167176826Y-69750000D01*
D20*
X167000000Y-69750000D02*
X167323289Y-70073289D01*
D22*
X169351825Y-71924999D02*
X169850001Y-71924999D01*
X167176826Y-69750000D02*
X169351825Y-71924999D01*
%TO.N,-BATT*%
X171075000Y-70750000D02*
X171075000Y-71849998D01*
D20*
%TO.N,VDD*%
X179837500Y-70196000D02*
X179837500Y-69427500D01*
X179837500Y-69427500D02*
X179550000Y-69140000D01*
D21*
X176086956Y-69800000D02*
X176155231Y-69731725D01*
X175700000Y-71800000D02*
X175970000Y-71800000D01*
X175970000Y-71800000D02*
X176150000Y-71980000D01*
X175700000Y-69800000D02*
X176086956Y-69800000D01*
%TO.N,GND*%
X179317500Y-72932500D02*
X180000000Y-72250000D01*
X179000000Y-72932500D02*
X178317500Y-72932500D01*
X175300000Y-69590000D02*
X175300000Y-69800000D01*
X179000000Y-71316155D02*
X179000000Y-71563845D01*
X173700000Y-72470000D02*
X173700000Y-72200000D01*
X173970000Y-72740000D02*
X173700000Y-72470000D01*
X176200000Y-71040000D02*
X175840000Y-71400000D01*
X175011579Y-69311072D02*
X175021072Y-69311072D01*
X178317500Y-72932500D02*
X178250000Y-73000000D01*
X175840000Y-71400000D02*
X175700000Y-71400000D01*
X175021072Y-69311072D02*
X175300000Y-69590000D01*
X174310000Y-72740000D02*
X173970000Y-72740000D01*
X173230000Y-70200000D02*
X173300000Y-70200000D01*
X179000000Y-72932500D02*
X179317500Y-72932500D01*
D23*
%TO.N,+BATT*%
X176970000Y-70200000D02*
X175300000Y-70200000D01*
X177380000Y-69790000D02*
X176970000Y-70200000D01*
%TO.N,SWCLK*%
X173750000Y-69300000D02*
X173750000Y-69750000D01*
X173750000Y-69750000D02*
X173700000Y-69800000D01*
D21*
%TO.N,Net-(U2-Dout)*%
X170500000Y-71924999D02*
X170500000Y-71325000D01*
X170500000Y-71325000D02*
X169925000Y-70750000D01*
D23*
%TO.N,SWDIO*%
X172245000Y-71235000D02*
X172555000Y-71235000D01*
X172555000Y-71235000D02*
X173217772Y-70572228D01*
X173217772Y-70572228D02*
X173562324Y-70572228D01*
X173562324Y-70572228D02*
X173700000Y-70434552D01*
X173700000Y-70434552D02*
X173700000Y-70200000D01*
%TD*%
%TA.AperFunction,Conductor*%
%TO.N,GND*%
G36*
X172079427Y-68568806D02*
G01*
X172097733Y-68613000D01*
X172079428Y-68657193D01*
X172042126Y-68694494D01*
X171997935Y-68712800D01*
X169635015Y-68712800D01*
X169622822Y-68711599D01*
X169560001Y-68699103D01*
X169559999Y-68699103D01*
X169452505Y-68720484D01*
X169452503Y-68720485D01*
X169361375Y-68781375D01*
X169300485Y-68872503D01*
X169300484Y-68872505D01*
X169279103Y-68979999D01*
X169279103Y-68980000D01*
X169300484Y-69087494D01*
X169300485Y-69087496D01*
X169361375Y-69178624D01*
X169452503Y-69239514D01*
X169452505Y-69239515D01*
X169559999Y-69260897D01*
X169560000Y-69260897D01*
X169560001Y-69260897D01*
X169622822Y-69248401D01*
X169635015Y-69247200D01*
X172158274Y-69247200D01*
X172172421Y-69253060D01*
X172185573Y-69247613D01*
X172187645Y-69247200D01*
X172187649Y-69247200D01*
X172285857Y-69206521D01*
X172500399Y-68991977D01*
X172509866Y-68984209D01*
X172515772Y-68980263D01*
X172563124Y-68948624D01*
X172624015Y-68857495D01*
X172645397Y-68750000D01*
X172624015Y-68642505D01*
X172624014Y-68642503D01*
X172621701Y-68636918D01*
X172621700Y-68589083D01*
X172655525Y-68555258D01*
X172679443Y-68550500D01*
X179952405Y-68550500D01*
X179995906Y-68550500D01*
X180004064Y-68551035D01*
X180108181Y-68564742D01*
X180123941Y-68568965D01*
X180217147Y-68607573D01*
X180231275Y-68615728D01*
X180311319Y-68677149D01*
X180322850Y-68688680D01*
X180368560Y-68748250D01*
X180384269Y-68768722D01*
X180392426Y-68782852D01*
X180431034Y-68876058D01*
X180435257Y-68891818D01*
X180448965Y-68995936D01*
X180449500Y-69004094D01*
X180449500Y-69578842D01*
X180480262Y-69733495D01*
X180540606Y-69879180D01*
X180628210Y-70010288D01*
X180739711Y-70121789D01*
X180870819Y-70209393D01*
X180870820Y-70209393D01*
X180870821Y-70209394D01*
X181016503Y-70269737D01*
X181171158Y-70300500D01*
X184312025Y-70300500D01*
X184312026Y-70300500D01*
X184432969Y-70272895D01*
X184544737Y-70219071D01*
X184641725Y-70141725D01*
X184719071Y-70044737D01*
X184772895Y-69932969D01*
X184800500Y-69812026D01*
X184800500Y-69754921D01*
X184801269Y-69745145D01*
X184805648Y-69717494D01*
X184808715Y-69698126D01*
X184814758Y-69679531D01*
X184820805Y-69667663D01*
X184834108Y-69641553D01*
X184845598Y-69625739D01*
X184875739Y-69595598D01*
X184891553Y-69584108D01*
X184929531Y-69564757D01*
X184948127Y-69558715D01*
X184984101Y-69553018D01*
X184995145Y-69551269D01*
X185004921Y-69550500D01*
X189137800Y-69550500D01*
X189141995Y-69550641D01*
X189143173Y-69550720D01*
X189177322Y-69553018D01*
X189181312Y-69552011D01*
X189188460Y-69550645D01*
X189189554Y-69550500D01*
X189189562Y-69550501D01*
X189225298Y-69540924D01*
X189225934Y-69540759D01*
X189269623Y-69529744D01*
X189304159Y-69508034D01*
X189306128Y-69506846D01*
X189314780Y-69501851D01*
X189316509Y-69500890D01*
X189524414Y-69389725D01*
X189532404Y-69386149D01*
X189756719Y-69304082D01*
X189765113Y-69301664D01*
X189998695Y-69251771D01*
X190007366Y-69250546D01*
X190245630Y-69233806D01*
X190254370Y-69233806D01*
X190492631Y-69250546D01*
X190501304Y-69251771D01*
X190562302Y-69264800D01*
X190734882Y-69301663D01*
X190743283Y-69304084D01*
X190967602Y-69386151D01*
X190975578Y-69389721D01*
X191149735Y-69482842D01*
X191183470Y-69500880D01*
X191185249Y-69501869D01*
X191193837Y-69506827D01*
X191195840Y-69508034D01*
X191230377Y-69529744D01*
X191274056Y-69540757D01*
X191274754Y-69540939D01*
X191310438Y-69550501D01*
X191310443Y-69550500D01*
X191311552Y-69550647D01*
X191318688Y-69552012D01*
X191320451Y-69552456D01*
X191322678Y-69553018D01*
X191358004Y-69550640D01*
X191362199Y-69550500D01*
X239495078Y-69550500D01*
X239504854Y-69551269D01*
X239515898Y-69553018D01*
X239551871Y-69558715D01*
X239570468Y-69564758D01*
X239608443Y-69584107D01*
X239624263Y-69595601D01*
X239654398Y-69625736D01*
X239665892Y-69641556D01*
X239685241Y-69679531D01*
X239691283Y-69698127D01*
X239698730Y-69745143D01*
X239699500Y-69754921D01*
X239699500Y-72245078D01*
X239698730Y-72254856D01*
X239691283Y-72301872D01*
X239685241Y-72320468D01*
X239665892Y-72358443D01*
X239654398Y-72374263D01*
X239624263Y-72404398D01*
X239608443Y-72415892D01*
X239570468Y-72435241D01*
X239551871Y-72441284D01*
X239517321Y-72446755D01*
X239504854Y-72448730D01*
X239495080Y-72449499D01*
X191362197Y-72449499D01*
X191358003Y-72449358D01*
X191322678Y-72446982D01*
X191322671Y-72446982D01*
X191318680Y-72447989D01*
X191311568Y-72449349D01*
X191310442Y-72449497D01*
X191274844Y-72459034D01*
X191273955Y-72459265D01*
X191230378Y-72470255D01*
X191230376Y-72470256D01*
X191195853Y-72491956D01*
X191193842Y-72493168D01*
X191185230Y-72498140D01*
X191183454Y-72499127D01*
X190975584Y-72610275D01*
X190967592Y-72613853D01*
X190743294Y-72695913D01*
X190734875Y-72698339D01*
X190501304Y-72748229D01*
X190492630Y-72749454D01*
X190254380Y-72766194D01*
X190245618Y-72766194D01*
X190007368Y-72749454D01*
X189998694Y-72748229D01*
X189765123Y-72698339D01*
X189756704Y-72695913D01*
X189532403Y-72613851D01*
X189524413Y-72610275D01*
X189405351Y-72546613D01*
X189316559Y-72499136D01*
X189314782Y-72498148D01*
X189306157Y-72493169D01*
X189304144Y-72491956D01*
X189290686Y-72483497D01*
X189269621Y-72470256D01*
X189226039Y-72459265D01*
X189225152Y-72459035D01*
X189189552Y-72449496D01*
X189188432Y-72449349D01*
X189181320Y-72447989D01*
X189177328Y-72446982D01*
X189177321Y-72446982D01*
X189141995Y-72449358D01*
X189137801Y-72449499D01*
X185004919Y-72449499D01*
X184995144Y-72448730D01*
X184978807Y-72446142D01*
X184948128Y-72441284D01*
X184929531Y-72435241D01*
X184891556Y-72415892D01*
X184875736Y-72404398D01*
X184845601Y-72374263D01*
X184834107Y-72358443D01*
X184814758Y-72320468D01*
X184808715Y-72301870D01*
X184801269Y-72254854D01*
X184800500Y-72245078D01*
X184800500Y-72187974D01*
X184789521Y-72139872D01*
X184772895Y-72067031D01*
X184719071Y-71955263D01*
X184719070Y-71955262D01*
X184719070Y-71955261D01*
X184719067Y-71955258D01*
X184641726Y-71858276D01*
X184641723Y-71858273D01*
X184544741Y-71780932D01*
X184544738Y-71780929D01*
X184432967Y-71727104D01*
X184312026Y-71699500D01*
X184289562Y-71699500D01*
X181297595Y-71699500D01*
X181250000Y-71699500D01*
X181171158Y-71699500D01*
X181016504Y-71730262D01*
X180870819Y-71790606D01*
X180739711Y-71878210D01*
X180628210Y-71989711D01*
X180540606Y-72120819D01*
X180480262Y-72266504D01*
X180449500Y-72421157D01*
X180449500Y-72952662D01*
X180431194Y-72996856D01*
X180387000Y-73015162D01*
X180352277Y-73004629D01*
X180276796Y-72954194D01*
X180276794Y-72954193D01*
X180169301Y-72932812D01*
X180169299Y-72932812D01*
X180061805Y-72954193D01*
X180061803Y-72954194D01*
X179970675Y-73015084D01*
X179909785Y-73106212D01*
X179909784Y-73106214D01*
X179895209Y-73179493D01*
X179868633Y-73219267D01*
X179833910Y-73229800D01*
X179330791Y-73229800D01*
X179286597Y-73211494D01*
X179268291Y-73167300D01*
X179286597Y-73123106D01*
X179310149Y-73108307D01*
X179381581Y-73083311D01*
X179397958Y-73075425D01*
X179552986Y-72978014D01*
X179552994Y-72978009D01*
X179567203Y-72966677D01*
X179567215Y-72966666D01*
X179696666Y-72837215D01*
X179696677Y-72837203D01*
X179708009Y-72822994D01*
X179708014Y-72822986D01*
X179805425Y-72667958D01*
X179813312Y-72651581D01*
X179873784Y-72478760D01*
X179873786Y-72478751D01*
X179877828Y-72461043D01*
X179877831Y-72461023D01*
X179898330Y-72279088D01*
X179898330Y-72260911D01*
X179877831Y-72078976D01*
X179877828Y-72078956D01*
X179873786Y-72061248D01*
X179873784Y-72061239D01*
X179813312Y-71888418D01*
X179805425Y-71872041D01*
X179708014Y-71717013D01*
X179708009Y-71717005D01*
X179696677Y-71702796D01*
X179696666Y-71702784D01*
X179580076Y-71586194D01*
X179561770Y-71542000D01*
X179580076Y-71497806D01*
X179624270Y-71479500D01*
X180219747Y-71479500D01*
X180219748Y-71479500D01*
X180270275Y-71469449D01*
X180317189Y-71478781D01*
X180336735Y-71502597D01*
X180337065Y-71502377D01*
X180339301Y-71505723D01*
X180340210Y-71506831D01*
X180340485Y-71507496D01*
X180401375Y-71598624D01*
X180492503Y-71659514D01*
X180492505Y-71659515D01*
X180599999Y-71680897D01*
X180600000Y-71680897D01*
X180600001Y-71680897D01*
X180662611Y-71668443D01*
X180707495Y-71659515D01*
X180798624Y-71598624D01*
X180859515Y-71507495D01*
X180880897Y-71400000D01*
X180880896Y-71399997D01*
X180859515Y-71292505D01*
X180859514Y-71292503D01*
X180798624Y-71201375D01*
X180707495Y-71140485D01*
X180660505Y-71131137D01*
X180620732Y-71104560D01*
X180610200Y-71069838D01*
X180610200Y-70999999D01*
X189294901Y-70999999D01*
X189294901Y-71000000D01*
X189313252Y-71186329D01*
X189337640Y-71266723D01*
X189367381Y-71364766D01*
X189367606Y-71365506D01*
X189455860Y-71530619D01*
X189455864Y-71530625D01*
X189574643Y-71675357D01*
X189719375Y-71794136D01*
X189719377Y-71794137D01*
X189719380Y-71794139D01*
X189876667Y-71878210D01*
X189884499Y-71882396D01*
X190063669Y-71936747D01*
X190250000Y-71955099D01*
X190436331Y-71936747D01*
X190615501Y-71882396D01*
X190780625Y-71794136D01*
X190925357Y-71675357D01*
X191044136Y-71530625D01*
X191132396Y-71365501D01*
X191186747Y-71186331D01*
X191205099Y-71000000D01*
X191202684Y-70975485D01*
X191193762Y-70884894D01*
X191186747Y-70813669D01*
X191132396Y-70634499D01*
X191120610Y-70612448D01*
X191044139Y-70469380D01*
X191044135Y-70469374D01*
X191034724Y-70457907D01*
X190925357Y-70324643D01*
X190780625Y-70205864D01*
X190780619Y-70205860D01*
X190615506Y-70117606D01*
X190615503Y-70117605D01*
X190615501Y-70117604D01*
X190494614Y-70080933D01*
X190436329Y-70063252D01*
X190250000Y-70044901D01*
X190063670Y-70063252D01*
X189921267Y-70106450D01*
X189884499Y-70117604D01*
X189884498Y-70117604D01*
X189884493Y-70117606D01*
X189719380Y-70205860D01*
X189719374Y-70205864D01*
X189574643Y-70324643D01*
X189455864Y-70469374D01*
X189455860Y-70469380D01*
X189367606Y-70634493D01*
X189313252Y-70813670D01*
X189294901Y-70999999D01*
X180610200Y-70999999D01*
X180610200Y-70522112D01*
X180601041Y-70500000D01*
X180588856Y-70470583D01*
X180549417Y-70431144D01*
X180492917Y-70374644D01*
X180492916Y-70374643D01*
X180492913Y-70374641D01*
X180439082Y-70352344D01*
X180405257Y-70318520D01*
X180400500Y-70294602D01*
X180400500Y-69915252D01*
X180388867Y-69856769D01*
X180377141Y-69839220D01*
X180344552Y-69790447D01*
X180278232Y-69746133D01*
X180278230Y-69746132D01*
X180219748Y-69734500D01*
X180167200Y-69734500D01*
X180123006Y-69716194D01*
X180104700Y-69672000D01*
X180104700Y-69374352D01*
X180104641Y-69374209D01*
X180064021Y-69276143D01*
X179988857Y-69200979D01*
X179791982Y-69004104D01*
X179784209Y-68994633D01*
X179774607Y-68980263D01*
X179748624Y-68941376D01*
X179748623Y-68941375D01*
X179748621Y-68941373D01*
X179657496Y-68880485D01*
X179657494Y-68880484D01*
X179550001Y-68859103D01*
X179549999Y-68859103D01*
X179442505Y-68880484D01*
X179442503Y-68880485D01*
X179351375Y-68941375D01*
X179290485Y-69032503D01*
X179290484Y-69032505D01*
X179269103Y-69139999D01*
X179269103Y-69140000D01*
X179290484Y-69247494D01*
X179290485Y-69247496D01*
X179351373Y-69338621D01*
X179351376Y-69338624D01*
X179400569Y-69371494D01*
X179404633Y-69374209D01*
X179414104Y-69381982D01*
X179551994Y-69519872D01*
X179570300Y-69564066D01*
X179570300Y-69672000D01*
X179551994Y-69716194D01*
X179507800Y-69734500D01*
X179455252Y-69734500D01*
X179396769Y-69746132D01*
X179396767Y-69746133D01*
X179330447Y-69790447D01*
X179286133Y-69856767D01*
X179286132Y-69856769D01*
X179274500Y-69915251D01*
X179274500Y-70476748D01*
X179286132Y-70535230D01*
X179286133Y-70535232D01*
X179310886Y-70572277D01*
X179320218Y-70619193D01*
X179310886Y-70641723D01*
X179286133Y-70678767D01*
X179286132Y-70678769D01*
X179274500Y-70737251D01*
X179274500Y-70840700D01*
X179256194Y-70884894D01*
X179212000Y-70903200D01*
X179191439Y-70903200D01*
X179147245Y-70884894D01*
X178926946Y-70664594D01*
X178908640Y-70620400D01*
X178908640Y-69803269D01*
X178908640Y-69803267D01*
X178891163Y-69761073D01*
X178858869Y-69728779D01*
X178182767Y-69052677D01*
X178140573Y-69035200D01*
X178140572Y-69035200D01*
X175588965Y-69035200D01*
X175544771Y-69016894D01*
X175411538Y-68883661D01*
X175276127Y-68748249D01*
X175233933Y-68730772D01*
X174841597Y-68730772D01*
X174795927Y-68730772D01*
X174753734Y-68748248D01*
X174753731Y-68748250D01*
X174134104Y-69367877D01*
X174089910Y-69386183D01*
X174045716Y-69367877D01*
X174027410Y-69323683D01*
X174028610Y-69311496D01*
X174030897Y-69300000D01*
X174009515Y-69192505D01*
X173974432Y-69140000D01*
X173948624Y-69101375D01*
X173857496Y-69040485D01*
X173857494Y-69040484D01*
X173750001Y-69019103D01*
X173749999Y-69019103D01*
X173642505Y-69040484D01*
X173642503Y-69040485D01*
X173551375Y-69101375D01*
X173490485Y-69192503D01*
X173490484Y-69192505D01*
X173469103Y-69299999D01*
X173469103Y-69300000D01*
X173490484Y-69407494D01*
X173490485Y-69407495D01*
X173498077Y-69418858D01*
X173507408Y-69465775D01*
X173480831Y-69505548D01*
X173433914Y-69514879D01*
X173424733Y-69512311D01*
X173355192Y-69487000D01*
X173355190Y-69487000D01*
X173244810Y-69487000D01*
X173244807Y-69487000D01*
X173141087Y-69524751D01*
X173141084Y-69524753D01*
X173056529Y-69595702D01*
X173036252Y-69630823D01*
X173004468Y-69655210D01*
X173005394Y-69657445D01*
X172948180Y-69681143D01*
X172948177Y-69681145D01*
X172930133Y-69699189D01*
X172885939Y-69717494D01*
X172873748Y-69716293D01*
X172837598Y-69709103D01*
X172837595Y-69709103D01*
X172730101Y-69730484D01*
X172730099Y-69730485D01*
X172638971Y-69791375D01*
X172578081Y-69882503D01*
X172578080Y-69882505D01*
X172556699Y-69989999D01*
X172556699Y-69990000D01*
X172578080Y-70097494D01*
X172578081Y-70097496D01*
X172638971Y-70188624D01*
X172730099Y-70249514D01*
X172730101Y-70249515D01*
X172837595Y-70270897D01*
X172837596Y-70270897D01*
X172837597Y-70270897D01*
X172891343Y-70260206D01*
X172945091Y-70249515D01*
X173036220Y-70188624D01*
X173090420Y-70107508D01*
X173130193Y-70080933D01*
X173163759Y-70083500D01*
X173244810Y-70113000D01*
X173244813Y-70113000D01*
X173323027Y-70113000D01*
X173367221Y-70131306D01*
X173385527Y-70175500D01*
X173384577Y-70186353D01*
X173382171Y-70199997D01*
X173382171Y-70199998D01*
X173382171Y-70200000D01*
X173390902Y-70249515D01*
X173401338Y-70308706D01*
X173401339Y-70308707D01*
X173433077Y-70363677D01*
X173439322Y-70411103D01*
X173410202Y-70449054D01*
X173378951Y-70457428D01*
X173194937Y-70457428D01*
X173152744Y-70474904D01*
X173152741Y-70474906D01*
X172556614Y-71071033D01*
X172512420Y-71089339D01*
X172468226Y-71071033D01*
X172460453Y-71061562D01*
X172443624Y-71036375D01*
X172352496Y-70975485D01*
X172352494Y-70975484D01*
X172245001Y-70954103D01*
X172244999Y-70954103D01*
X172137505Y-70975484D01*
X172137503Y-70975485D01*
X172046375Y-71036375D01*
X171985485Y-71127503D01*
X171985484Y-71127505D01*
X171964103Y-71234998D01*
X171966183Y-71245457D01*
X171956849Y-71292373D01*
X171917077Y-71318947D01*
X171860575Y-71330186D01*
X171860574Y-71330186D01*
X171769446Y-71391076D01*
X171708556Y-71482204D01*
X171708555Y-71482206D01*
X171687174Y-71589700D01*
X171687174Y-71589701D01*
X171708555Y-71697195D01*
X171708556Y-71697197D01*
X171769446Y-71788325D01*
X171860574Y-71849215D01*
X171860576Y-71849216D01*
X171968070Y-71870598D01*
X171968071Y-71870598D01*
X171968072Y-71870598D01*
X171973170Y-71869583D01*
X171981959Y-71867835D01*
X172028875Y-71877164D01*
X172038349Y-71884939D01*
X172124099Y-71970689D01*
X172198967Y-72001700D01*
X172280004Y-72001700D01*
X172397737Y-72001700D01*
X172441931Y-72020006D01*
X172637478Y-72215553D01*
X172654583Y-72247553D01*
X172670485Y-72327495D01*
X172670485Y-72327496D01*
X172731375Y-72418624D01*
X172822503Y-72479514D01*
X172822505Y-72479515D01*
X172929999Y-72500897D01*
X172930000Y-72500897D01*
X172930001Y-72500897D01*
X172983747Y-72490206D01*
X173037495Y-72479515D01*
X173037495Y-72479514D01*
X173037497Y-72479514D01*
X173059010Y-72465139D01*
X173105926Y-72455806D01*
X173133907Y-72469226D01*
X173141083Y-72475247D01*
X173141084Y-72475247D01*
X173141085Y-72475248D01*
X173186991Y-72491956D01*
X173244804Y-72512998D01*
X173244810Y-72513000D01*
X173244813Y-72513000D01*
X173355187Y-72513000D01*
X173355190Y-72513000D01*
X173458915Y-72475248D01*
X173543471Y-72404297D01*
X173598662Y-72308704D01*
X173617829Y-72200000D01*
X173617828Y-72199998D01*
X173617829Y-72199997D01*
X173615423Y-72186353D01*
X173625776Y-72139652D01*
X173666120Y-72113950D01*
X173676973Y-72113000D01*
X173723027Y-72113000D01*
X173767221Y-72131306D01*
X173785527Y-72175500D01*
X173784577Y-72186353D01*
X173782171Y-72199997D01*
X173782171Y-72199998D01*
X173782171Y-72200000D01*
X173790119Y-72245078D01*
X173801338Y-72308706D01*
X173801340Y-72308709D01*
X173856527Y-72404295D01*
X173856529Y-72404297D01*
X173941083Y-72475247D01*
X173941084Y-72475247D01*
X173941085Y-72475248D01*
X174005408Y-72498659D01*
X174044804Y-72512998D01*
X174044810Y-72513000D01*
X174044813Y-72513000D01*
X174155187Y-72513000D01*
X174155190Y-72513000D01*
X174258915Y-72475248D01*
X174259825Y-72474484D01*
X174260733Y-72474197D01*
X174263650Y-72472514D01*
X174264023Y-72473160D01*
X174305444Y-72460099D01*
X174336170Y-72472825D01*
X174336350Y-72472514D01*
X174338714Y-72473879D01*
X174340174Y-72474483D01*
X174341085Y-72475248D01*
X174433181Y-72508767D01*
X174444804Y-72512998D01*
X174444810Y-72513000D01*
X174444813Y-72513000D01*
X174555187Y-72513000D01*
X174555190Y-72513000D01*
X174658915Y-72475248D01*
X174659825Y-72474484D01*
X174660733Y-72474197D01*
X174663650Y-72472514D01*
X174664023Y-72473160D01*
X174705444Y-72460099D01*
X174736170Y-72472825D01*
X174736350Y-72472514D01*
X174738714Y-72473879D01*
X174740174Y-72474483D01*
X174741085Y-72475248D01*
X174741086Y-72475248D01*
X174741087Y-72475249D01*
X174784700Y-72491122D01*
X174807519Y-72505659D01*
X175644666Y-73342806D01*
X175662972Y-73387000D01*
X175644666Y-73431194D01*
X175600472Y-73449500D01*
X169034889Y-73449500D01*
X169009923Y-73439158D01*
X168975833Y-73449500D01*
X168421132Y-73449500D01*
X168376938Y-73431194D01*
X168358632Y-73387000D01*
X168376938Y-73342806D01*
X168388798Y-73333514D01*
X168435185Y-73305472D01*
X168555472Y-73185185D01*
X168619768Y-73078825D01*
X168658296Y-73050477D01*
X168705587Y-73057675D01*
X168733937Y-73096204D01*
X168734552Y-73098968D01*
X168745845Y-73155746D01*
X168745846Y-73155748D01*
X168806736Y-73246876D01*
X168897864Y-73307766D01*
X168897866Y-73307767D01*
X168988026Y-73325701D01*
X169003434Y-73335996D01*
X169022696Y-73325701D01*
X169062195Y-73317844D01*
X169112856Y-73307767D01*
X169203985Y-73246876D01*
X169264388Y-73156476D01*
X169304162Y-73129901D01*
X169316355Y-73128700D01*
X170114389Y-73128700D01*
X170165918Y-73107356D01*
X170342298Y-72930974D01*
X170386489Y-72912670D01*
X170396257Y-72913438D01*
X170500000Y-72929869D01*
X170609660Y-72912501D01*
X170708586Y-72862095D01*
X170787094Y-72783587D01*
X170837500Y-72684661D01*
X170854868Y-72575001D01*
X170837500Y-72465341D01*
X170787094Y-72366415D01*
X170714873Y-72294194D01*
X170696567Y-72250000D01*
X170714871Y-72205807D01*
X170780808Y-72139870D01*
X170825000Y-72121566D01*
X170869192Y-72139870D01*
X170941415Y-72212093D01*
X171040341Y-72262499D01*
X171150001Y-72279867D01*
X171259661Y-72262499D01*
X171358587Y-72212093D01*
X171437095Y-72133585D01*
X171487501Y-72034659D01*
X171504869Y-71924999D01*
X171487501Y-71815339D01*
X171437095Y-71716413D01*
X171358587Y-71637905D01*
X171312823Y-71614586D01*
X171281759Y-71578213D01*
X171278700Y-71558900D01*
X171278700Y-71153000D01*
X171297006Y-71108806D01*
X171341200Y-71090500D01*
X171406640Y-71090500D01*
X171485544Y-71074805D01*
X171575019Y-71015019D01*
X171634805Y-70925544D01*
X171649003Y-70854164D01*
X171666106Y-70822166D01*
X171697462Y-70790810D01*
X171741654Y-70772504D01*
X171753840Y-70773704D01*
X171790000Y-70780897D01*
X171897495Y-70759515D01*
X171988624Y-70698624D01*
X172049515Y-70607495D01*
X172070897Y-70500000D01*
X172049515Y-70392505D01*
X172039286Y-70377196D01*
X171988624Y-70301375D01*
X171897495Y-70240485D01*
X171812239Y-70223526D01*
X171772466Y-70196950D01*
X171763134Y-70150033D01*
X171780237Y-70118035D01*
X171929767Y-69968506D01*
X171973961Y-69950200D01*
X172047888Y-69950200D01*
X172099417Y-69928856D01*
X172099417Y-69928855D01*
X172104715Y-69926661D01*
X172140825Y-69923104D01*
X172180000Y-69930897D01*
X172287495Y-69909515D01*
X172378624Y-69848624D01*
X172439515Y-69757495D01*
X172460897Y-69650000D01*
X172459217Y-69641556D01*
X172439515Y-69542505D01*
X172439514Y-69542503D01*
X172378624Y-69451375D01*
X172287496Y-69390485D01*
X172287494Y-69390484D01*
X172185572Y-69370211D01*
X172179514Y-69366163D01*
X172170467Y-69370999D01*
X172072505Y-69390484D01*
X172072503Y-69390485D01*
X171981375Y-69451375D01*
X171920485Y-69542503D01*
X171920485Y-69542504D01*
X171904649Y-69622115D01*
X171878073Y-69661888D01*
X171867268Y-69667663D01*
X171810587Y-69691141D01*
X171810581Y-69691145D01*
X171576356Y-69925369D01*
X171532162Y-69943675D01*
X171497440Y-69933143D01*
X171485546Y-69925196D01*
X171485542Y-69925194D01*
X171406640Y-69909500D01*
X170743360Y-69909500D01*
X170673336Y-69923428D01*
X170626419Y-69914096D01*
X170599844Y-69874322D01*
X170599845Y-69849932D01*
X170600105Y-69848624D01*
X170600500Y-69846640D01*
X170600500Y-69653360D01*
X170584805Y-69574456D01*
X170584804Y-69574454D01*
X170525019Y-69484980D01*
X170435545Y-69425195D01*
X170435543Y-69425194D01*
X170356640Y-69409500D01*
X169593360Y-69409500D01*
X169514456Y-69425194D01*
X169514454Y-69425195D01*
X169424980Y-69484980D01*
X169365195Y-69574454D01*
X169365194Y-69574456D01*
X169349500Y-69653359D01*
X169349500Y-69846640D01*
X169365194Y-69925543D01*
X169365195Y-69925545D01*
X169391743Y-69965277D01*
X169401075Y-70012194D01*
X169391743Y-70034723D01*
X169365195Y-70074454D01*
X169365194Y-70074456D01*
X169349500Y-70153359D01*
X169349500Y-70173101D01*
X169331194Y-70217295D01*
X169081791Y-70466697D01*
X169081792Y-70466698D01*
X169051143Y-70497347D01*
X169029800Y-70548875D01*
X169029800Y-70778931D01*
X169011494Y-70823125D01*
X169002024Y-70830897D01*
X168974703Y-70849153D01*
X168971376Y-70851376D01*
X168948980Y-70884894D01*
X168910484Y-70942506D01*
X168891308Y-71038913D01*
X168864732Y-71078687D01*
X168817816Y-71088019D01*
X168785815Y-71070914D01*
X168521973Y-70807072D01*
X168503667Y-70762878D01*
X168521973Y-70718684D01*
X168537198Y-70703459D01*
X168555472Y-70685185D01*
X168643478Y-70539606D01*
X168694086Y-70377196D01*
X168700499Y-70306624D01*
X168700500Y-70306623D01*
X168700500Y-69193377D01*
X168700499Y-69193374D01*
X168694086Y-69122805D01*
X168687409Y-69101376D01*
X168643478Y-68960394D01*
X168555472Y-68814815D01*
X168435185Y-68694528D01*
X168388797Y-68666485D01*
X168360448Y-68627957D01*
X168367646Y-68580666D01*
X168406175Y-68552316D01*
X168421132Y-68550500D01*
X172035233Y-68550500D01*
X172079427Y-68568806D01*
G37*
%TD.AperFunction*%
%TA.AperFunction,Conductor*%
G36*
X177588967Y-70056881D02*
G01*
X177599500Y-70091605D01*
X177599500Y-70476748D01*
X177611132Y-70535230D01*
X177611133Y-70535232D01*
X177655447Y-70601552D01*
X177721767Y-70645866D01*
X177721769Y-70645867D01*
X177780252Y-70657500D01*
X178544748Y-70657500D01*
X178603231Y-70645867D01*
X178603231Y-70645866D01*
X178604347Y-70645645D01*
X178651263Y-70654977D01*
X178677839Y-70694751D01*
X178679040Y-70706944D01*
X178679040Y-70716675D01*
X178682386Y-70724752D01*
X178696516Y-70758867D01*
X178696517Y-70758869D01*
X179017108Y-71079459D01*
X179017114Y-71079466D01*
X179020676Y-71083028D01*
X179020677Y-71083029D01*
X179052971Y-71115323D01*
X179082383Y-71127505D01*
X179082799Y-71127677D01*
X179082804Y-71127682D01*
X179082805Y-71127680D01*
X179095164Y-71132800D01*
X179095165Y-71132800D01*
X179212000Y-71132800D01*
X179256194Y-71151106D01*
X179274500Y-71195300D01*
X179274500Y-71298751D01*
X179279121Y-71321984D01*
X179269788Y-71368900D01*
X179230014Y-71395475D01*
X179203919Y-71395110D01*
X179191039Y-71392171D01*
X179191023Y-71392168D01*
X179009089Y-71371670D01*
X178990911Y-71371670D01*
X178808976Y-71392168D01*
X178808956Y-71392171D01*
X178791248Y-71396213D01*
X178791239Y-71396215D01*
X178618418Y-71456687D01*
X178602041Y-71464574D01*
X178447013Y-71561985D01*
X178447005Y-71561990D01*
X178432796Y-71573322D01*
X178432784Y-71573333D01*
X178303333Y-71702784D01*
X178303322Y-71702796D01*
X178291990Y-71717005D01*
X178291985Y-71717013D01*
X178194574Y-71872041D01*
X178186687Y-71888418D01*
X178126215Y-72061239D01*
X178126213Y-72061248D01*
X178122171Y-72078956D01*
X178122168Y-72078977D01*
X178101671Y-72260897D01*
X178101670Y-72260904D01*
X178101953Y-72270008D01*
X178101964Y-72270412D01*
X178101967Y-72270534D01*
X178101865Y-72275956D01*
X178101669Y-72279088D01*
X178122168Y-72461022D01*
X178122171Y-72461043D01*
X178126213Y-72478751D01*
X178126215Y-72478760D01*
X178186687Y-72651581D01*
X178194574Y-72667958D01*
X178291985Y-72822986D01*
X178291990Y-72822994D01*
X178303322Y-72837203D01*
X178303333Y-72837215D01*
X178432784Y-72966666D01*
X178432796Y-72966677D01*
X178447005Y-72978009D01*
X178447013Y-72978014D01*
X178602041Y-73075425D01*
X178618418Y-73083311D01*
X178689851Y-73108307D01*
X178725519Y-73140182D01*
X178728202Y-73187942D01*
X178696327Y-73223610D01*
X178669209Y-73229800D01*
X175954094Y-73229800D01*
X175909900Y-73211494D01*
X175317854Y-72619448D01*
X175299548Y-72575254D01*
X175317854Y-72531060D01*
X175351201Y-72513702D01*
X175355183Y-72513000D01*
X175355190Y-72513000D01*
X175458915Y-72475248D01*
X175459825Y-72474484D01*
X175460733Y-72474197D01*
X175463650Y-72472514D01*
X175464023Y-72473160D01*
X175505444Y-72460099D01*
X175536170Y-72472825D01*
X175536350Y-72472514D01*
X175538714Y-72473879D01*
X175540174Y-72474483D01*
X175541085Y-72475248D01*
X175633181Y-72508767D01*
X175644804Y-72512998D01*
X175644810Y-72513000D01*
X175644813Y-72513000D01*
X175755187Y-72513000D01*
X175755190Y-72513000D01*
X175761421Y-72510732D01*
X175809210Y-72512815D01*
X175826994Y-72525267D01*
X176160583Y-72858856D01*
X176212112Y-72880200D01*
X176267887Y-72880200D01*
X176668931Y-72880200D01*
X176713125Y-72898506D01*
X176720898Y-72907977D01*
X176741375Y-72938624D01*
X176832503Y-72999514D01*
X176832505Y-72999515D01*
X176939999Y-73020897D01*
X176940000Y-73020897D01*
X176940001Y-73020897D01*
X177021785Y-73004629D01*
X177047495Y-72999515D01*
X177138624Y-72938624D01*
X177199515Y-72847495D01*
X177220897Y-72740000D01*
X177219445Y-72732702D01*
X177199515Y-72632505D01*
X177199514Y-72632503D01*
X177138624Y-72541375D01*
X177047496Y-72480485D01*
X177047494Y-72480484D01*
X176940001Y-72459103D01*
X176939999Y-72459103D01*
X176832505Y-72480484D01*
X176832503Y-72480485D01*
X176741375Y-72541375D01*
X176720898Y-72572023D01*
X176681124Y-72598599D01*
X176668931Y-72599800D01*
X176323961Y-72599800D01*
X176279767Y-72581494D01*
X176057474Y-72359201D01*
X176039168Y-72315007D01*
X176057474Y-72270813D01*
X176101668Y-72252507D01*
X176113854Y-72253707D01*
X176150000Y-72260897D01*
X176257495Y-72239515D01*
X176348624Y-72178624D01*
X176409515Y-72087495D01*
X176430897Y-71980000D01*
X176426735Y-71959078D01*
X176409515Y-71872505D01*
X176409514Y-71872503D01*
X176348624Y-71781375D01*
X176257496Y-71720485D01*
X176257494Y-71720484D01*
X176150001Y-71699103D01*
X176149998Y-71699103D01*
X176113847Y-71706293D01*
X176066931Y-71696960D01*
X176057461Y-71689188D01*
X176049418Y-71681145D01*
X176049413Y-71681141D01*
X175994605Y-71658439D01*
X175964397Y-71631947D01*
X175943472Y-71595704D01*
X175943470Y-71595702D01*
X175858916Y-71524752D01*
X175858913Y-71524751D01*
X175755192Y-71487000D01*
X175755190Y-71487000D01*
X175676973Y-71487000D01*
X175632779Y-71468694D01*
X175614473Y-71424500D01*
X175615423Y-71413647D01*
X175617829Y-71400002D01*
X175617829Y-71399997D01*
X175615423Y-71386353D01*
X175625776Y-71339652D01*
X175666120Y-71313950D01*
X175676973Y-71313000D01*
X175755187Y-71313000D01*
X175755190Y-71313000D01*
X175858915Y-71275248D01*
X175943471Y-71204297D01*
X175998662Y-71108704D01*
X176017829Y-71000000D01*
X175998662Y-70891296D01*
X175963994Y-70831250D01*
X175957750Y-70783824D01*
X175963994Y-70768750D01*
X175989396Y-70724752D01*
X175998662Y-70708704D01*
X176017829Y-70600000D01*
X175998662Y-70491296D01*
X175998661Y-70491294D01*
X175998661Y-70491293D01*
X175998659Y-70491289D01*
X175950889Y-70408550D01*
X175944645Y-70361124D01*
X175973765Y-70323174D01*
X176005015Y-70314800D01*
X176992833Y-70314800D01*
X176992835Y-70314800D01*
X177035029Y-70297323D01*
X177257500Y-70074850D01*
X177301693Y-70056545D01*
X177313884Y-70057745D01*
X177341566Y-70063252D01*
X177379999Y-70070897D01*
X177380000Y-70070897D01*
X177380001Y-70070897D01*
X177418434Y-70063252D01*
X177487495Y-70049515D01*
X177502277Y-70039637D01*
X177549193Y-70030306D01*
X177588967Y-70056881D01*
G37*
%TD.AperFunction*%
%TA.AperFunction,Conductor*%
G36*
X168807194Y-71668443D02*
G01*
X169175567Y-72036816D01*
X169175573Y-72036823D01*
X169179135Y-72040385D01*
X169179136Y-72040386D01*
X169236438Y-72097688D01*
X169311306Y-72128699D01*
X169392344Y-72128699D01*
X169532132Y-72128699D01*
X169576326Y-72147005D01*
X169615675Y-72186353D01*
X169641415Y-72212093D01*
X169740341Y-72262499D01*
X169850001Y-72279867D01*
X169959661Y-72262499D01*
X170058587Y-72212093D01*
X170130807Y-72139872D01*
X170175000Y-72121567D01*
X170219194Y-72139873D01*
X170285127Y-72205806D01*
X170303433Y-72250000D01*
X170285127Y-72294194D01*
X170212906Y-72366414D01*
X170162500Y-72465339D01*
X170162500Y-72465340D01*
X170149628Y-72546613D01*
X170145132Y-72575001D01*
X170148869Y-72598599D01*
X170161561Y-72678731D01*
X170150393Y-72725245D01*
X170144025Y-72732702D01*
X170046733Y-72829994D01*
X170002541Y-72848300D01*
X169220957Y-72848300D01*
X169186234Y-72837767D01*
X169112857Y-72788737D01*
X169112855Y-72788736D01*
X169005362Y-72767355D01*
X169005360Y-72767355D01*
X168897866Y-72788736D01*
X168897864Y-72788737D01*
X168801618Y-72853048D01*
X168800797Y-72851819D01*
X168763000Y-72867476D01*
X168718806Y-72849170D01*
X168700500Y-72804976D01*
X168700500Y-71712637D01*
X168718806Y-71668443D01*
X168763000Y-71650137D01*
X168807194Y-71668443D01*
G37*
%TD.AperFunction*%
%TA.AperFunction,Conductor*%
G36*
X175118726Y-69131078D02*
G01*
X175477258Y-69489610D01*
X175495564Y-69533804D01*
X175477258Y-69577998D01*
X175473239Y-69581681D01*
X175456529Y-69595701D01*
X175456527Y-69595704D01*
X175401340Y-69691290D01*
X175401338Y-69691293D01*
X175391843Y-69745145D01*
X175383856Y-69790448D01*
X175382171Y-69800002D01*
X175384577Y-69813647D01*
X175374224Y-69860348D01*
X175333880Y-69886050D01*
X175323027Y-69887000D01*
X175276973Y-69887000D01*
X175232779Y-69868694D01*
X175214473Y-69824500D01*
X175215423Y-69813647D01*
X175217829Y-69800002D01*
X175216308Y-69791375D01*
X175198662Y-69691296D01*
X175198661Y-69691294D01*
X175198661Y-69691293D01*
X175198659Y-69691290D01*
X175143472Y-69595704D01*
X175143470Y-69595702D01*
X175058916Y-69524752D01*
X175058913Y-69524751D01*
X174955192Y-69487000D01*
X174955190Y-69487000D01*
X174844810Y-69487000D01*
X174844807Y-69487000D01*
X174741087Y-69524751D01*
X174741081Y-69524754D01*
X174740167Y-69525522D01*
X174739255Y-69525809D01*
X174736351Y-69527486D01*
X174735979Y-69526841D01*
X174694544Y-69539899D01*
X174663831Y-69527176D01*
X174663652Y-69527487D01*
X174661291Y-69526124D01*
X174659828Y-69525518D01*
X174658916Y-69524753D01*
X174658914Y-69524751D01*
X174655918Y-69523661D01*
X174620653Y-69491340D01*
X174614800Y-69464932D01*
X174614800Y-69453300D01*
X174633106Y-69409106D01*
X174911134Y-69131078D01*
X174955328Y-69112772D01*
X175074532Y-69112772D01*
X175118726Y-69131078D01*
G37*
%TD.AperFunction*%
%TD*%
M02*
