%TF.GenerationSoftware,KiCad,Pcbnew,8.0.6*%
%TF.CreationDate,2024-11-02T14:47:31-07:00*%
%TF.ProjectId,cc-ring,63632d72-696e-4672-9e6b-696361645f70,rev?*%
%TF.SameCoordinates,Original*%
%TF.FileFunction,Soldermask,Top*%
%TF.FilePolarity,Negative*%
%FSLAX46Y46*%
G04 Gerber Fmt 4.6, Leading zero omitted, Abs format (unit mm)*
G04 Created by KiCad (PCBNEW 8.0.6) date 2024-11-02 14:47:31*
%MOMM*%
%LPD*%
G01*
G04 APERTURE LIST*
G04 APERTURE END LIST*
G36*
X168026472Y-71153485D02*
G01*
X168120072Y-71163048D01*
X168133893Y-71167627D01*
X168155291Y-71170445D01*
X168206867Y-71191808D01*
X168253139Y-71207141D01*
X168272061Y-71218812D01*
X168300000Y-71230385D01*
X168337604Y-71259239D01*
X168371510Y-71280153D01*
X168393444Y-71302087D01*
X168424264Y-71325736D01*
X168447912Y-71356555D01*
X168469846Y-71378489D01*
X168490758Y-71412393D01*
X168519615Y-71450000D01*
X168531188Y-71477940D01*
X168542858Y-71496860D01*
X168558188Y-71543124D01*
X168579555Y-71594709D01*
X168582372Y-71616109D01*
X168586951Y-71629927D01*
X168596510Y-71723497D01*
X168600000Y-71750000D01*
X168600000Y-72750000D01*
X168596510Y-72776506D01*
X168586951Y-72870072D01*
X168582372Y-72883888D01*
X168579555Y-72905291D01*
X168558186Y-72956879D01*
X168542858Y-73003139D01*
X168531189Y-73022056D01*
X168519615Y-73050000D01*
X168490755Y-73087610D01*
X168469846Y-73121510D01*
X168447916Y-73143439D01*
X168424264Y-73174264D01*
X168393439Y-73197916D01*
X168371510Y-73219846D01*
X168337610Y-73240755D01*
X168300000Y-73269615D01*
X168272056Y-73281189D01*
X168253139Y-73292858D01*
X168206879Y-73308186D01*
X168155291Y-73329555D01*
X168133888Y-73332372D01*
X168120072Y-73336951D01*
X168026506Y-73346510D01*
X168000000Y-73350000D01*
X166000000Y-73350000D01*
X165973497Y-73346510D01*
X165879927Y-73336951D01*
X165866109Y-73332372D01*
X165844709Y-73329555D01*
X165793124Y-73308188D01*
X165746860Y-73292858D01*
X165727940Y-73281188D01*
X165700000Y-73269615D01*
X165662393Y-73240758D01*
X165628489Y-73219846D01*
X165606555Y-73197912D01*
X165575736Y-73174264D01*
X165552087Y-73143444D01*
X165530153Y-73121510D01*
X165509239Y-73087604D01*
X165480385Y-73050000D01*
X165468812Y-73022061D01*
X165457141Y-73003139D01*
X165441808Y-72956867D01*
X165420445Y-72905291D01*
X165417627Y-72883893D01*
X165413048Y-72870072D01*
X165403485Y-72776472D01*
X165400000Y-72750000D01*
X165400000Y-71750000D01*
X165403484Y-71723531D01*
X165413048Y-71629927D01*
X165417628Y-71616104D01*
X165420445Y-71594709D01*
X165441806Y-71543136D01*
X165457141Y-71496860D01*
X165468813Y-71477935D01*
X165480385Y-71450000D01*
X165509236Y-71412399D01*
X165530153Y-71378489D01*
X165552090Y-71356551D01*
X165575736Y-71325736D01*
X165606551Y-71302090D01*
X165628489Y-71280153D01*
X165662399Y-71259236D01*
X165700000Y-71230385D01*
X165727935Y-71218813D01*
X165746860Y-71207141D01*
X165793136Y-71191806D01*
X165844709Y-71170445D01*
X165866104Y-71167628D01*
X165879927Y-71163048D01*
X165973531Y-71153484D01*
X166000000Y-71150000D01*
X168000000Y-71150000D01*
X168026472Y-71153485D01*
G37*
G36*
X178563268Y-69842612D02*
G01*
X178595711Y-69864289D01*
X178617388Y-69896732D01*
X178625000Y-69935000D01*
X178625000Y-70457000D01*
X178617388Y-70495268D01*
X178595711Y-70527711D01*
X178589446Y-70531896D01*
X178569668Y-70561498D01*
X178569668Y-70652502D01*
X178589446Y-70682103D01*
X178595711Y-70686289D01*
X178617388Y-70718732D01*
X178625000Y-70757000D01*
X178625000Y-71279000D01*
X178624999Y-71279005D01*
X178624999Y-71300281D01*
X178737946Y-71390357D01*
X178776591Y-71381538D01*
X178784523Y-71378763D01*
X178807446Y-71373531D01*
X178815812Y-71372588D01*
X178815814Y-71372588D01*
X178979875Y-71354103D01*
X178988244Y-71353160D01*
X179011756Y-71353160D01*
X179020125Y-71354103D01*
X179184188Y-71372588D01*
X179184191Y-71372588D01*
X179192554Y-71373531D01*
X179215477Y-71378763D01*
X179223413Y-71381540D01*
X179262051Y-71390358D01*
X179375000Y-71300281D01*
X179375000Y-70771774D01*
X179375000Y-70771773D01*
X179375000Y-70757000D01*
X179382612Y-70718732D01*
X179404289Y-70686289D01*
X179410550Y-70682105D01*
X179430331Y-70652501D01*
X179430331Y-70561499D01*
X179410550Y-70531894D01*
X179404289Y-70527711D01*
X179382612Y-70495268D01*
X179375000Y-70457000D01*
X179375000Y-69935000D01*
X179382612Y-69896732D01*
X179404289Y-69864289D01*
X179436732Y-69842612D01*
X179475000Y-69835000D01*
X180200000Y-69835000D01*
X180238268Y-69842612D01*
X180270711Y-69864289D01*
X180292388Y-69896732D01*
X180300000Y-69935000D01*
X180300000Y-70457000D01*
X180292388Y-70495268D01*
X180270711Y-70527711D01*
X180264446Y-70531896D01*
X180244668Y-70561498D01*
X180244668Y-70652502D01*
X180264446Y-70682103D01*
X180270711Y-70686289D01*
X180292388Y-70718732D01*
X180300000Y-70757000D01*
X180300000Y-71279000D01*
X180292388Y-71317268D01*
X180270711Y-71349711D01*
X180238268Y-71371388D01*
X180200000Y-71379000D01*
X179661219Y-71379000D01*
X179584509Y-71564193D01*
X179703528Y-71683211D01*
X179703535Y-71683220D01*
X179709484Y-71689169D01*
X179724144Y-71707551D01*
X179820943Y-71861605D01*
X179831145Y-71882790D01*
X179891237Y-72054523D01*
X179896469Y-72077446D01*
X179916840Y-72258244D01*
X179916840Y-72281756D01*
X179896469Y-72462554D01*
X179891237Y-72485477D01*
X179831145Y-72657210D01*
X179820943Y-72678395D01*
X179724144Y-72832449D01*
X179709484Y-72850831D01*
X179703531Y-72856783D01*
X179703528Y-72856788D01*
X179586788Y-72973528D01*
X179586783Y-72973531D01*
X179580831Y-72979484D01*
X179562449Y-72994144D01*
X179408395Y-73090943D01*
X179387210Y-73101145D01*
X179215477Y-73161237D01*
X179192554Y-73166469D01*
X179011756Y-73186840D01*
X178988244Y-73186840D01*
X178807446Y-73166469D01*
X178784523Y-73161237D01*
X178612790Y-73101145D01*
X178591605Y-73090943D01*
X178437551Y-72994144D01*
X178419169Y-72979484D01*
X178413220Y-72973535D01*
X178413211Y-72973528D01*
X178296471Y-72856788D01*
X178296463Y-72856778D01*
X178290516Y-72850831D01*
X178275856Y-72832449D01*
X178179057Y-72678395D01*
X178168855Y-72657210D01*
X178108763Y-72485477D01*
X178103531Y-72462554D01*
X178102588Y-72454188D01*
X178102587Y-72454182D01*
X178084813Y-72296433D01*
X178084813Y-72296429D01*
X178083160Y-72281756D01*
X178084753Y-72273972D01*
X178084351Y-72270000D01*
X178083160Y-72258244D01*
X178083629Y-72254078D01*
X178083630Y-72254067D01*
X178102587Y-72085817D01*
X178102588Y-72085809D01*
X178103531Y-72077446D01*
X178108763Y-72054523D01*
X178168855Y-71882790D01*
X178179057Y-71861605D01*
X178187403Y-71848323D01*
X178271379Y-71714676D01*
X178271379Y-71714675D01*
X178275856Y-71707551D01*
X178290516Y-71689169D01*
X178296459Y-71683225D01*
X178296471Y-71683211D01*
X178415490Y-71564191D01*
X178338779Y-71379000D01*
X177800000Y-71379000D01*
X177761732Y-71371388D01*
X177729289Y-71349711D01*
X177707612Y-71317268D01*
X177700000Y-71279000D01*
X177700000Y-70757000D01*
X177707612Y-70718732D01*
X177729289Y-70686289D01*
X177735550Y-70682105D01*
X177755331Y-70652501D01*
X177755331Y-70561499D01*
X177735550Y-70531894D01*
X177729289Y-70527711D01*
X177707612Y-70495268D01*
X177700000Y-70457000D01*
X177700000Y-69935000D01*
X177707612Y-69896732D01*
X177729289Y-69864289D01*
X177761732Y-69842612D01*
X177800000Y-69835000D01*
X178525000Y-69835000D01*
X178563268Y-69842612D01*
G37*
G36*
X190263438Y-69143259D02*
G01*
X190513444Y-69161994D01*
X190513455Y-69161995D01*
X190519037Y-69162414D01*
X190534555Y-69164753D01*
X190540017Y-69165999D01*
X190540032Y-69166002D01*
X190784431Y-69221784D01*
X190784449Y-69221789D01*
X190789910Y-69223036D01*
X190804906Y-69227661D01*
X190810132Y-69229712D01*
X190810135Y-69229713D01*
X191043497Y-69321301D01*
X191043500Y-69321302D01*
X191048722Y-69323352D01*
X191062861Y-69330161D01*
X191067710Y-69332961D01*
X191067719Y-69332965D01*
X191284829Y-69458314D01*
X191284832Y-69458316D01*
X191289692Y-69461122D01*
X191302658Y-69469963D01*
X191507437Y-69633269D01*
X191518941Y-69643943D01*
X191552397Y-69680000D01*
X191673174Y-69810167D01*
X191697093Y-69835945D01*
X191706878Y-69848214D01*
X191854424Y-70064624D01*
X191862271Y-70078215D01*
X191975915Y-70314199D01*
X191981648Y-70328808D01*
X192058851Y-70579093D01*
X192062343Y-70594393D01*
X192101380Y-70853390D01*
X192102535Y-70867077D01*
X192104982Y-70998038D01*
X192103789Y-71001954D01*
X192104206Y-71001962D01*
X192102133Y-71112889D01*
X192100978Y-71126576D01*
X192061941Y-71385573D01*
X192058449Y-71400873D01*
X191981246Y-71651158D01*
X191975513Y-71665767D01*
X191861869Y-71901751D01*
X191854022Y-71915342D01*
X191706476Y-72131752D01*
X191696691Y-72144021D01*
X191518539Y-72336023D01*
X191507035Y-72346697D01*
X191302256Y-72510003D01*
X191289290Y-72518844D01*
X191062459Y-72649805D01*
X191048320Y-72656614D01*
X190804504Y-72752305D01*
X190789508Y-72756930D01*
X190784034Y-72758179D01*
X190784029Y-72758181D01*
X190552673Y-72810986D01*
X190534153Y-72815213D01*
X190518635Y-72817552D01*
X190257445Y-72837126D01*
X190241751Y-72837126D01*
X189980561Y-72817552D01*
X189965043Y-72815213D01*
X189959569Y-72813963D01*
X189959565Y-72813963D01*
X189715166Y-72758181D01*
X189715157Y-72758178D01*
X189709688Y-72756930D01*
X189694692Y-72752305D01*
X189450876Y-72656614D01*
X189436737Y-72649805D01*
X189431881Y-72647001D01*
X189431878Y-72647000D01*
X189214768Y-72521651D01*
X189209906Y-72518844D01*
X189196940Y-72510003D01*
X188992161Y-72346697D01*
X188980657Y-72336023D01*
X188802505Y-72144021D01*
X188792720Y-72131752D01*
X188645174Y-71915342D01*
X188637327Y-71901751D01*
X188619670Y-71865087D01*
X188526122Y-71670832D01*
X188526121Y-71670830D01*
X188523683Y-71665767D01*
X188517950Y-71651158D01*
X188516294Y-71645791D01*
X188442400Y-71406234D01*
X188442398Y-71406225D01*
X188440747Y-71400873D01*
X188437255Y-71385573D01*
X188436420Y-71380036D01*
X188436419Y-71380030D01*
X188398948Y-71131423D01*
X188398947Y-71131414D01*
X188398218Y-71126576D01*
X188397063Y-71112888D01*
X188396357Y-71075131D01*
X188394976Y-71001171D01*
X188394939Y-70999210D01*
X189105042Y-70999210D01*
X189106700Y-71075318D01*
X189391620Y-71092435D01*
X189400374Y-71003559D01*
X189400000Y-71000000D01*
X189411526Y-70890338D01*
X189417044Y-70834319D01*
X189417610Y-70832451D01*
X189418575Y-70823275D01*
X189445924Y-70739099D01*
X189477814Y-70633961D01*
X191022183Y-70633961D01*
X191054050Y-70739024D01*
X191081425Y-70823275D01*
X191082389Y-70832454D01*
X191082952Y-70834308D01*
X191088442Y-70890038D01*
X191100000Y-71000000D01*
X191099625Y-71003559D01*
X191108382Y-71092441D01*
X191392494Y-71075378D01*
X191394555Y-70980768D01*
X191393528Y-70933551D01*
X191392947Y-70906906D01*
X191391824Y-70895513D01*
X191388418Y-70876193D01*
X191372252Y-70784541D01*
X191360389Y-70717238D01*
X191359044Y-70709609D01*
X191355655Y-70696962D01*
X191343415Y-70663333D01*
X191299123Y-70541639D01*
X191022183Y-70633961D01*
X189477814Y-70633961D01*
X189477821Y-70633939D01*
X189200879Y-70541628D01*
X189145528Y-70693706D01*
X189144343Y-70696965D01*
X189140956Y-70709609D01*
X189137395Y-70729796D01*
X189113188Y-70867077D01*
X189108177Y-70895506D01*
X189107054Y-70906907D01*
X189106327Y-70940208D01*
X189105042Y-70999210D01*
X188394939Y-70999210D01*
X188394892Y-70996697D01*
X188394892Y-70996696D01*
X188394616Y-70981930D01*
X188395808Y-70978011D01*
X188395392Y-70978004D01*
X188397465Y-70867077D01*
X188398620Y-70853390D01*
X188399351Y-70848537D01*
X188399352Y-70848530D01*
X188436821Y-70599935D01*
X188436823Y-70599926D01*
X188437657Y-70594393D01*
X188441149Y-70579093D01*
X188442799Y-70573743D01*
X188442802Y-70573731D01*
X188516696Y-70334174D01*
X188516699Y-70334164D01*
X188518352Y-70328808D01*
X188524085Y-70314199D01*
X188526521Y-70309140D01*
X188526524Y-70309133D01*
X188635292Y-70083274D01*
X188635296Y-70083266D01*
X188637729Y-70078215D01*
X188645576Y-70064624D01*
X188655724Y-70049740D01*
X188723126Y-69950879D01*
X189791628Y-69950879D01*
X189883939Y-70227821D01*
X189953105Y-70206842D01*
X189987336Y-70191602D01*
X190040867Y-70180223D01*
X190084323Y-70167043D01*
X190118893Y-70163638D01*
X190161151Y-70154656D01*
X190210097Y-70154656D01*
X190250001Y-70150726D01*
X190289902Y-70154656D01*
X190338849Y-70154656D01*
X190381112Y-70163639D01*
X190415688Y-70167045D01*
X190459136Y-70180224D01*
X190512664Y-70191602D01*
X190546905Y-70206847D01*
X190616051Y-70227821D01*
X190708367Y-69950878D01*
X190553038Y-69894344D01*
X190540397Y-69890957D01*
X190532523Y-69889567D01*
X190389095Y-69864277D01*
X190389095Y-69864278D01*
X190356440Y-69858520D01*
X190343391Y-69857378D01*
X190156610Y-69857378D01*
X190143563Y-69858518D01*
X189970995Y-69888947D01*
X189959609Y-69890956D01*
X189946965Y-69894343D01*
X189946962Y-69894344D01*
X189791628Y-69950879D01*
X188723126Y-69950879D01*
X188763981Y-69890956D01*
X188793122Y-69848214D01*
X188802907Y-69835945D01*
X188806718Y-69831837D01*
X188806725Y-69831829D01*
X188977242Y-69648056D01*
X188977246Y-69648051D01*
X188981059Y-69643943D01*
X188992563Y-69633269D01*
X188996940Y-69629778D01*
X188996947Y-69629772D01*
X189192953Y-69473463D01*
X189192953Y-69473462D01*
X189197342Y-69469963D01*
X189210308Y-69461122D01*
X189215161Y-69458320D01*
X189215170Y-69458314D01*
X189432280Y-69332965D01*
X189432294Y-69332958D01*
X189437139Y-69330161D01*
X189451278Y-69323352D01*
X189456493Y-69321304D01*
X189456502Y-69321301D01*
X189689864Y-69229713D01*
X189689871Y-69229710D01*
X189695094Y-69227661D01*
X189710090Y-69223036D01*
X189715547Y-69221790D01*
X189715568Y-69221784D01*
X189959967Y-69166002D01*
X189959983Y-69165999D01*
X189965445Y-69164753D01*
X189980963Y-69162414D01*
X189986542Y-69161995D01*
X189986555Y-69161994D01*
X190236562Y-69143259D01*
X190242153Y-69142840D01*
X190257847Y-69142840D01*
X190263438Y-69143259D01*
G37*
G36*
X171196114Y-71684172D02*
G01*
X171226676Y-71689013D01*
X171230663Y-71691044D01*
X171245671Y-71694030D01*
X171275053Y-71713662D01*
X171295848Y-71724258D01*
X171305790Y-71734200D01*
X171326777Y-71748223D01*
X171340799Y-71769209D01*
X171350741Y-71779151D01*
X171361335Y-71799943D01*
X171380970Y-71829329D01*
X171383955Y-71844337D01*
X171385986Y-71848323D01*
X171390822Y-71878862D01*
X171400000Y-71924999D01*
X171390822Y-71971137D01*
X171385986Y-72001674D01*
X171383955Y-72005658D01*
X171380970Y-72020669D01*
X171361333Y-72050057D01*
X171350741Y-72070846D01*
X171340801Y-72080785D01*
X171326777Y-72101775D01*
X171305787Y-72115799D01*
X171295850Y-72125737D01*
X171275068Y-72136325D01*
X171245671Y-72155968D01*
X171232375Y-72158612D01*
X171232375Y-72341387D01*
X171245671Y-72344032D01*
X171275064Y-72363671D01*
X171295850Y-72374262D01*
X171305790Y-72384202D01*
X171326777Y-72398225D01*
X171340799Y-72419211D01*
X171350741Y-72429153D01*
X171361335Y-72449945D01*
X171380970Y-72479331D01*
X171383955Y-72494339D01*
X171385986Y-72498325D01*
X171390822Y-72528864D01*
X171400000Y-72575001D01*
X171390822Y-72621139D01*
X171385986Y-72651676D01*
X171383955Y-72655660D01*
X171380970Y-72670671D01*
X171361333Y-72700059D01*
X171350741Y-72720848D01*
X171340801Y-72730787D01*
X171326777Y-72751777D01*
X171305787Y-72765801D01*
X171295848Y-72775741D01*
X171275059Y-72786333D01*
X171245671Y-72805970D01*
X171230660Y-72808955D01*
X171226676Y-72810986D01*
X171196139Y-72815822D01*
X171150001Y-72825000D01*
X171103864Y-72815822D01*
X171073325Y-72810986D01*
X171069339Y-72808955D01*
X171054331Y-72805970D01*
X171024945Y-72786335D01*
X171004153Y-72775741D01*
X170994211Y-72765799D01*
X170973225Y-72751777D01*
X170959202Y-72730790D01*
X170949254Y-72720842D01*
X170938638Y-72700014D01*
X170919032Y-72670671D01*
X170916384Y-72657363D01*
X170733610Y-72657388D01*
X170730969Y-72670671D01*
X170711293Y-72700117D01*
X170700730Y-72720858D01*
X170690800Y-72730787D01*
X170676776Y-72751777D01*
X170655786Y-72765801D01*
X170645847Y-72775741D01*
X170625058Y-72786333D01*
X170595670Y-72805970D01*
X170580659Y-72808955D01*
X170576675Y-72810986D01*
X170546138Y-72815822D01*
X170500000Y-72825000D01*
X170453863Y-72815822D01*
X170423324Y-72810986D01*
X170419338Y-72808955D01*
X170404330Y-72805970D01*
X170374944Y-72786335D01*
X170354152Y-72775741D01*
X170344210Y-72765799D01*
X170323224Y-72751777D01*
X170309201Y-72730790D01*
X170299254Y-72720843D01*
X170288639Y-72700016D01*
X170269031Y-72670671D01*
X170266384Y-72657365D01*
X170083611Y-72657390D01*
X170080970Y-72670671D01*
X170061297Y-72700113D01*
X170050732Y-72720857D01*
X170040801Y-72730787D01*
X170026777Y-72751777D01*
X170005787Y-72765801D01*
X169995848Y-72775741D01*
X169975059Y-72786333D01*
X169945671Y-72805970D01*
X169930660Y-72808955D01*
X169926676Y-72810986D01*
X169896139Y-72815822D01*
X169850001Y-72825000D01*
X169803864Y-72815822D01*
X169773325Y-72810986D01*
X169769339Y-72808955D01*
X169754331Y-72805970D01*
X169724945Y-72786335D01*
X169704153Y-72775741D01*
X169694211Y-72765799D01*
X169673225Y-72751777D01*
X169659202Y-72730790D01*
X169649260Y-72720848D01*
X169638664Y-72700053D01*
X169619032Y-72670671D01*
X169616046Y-72655663D01*
X169614015Y-72651676D01*
X169609174Y-72621114D01*
X169600002Y-72575001D01*
X169609174Y-72528889D01*
X169614015Y-72498325D01*
X169616047Y-72494336D01*
X169619032Y-72479331D01*
X169638662Y-72449951D01*
X169649260Y-72429153D01*
X169659204Y-72419208D01*
X169673225Y-72398225D01*
X169694208Y-72384204D01*
X169704159Y-72374254D01*
X169724988Y-72363637D01*
X169754331Y-72344032D01*
X169767626Y-72341387D01*
X169767626Y-72158612D01*
X169932375Y-72158612D01*
X169932375Y-72341387D01*
X169945671Y-72344032D01*
X169975064Y-72363671D01*
X169995850Y-72374262D01*
X170005790Y-72384202D01*
X170026777Y-72398225D01*
X170040799Y-72419211D01*
X170050740Y-72429152D01*
X170061331Y-72449939D01*
X170080970Y-72479331D01*
X170083611Y-72492610D01*
X170266384Y-72492635D01*
X170269031Y-72479331D01*
X170288605Y-72450036D01*
X170299246Y-72429166D01*
X170309203Y-72419208D01*
X170323224Y-72398225D01*
X170344207Y-72384204D01*
X170354158Y-72374254D01*
X170374987Y-72363637D01*
X170404330Y-72344032D01*
X170417625Y-72341387D01*
X170417625Y-72158612D01*
X170582374Y-72158612D01*
X170582374Y-72341387D01*
X170595670Y-72344032D01*
X170625063Y-72363671D01*
X170645849Y-72374262D01*
X170655789Y-72384202D01*
X170676776Y-72398225D01*
X170690798Y-72419211D01*
X170700737Y-72429150D01*
X170711325Y-72449932D01*
X170730969Y-72479331D01*
X170733610Y-72492612D01*
X170916385Y-72492637D01*
X170919032Y-72479331D01*
X170938604Y-72450038D01*
X170949246Y-72429167D01*
X170959204Y-72419208D01*
X170973225Y-72398225D01*
X170994208Y-72384204D01*
X171004159Y-72374254D01*
X171024988Y-72363637D01*
X171054331Y-72344032D01*
X171067626Y-72341387D01*
X171067626Y-72158612D01*
X171054331Y-72155968D01*
X171024984Y-72136359D01*
X171004159Y-72125745D01*
X170994211Y-72115797D01*
X170973225Y-72101775D01*
X170959202Y-72080788D01*
X170949254Y-72070840D01*
X170938638Y-72050012D01*
X170919032Y-72020669D01*
X170916384Y-72007361D01*
X170733610Y-72007386D01*
X170730969Y-72020669D01*
X170711293Y-72050115D01*
X170700730Y-72070856D01*
X170690800Y-72080785D01*
X170676776Y-72101775D01*
X170655786Y-72115799D01*
X170645849Y-72125737D01*
X170625067Y-72136325D01*
X170595670Y-72155968D01*
X170582374Y-72158612D01*
X170417625Y-72158612D01*
X170404330Y-72155968D01*
X170374983Y-72136359D01*
X170354158Y-72125745D01*
X170344210Y-72115797D01*
X170323224Y-72101775D01*
X170309201Y-72080788D01*
X170299254Y-72070841D01*
X170288639Y-72050014D01*
X170269031Y-72020669D01*
X170266384Y-72007363D01*
X170083611Y-72007388D01*
X170080970Y-72020669D01*
X170061297Y-72050111D01*
X170050732Y-72070855D01*
X170040801Y-72080785D01*
X170026777Y-72101775D01*
X170005787Y-72115799D01*
X169995850Y-72125737D01*
X169975068Y-72136325D01*
X169945671Y-72155968D01*
X169932375Y-72158612D01*
X169767626Y-72158612D01*
X169754331Y-72155968D01*
X169724984Y-72136359D01*
X169704159Y-72125745D01*
X169694211Y-72115797D01*
X169673225Y-72101775D01*
X169659202Y-72080788D01*
X169649260Y-72070846D01*
X169638664Y-72050051D01*
X169619032Y-72020669D01*
X169616046Y-72005661D01*
X169614015Y-72001674D01*
X169609174Y-71971112D01*
X169600002Y-71924999D01*
X169609174Y-71878887D01*
X169614015Y-71848323D01*
X169616047Y-71844334D01*
X169619032Y-71829329D01*
X169638662Y-71799949D01*
X169649260Y-71779151D01*
X169659204Y-71769206D01*
X169673225Y-71748223D01*
X169694208Y-71734202D01*
X169704153Y-71724258D01*
X169724951Y-71713660D01*
X169754331Y-71694030D01*
X169769336Y-71691045D01*
X169773325Y-71689013D01*
X169803889Y-71684172D01*
X169850001Y-71675000D01*
X169896114Y-71684172D01*
X169926676Y-71689013D01*
X169930663Y-71691044D01*
X169945671Y-71694030D01*
X169975053Y-71713662D01*
X169995848Y-71724258D01*
X170005790Y-71734200D01*
X170026777Y-71748223D01*
X170040799Y-71769209D01*
X170050740Y-71779150D01*
X170061331Y-71799937D01*
X170080970Y-71829329D01*
X170083611Y-71842608D01*
X170266384Y-71842633D01*
X170269031Y-71829329D01*
X170288605Y-71800034D01*
X170299246Y-71779164D01*
X170309203Y-71769206D01*
X170323224Y-71748223D01*
X170344207Y-71734202D01*
X170354152Y-71724258D01*
X170374950Y-71713660D01*
X170404330Y-71694030D01*
X170419335Y-71691045D01*
X170423324Y-71689013D01*
X170453888Y-71684172D01*
X170500000Y-71675000D01*
X170546113Y-71684172D01*
X170576675Y-71689013D01*
X170580662Y-71691044D01*
X170595670Y-71694030D01*
X170625052Y-71713662D01*
X170645847Y-71724258D01*
X170655789Y-71734200D01*
X170676776Y-71748223D01*
X170690798Y-71769209D01*
X170700737Y-71779148D01*
X170711325Y-71799930D01*
X170730969Y-71829329D01*
X170733610Y-71842610D01*
X170916385Y-71842635D01*
X170919032Y-71829329D01*
X170938604Y-71800036D01*
X170949246Y-71779165D01*
X170959204Y-71769206D01*
X170973225Y-71748223D01*
X170994208Y-71734202D01*
X171004153Y-71724258D01*
X171024951Y-71713660D01*
X171054331Y-71694030D01*
X171069336Y-71691045D01*
X171073325Y-71689013D01*
X171103889Y-71684172D01*
X171150001Y-71675000D01*
X171196114Y-71684172D01*
G37*
G36*
X175746114Y-69596672D02*
G01*
X175765087Y-69599678D01*
X175767562Y-69600939D01*
X175781320Y-69603676D01*
X175808250Y-69621670D01*
X175823806Y-69629596D01*
X175831243Y-69637033D01*
X175850260Y-69649740D01*
X175862966Y-69668756D01*
X175870403Y-69676193D01*
X175878327Y-69691746D01*
X175896324Y-69718680D01*
X175899060Y-69732438D01*
X175900321Y-69734912D01*
X175903322Y-69753863D01*
X175912500Y-69800000D01*
X175903322Y-69846138D01*
X175900321Y-69865087D01*
X175899061Y-69867559D01*
X175896324Y-69881320D01*
X175878325Y-69908256D01*
X175870403Y-69923806D01*
X175862968Y-69931240D01*
X175850260Y-69950260D01*
X175831240Y-69962968D01*
X175823806Y-69970403D01*
X175808256Y-69978325D01*
X175781320Y-69996324D01*
X175767559Y-69999061D01*
X175765087Y-70000321D01*
X175746137Y-70003322D01*
X175700000Y-70012500D01*
X175653850Y-70003320D01*
X175603419Y-69995332D01*
X175495332Y-70103419D01*
X175503318Y-70153841D01*
X175512500Y-70200000D01*
X175503316Y-70246167D01*
X175495332Y-70296578D01*
X175603417Y-70404666D01*
X175653894Y-70396671D01*
X175700000Y-70387500D01*
X175746115Y-70396673D01*
X175765087Y-70399678D01*
X175767562Y-70400939D01*
X175781320Y-70403676D01*
X175808250Y-70421670D01*
X175823806Y-70429596D01*
X175831243Y-70437033D01*
X175850260Y-70449740D01*
X175862966Y-70468756D01*
X175870403Y-70476193D01*
X175878327Y-70491746D01*
X175896324Y-70518680D01*
X175899060Y-70532438D01*
X175900321Y-70534912D01*
X175903322Y-70553863D01*
X175912500Y-70600000D01*
X175903322Y-70646138D01*
X175900321Y-70665087D01*
X175899061Y-70667559D01*
X175896324Y-70681320D01*
X175878323Y-70708259D01*
X175849929Y-70763988D01*
X175849929Y-70836012D01*
X175878325Y-70891742D01*
X175896324Y-70918680D01*
X175899060Y-70932438D01*
X175900321Y-70934912D01*
X175903322Y-70953863D01*
X175912500Y-71000000D01*
X175903322Y-71046138D01*
X175900321Y-71065087D01*
X175899061Y-71067559D01*
X175896324Y-71081320D01*
X175878323Y-71108259D01*
X175849929Y-71163988D01*
X175849929Y-71236012D01*
X175878325Y-71291742D01*
X175896324Y-71318680D01*
X175899060Y-71332438D01*
X175900321Y-71334912D01*
X175903322Y-71353863D01*
X175912500Y-71400000D01*
X175903322Y-71446138D01*
X175900321Y-71465087D01*
X175899061Y-71467559D01*
X175896324Y-71481320D01*
X175878323Y-71508259D01*
X175849929Y-71563988D01*
X175849929Y-71636012D01*
X175878325Y-71691742D01*
X175896324Y-71718680D01*
X175899060Y-71732438D01*
X175900321Y-71734912D01*
X175903322Y-71753863D01*
X175912500Y-71800000D01*
X175903322Y-71846138D01*
X175900321Y-71865087D01*
X175899061Y-71867559D01*
X175896324Y-71881320D01*
X175878323Y-71908259D01*
X175849929Y-71963988D01*
X175849929Y-72036012D01*
X175878325Y-72091742D01*
X175896324Y-72118680D01*
X175899060Y-72132438D01*
X175900321Y-72134912D01*
X175903322Y-72153863D01*
X175912500Y-72200000D01*
X175903322Y-72246138D01*
X175900321Y-72265087D01*
X175899061Y-72267559D01*
X175896324Y-72281320D01*
X175878325Y-72308256D01*
X175870403Y-72323806D01*
X175862968Y-72331240D01*
X175850260Y-72350260D01*
X175831240Y-72362968D01*
X175823806Y-72370403D01*
X175808256Y-72378325D01*
X175781320Y-72396324D01*
X175767559Y-72399061D01*
X175765087Y-72400321D01*
X175746138Y-72403322D01*
X175700000Y-72412500D01*
X175653863Y-72403322D01*
X175634912Y-72400321D01*
X175632438Y-72399060D01*
X175618680Y-72396324D01*
X175591742Y-72378325D01*
X175536012Y-72349929D01*
X175463988Y-72349929D01*
X175408259Y-72378323D01*
X175381320Y-72396324D01*
X175367559Y-72399061D01*
X175365087Y-72400321D01*
X175346138Y-72403322D01*
X175300000Y-72412500D01*
X175253863Y-72403322D01*
X175234912Y-72400321D01*
X175232438Y-72399060D01*
X175218680Y-72396324D01*
X175191742Y-72378325D01*
X175136012Y-72349929D01*
X175063988Y-72349929D01*
X175008259Y-72378323D01*
X174981320Y-72396324D01*
X174967559Y-72399061D01*
X174965087Y-72400321D01*
X174946138Y-72403322D01*
X174900000Y-72412500D01*
X174853863Y-72403322D01*
X174834912Y-72400321D01*
X174832438Y-72399060D01*
X174818680Y-72396324D01*
X174791742Y-72378325D01*
X174736012Y-72349929D01*
X174663988Y-72349929D01*
X174608259Y-72378323D01*
X174581320Y-72396324D01*
X174567559Y-72399061D01*
X174565087Y-72400321D01*
X174546138Y-72403322D01*
X174500000Y-72412500D01*
X174453863Y-72403322D01*
X174434912Y-72400321D01*
X174432438Y-72399060D01*
X174418680Y-72396324D01*
X174391742Y-72378325D01*
X174336012Y-72349929D01*
X174263988Y-72349929D01*
X174208259Y-72378323D01*
X174181320Y-72396324D01*
X174167559Y-72399061D01*
X174165087Y-72400321D01*
X174146138Y-72403322D01*
X174100000Y-72412500D01*
X174053863Y-72403322D01*
X174034912Y-72400321D01*
X174032438Y-72399060D01*
X174018680Y-72396324D01*
X173991742Y-72378325D01*
X173936012Y-72349929D01*
X173863988Y-72349929D01*
X173808259Y-72378323D01*
X173781320Y-72396324D01*
X173767559Y-72399061D01*
X173765087Y-72400321D01*
X173746138Y-72403322D01*
X173700000Y-72412500D01*
X173653863Y-72403322D01*
X173634912Y-72400321D01*
X173632438Y-72399060D01*
X173618680Y-72396324D01*
X173591742Y-72378325D01*
X173536012Y-72349929D01*
X173463988Y-72349929D01*
X173408259Y-72378323D01*
X173381320Y-72396324D01*
X173367559Y-72399061D01*
X173365087Y-72400321D01*
X173346138Y-72403322D01*
X173300000Y-72412500D01*
X173253863Y-72403322D01*
X173234912Y-72400321D01*
X173232438Y-72399060D01*
X173218680Y-72396324D01*
X173191746Y-72378327D01*
X173176193Y-72370403D01*
X173168756Y-72362966D01*
X173149740Y-72350260D01*
X173137033Y-72331243D01*
X173129596Y-72323806D01*
X173121670Y-72308250D01*
X173103676Y-72281320D01*
X173100939Y-72267562D01*
X173099678Y-72265087D01*
X173096672Y-72246114D01*
X173087500Y-72200000D01*
X173096672Y-72153888D01*
X173099678Y-72134912D01*
X173100939Y-72132435D01*
X173103676Y-72118680D01*
X173121669Y-72091750D01*
X173150070Y-72036011D01*
X173150070Y-71963989D01*
X173121670Y-71908251D01*
X173103676Y-71881320D01*
X173100939Y-71867562D01*
X173099678Y-71865087D01*
X173096672Y-71846114D01*
X173087500Y-71800000D01*
X173096672Y-71753888D01*
X173099678Y-71734912D01*
X173100939Y-71732435D01*
X173103676Y-71718680D01*
X173121669Y-71691750D01*
X173150070Y-71636011D01*
X173150070Y-71563989D01*
X173121670Y-71508251D01*
X173103676Y-71481320D01*
X173100939Y-71467562D01*
X173099678Y-71465087D01*
X173096672Y-71446114D01*
X173087500Y-71400000D01*
X173096672Y-71353888D01*
X173099678Y-71334912D01*
X173100939Y-71332435D01*
X173103676Y-71318680D01*
X173121669Y-71291750D01*
X173150070Y-71236011D01*
X173150070Y-71163989D01*
X173121670Y-71108251D01*
X173103676Y-71081320D01*
X173100939Y-71067562D01*
X173099678Y-71065087D01*
X173096672Y-71046114D01*
X173087500Y-71000000D01*
X173096672Y-70953888D01*
X173099678Y-70934912D01*
X173100939Y-70932435D01*
X173103676Y-70918680D01*
X173121668Y-70891752D01*
X173129596Y-70876193D01*
X173137035Y-70868753D01*
X173149740Y-70849740D01*
X173168753Y-70837035D01*
X173176193Y-70829596D01*
X173191752Y-70821668D01*
X173218680Y-70803676D01*
X173232435Y-70800939D01*
X173234912Y-70799678D01*
X173253888Y-70796672D01*
X173300000Y-70787500D01*
X173346114Y-70796672D01*
X173365087Y-70799678D01*
X173367562Y-70800939D01*
X173381320Y-70803676D01*
X173408251Y-70821670D01*
X173463989Y-70850070D01*
X173536011Y-70850070D01*
X173591750Y-70821669D01*
X173618680Y-70803676D01*
X173632435Y-70800939D01*
X173634912Y-70799678D01*
X173653888Y-70796672D01*
X173700000Y-70787500D01*
X173746110Y-70796672D01*
X173796581Y-70804666D01*
X173904666Y-70696581D01*
X173896672Y-70646112D01*
X173887500Y-70600000D01*
X173896671Y-70553894D01*
X173904666Y-70503417D01*
X173796578Y-70395332D01*
X173746159Y-70403318D01*
X173700000Y-70412500D01*
X173653867Y-70403323D01*
X173634912Y-70400321D01*
X173632438Y-70399060D01*
X173618680Y-70396324D01*
X173591742Y-70378325D01*
X173536012Y-70349929D01*
X173463988Y-70349929D01*
X173408259Y-70378323D01*
X173381320Y-70396324D01*
X173367559Y-70399061D01*
X173365087Y-70400321D01*
X173346138Y-70403322D01*
X173300000Y-70412500D01*
X173253863Y-70403322D01*
X173234912Y-70400321D01*
X173232438Y-70399060D01*
X173218680Y-70396324D01*
X173191746Y-70378327D01*
X173176193Y-70370403D01*
X173168756Y-70362966D01*
X173149740Y-70350260D01*
X173137033Y-70331243D01*
X173129596Y-70323806D01*
X173121670Y-70308250D01*
X173103676Y-70281320D01*
X173100939Y-70267562D01*
X173099678Y-70265087D01*
X173096672Y-70246114D01*
X173087500Y-70200000D01*
X173096672Y-70153888D01*
X173099678Y-70134912D01*
X173100939Y-70132435D01*
X173103676Y-70118680D01*
X173121669Y-70091750D01*
X173150070Y-70036011D01*
X173150070Y-69963989D01*
X173121670Y-69908251D01*
X173103676Y-69881320D01*
X173100939Y-69867562D01*
X173099678Y-69865087D01*
X173096672Y-69846114D01*
X173087500Y-69800000D01*
X173096672Y-69753888D01*
X173099678Y-69734912D01*
X173100939Y-69732435D01*
X173103676Y-69718680D01*
X173121668Y-69691752D01*
X173129596Y-69676193D01*
X173137035Y-69668753D01*
X173149740Y-69649740D01*
X173168753Y-69637035D01*
X173176193Y-69629596D01*
X173191752Y-69621668D01*
X173218680Y-69603676D01*
X173232435Y-69600939D01*
X173234912Y-69599678D01*
X173253888Y-69596672D01*
X173300000Y-69587500D01*
X173346114Y-69596672D01*
X173365087Y-69599678D01*
X173367562Y-69600939D01*
X173381320Y-69603676D01*
X173408251Y-69621670D01*
X173463989Y-69650070D01*
X173536011Y-69650070D01*
X173591750Y-69621669D01*
X173618680Y-69603676D01*
X173632435Y-69600939D01*
X173634912Y-69599678D01*
X173653888Y-69596672D01*
X173700000Y-69587500D01*
X173746114Y-69596672D01*
X173765087Y-69599678D01*
X173767562Y-69600939D01*
X173781320Y-69603676D01*
X173808251Y-69621670D01*
X173863989Y-69650070D01*
X173936011Y-69650070D01*
X173991750Y-69621669D01*
X174018680Y-69603676D01*
X174032435Y-69600939D01*
X174034912Y-69599678D01*
X174053888Y-69596672D01*
X174100000Y-69587500D01*
X174146114Y-69596672D01*
X174165087Y-69599678D01*
X174167562Y-69600939D01*
X174181320Y-69603676D01*
X174208251Y-69621670D01*
X174263989Y-69650070D01*
X174336011Y-69650070D01*
X174391750Y-69621669D01*
X174418680Y-69603676D01*
X174432435Y-69600939D01*
X174434912Y-69599678D01*
X174453888Y-69596672D01*
X174500000Y-69587500D01*
X174546114Y-69596672D01*
X174565087Y-69599678D01*
X174567562Y-69600939D01*
X174581320Y-69603676D01*
X174608251Y-69621670D01*
X174663989Y-69650070D01*
X174736011Y-69650070D01*
X174791750Y-69621669D01*
X174818680Y-69603676D01*
X174832435Y-69600939D01*
X174834912Y-69599678D01*
X174853888Y-69596672D01*
X174900000Y-69587500D01*
X174946114Y-69596672D01*
X174965087Y-69599678D01*
X174967562Y-69600939D01*
X174981320Y-69603676D01*
X175008251Y-69621670D01*
X175063989Y-69650070D01*
X175136011Y-69650070D01*
X175191750Y-69621669D01*
X175218680Y-69603676D01*
X175232435Y-69600939D01*
X175234912Y-69599678D01*
X175253888Y-69596672D01*
X175300000Y-69587500D01*
X175346114Y-69596672D01*
X175365087Y-69599678D01*
X175367562Y-69600939D01*
X175381320Y-69603676D01*
X175408251Y-69621670D01*
X175463989Y-69650070D01*
X175536011Y-69650070D01*
X175591750Y-69621669D01*
X175618680Y-69603676D01*
X175632435Y-69600939D01*
X175634912Y-69599678D01*
X175653888Y-69596672D01*
X175700000Y-69587500D01*
X175746114Y-69596672D01*
G37*
G36*
X170349246Y-69513828D02*
G01*
X170370355Y-69516607D01*
X170375664Y-69519082D01*
X170395056Y-69522940D01*
X170420740Y-69540101D01*
X170426181Y-69542639D01*
X170429491Y-69545949D01*
X170450208Y-69559792D01*
X170464051Y-69580510D01*
X170487868Y-69604327D01*
X170612132Y-69604327D01*
X170635948Y-69580509D01*
X170649792Y-69559792D01*
X170670505Y-69545951D01*
X170673818Y-69542639D01*
X170679262Y-69540100D01*
X170704944Y-69522940D01*
X170724333Y-69519083D01*
X170729644Y-69516607D01*
X170750756Y-69513827D01*
X170770000Y-69510000D01*
X171380000Y-69510000D01*
X171399246Y-69513828D01*
X171420355Y-69516607D01*
X171425664Y-69519082D01*
X171445056Y-69522940D01*
X171470740Y-69540101D01*
X171476181Y-69542639D01*
X171479491Y-69545949D01*
X171500208Y-69559792D01*
X171514050Y-69580508D01*
X171517360Y-69583818D01*
X171519896Y-69589257D01*
X171537060Y-69614944D01*
X171540917Y-69634337D01*
X171543392Y-69639644D01*
X171546169Y-69660741D01*
X171550000Y-69680000D01*
X171550000Y-69820000D01*
X171546168Y-69839261D01*
X171543392Y-69860355D01*
X171540917Y-69865660D01*
X171537060Y-69885056D01*
X171519894Y-69910745D01*
X171493781Y-69966746D01*
X171493781Y-70033254D01*
X171519895Y-70089255D01*
X171537060Y-70114944D01*
X171540917Y-70134337D01*
X171543392Y-70139644D01*
X171546169Y-70160741D01*
X171550000Y-70180000D01*
X171550000Y-70320000D01*
X171546168Y-70339261D01*
X171543392Y-70360355D01*
X171540917Y-70365660D01*
X171537060Y-70385056D01*
X171519894Y-70410745D01*
X171493781Y-70466746D01*
X171493781Y-70533254D01*
X171519895Y-70589255D01*
X171537060Y-70614944D01*
X171540917Y-70634337D01*
X171543392Y-70639644D01*
X171546169Y-70660741D01*
X171550000Y-70680000D01*
X171550000Y-70820000D01*
X171546168Y-70839261D01*
X171543392Y-70860355D01*
X171540917Y-70865661D01*
X171537060Y-70885056D01*
X171519894Y-70910745D01*
X171517360Y-70916181D01*
X171514052Y-70919488D01*
X171500208Y-70940208D01*
X171479488Y-70954052D01*
X171476181Y-70957360D01*
X171470745Y-70959894D01*
X171445056Y-70977060D01*
X171425661Y-70980917D01*
X171420355Y-70983392D01*
X171399260Y-70986168D01*
X171380000Y-70990000D01*
X170770000Y-70990000D01*
X170750740Y-70986169D01*
X170729644Y-70983392D01*
X170724337Y-70980917D01*
X170704944Y-70977060D01*
X170679257Y-70959896D01*
X170673818Y-70957360D01*
X170670508Y-70954050D01*
X170649792Y-70940208D01*
X170635949Y-70919491D01*
X170632640Y-70916182D01*
X170630103Y-70910743D01*
X170612940Y-70885056D01*
X170609082Y-70865659D01*
X170595561Y-70836663D01*
X170404439Y-70836663D01*
X170390918Y-70865658D01*
X170387060Y-70885056D01*
X170369892Y-70910747D01*
X170367359Y-70916182D01*
X170364052Y-70919488D01*
X170350208Y-70940208D01*
X170329488Y-70954052D01*
X170326181Y-70957360D01*
X170320745Y-70959894D01*
X170295056Y-70977060D01*
X170275661Y-70980917D01*
X170270355Y-70983392D01*
X170249260Y-70986168D01*
X170230000Y-70990000D01*
X169620000Y-70990000D01*
X169600740Y-70986169D01*
X169579644Y-70983392D01*
X169574337Y-70980917D01*
X169554944Y-70977060D01*
X169529257Y-70959896D01*
X169523818Y-70957360D01*
X169520508Y-70954050D01*
X169499792Y-70940208D01*
X169485949Y-70919491D01*
X169482639Y-70916181D01*
X169480101Y-70910740D01*
X169462940Y-70885056D01*
X169459082Y-70865664D01*
X169456607Y-70860355D01*
X169453828Y-70839245D01*
X169450000Y-70820000D01*
X169450000Y-70680000D01*
X169453828Y-70660754D01*
X169456607Y-70639645D01*
X169459082Y-70634335D01*
X169462940Y-70614944D01*
X169480101Y-70589260D01*
X169506218Y-70533253D01*
X169506218Y-70466747D01*
X169506217Y-70466745D01*
X170343781Y-70466745D01*
X170343781Y-70533259D01*
X170369898Y-70589261D01*
X170387060Y-70614944D01*
X170390914Y-70634322D01*
X170404447Y-70663339D01*
X170595562Y-70663333D01*
X170609082Y-70634337D01*
X170612940Y-70614944D01*
X170630103Y-70589257D01*
X170656218Y-70533254D01*
X170656218Y-70466750D01*
X170630105Y-70410744D01*
X170612940Y-70385056D01*
X170609080Y-70365653D01*
X170595565Y-70336666D01*
X170404444Y-70336660D01*
X170390916Y-70365668D01*
X170387060Y-70385056D01*
X170369897Y-70410741D01*
X170343781Y-70466745D01*
X169506217Y-70466745D01*
X169480102Y-70410740D01*
X169462940Y-70385056D01*
X169459082Y-70365663D01*
X169456607Y-70360354D01*
X169453828Y-70339246D01*
X169450000Y-70320000D01*
X169450000Y-70180000D01*
X169453828Y-70160754D01*
X169456607Y-70139645D01*
X169459082Y-70134335D01*
X169462940Y-70114944D01*
X169480101Y-70089260D01*
X169506218Y-70033253D01*
X169506218Y-69966747D01*
X169480102Y-69910740D01*
X169462940Y-69885056D01*
X169459082Y-69865663D01*
X169456607Y-69860354D01*
X169453828Y-69839246D01*
X169450000Y-69820000D01*
X169450000Y-69680000D01*
X169453827Y-69660755D01*
X169456607Y-69639644D01*
X169459083Y-69634333D01*
X169462940Y-69614944D01*
X169480100Y-69589262D01*
X169482639Y-69583818D01*
X169485951Y-69580505D01*
X169499792Y-69559792D01*
X169520505Y-69545951D01*
X169523818Y-69542639D01*
X169529262Y-69540100D01*
X169554944Y-69522940D01*
X169574333Y-69519083D01*
X169579644Y-69516607D01*
X169600757Y-69513827D01*
X169620000Y-69510000D01*
X170330000Y-69510000D01*
X170349246Y-69513828D01*
G37*
G36*
X168026472Y-68653485D02*
G01*
X168120072Y-68663048D01*
X168133893Y-68667627D01*
X168155291Y-68670445D01*
X168206867Y-68691808D01*
X168253139Y-68707141D01*
X168272061Y-68718812D01*
X168300000Y-68730385D01*
X168337604Y-68759239D01*
X168371510Y-68780153D01*
X168393444Y-68802087D01*
X168424264Y-68825736D01*
X168447912Y-68856555D01*
X168469846Y-68878489D01*
X168490758Y-68912393D01*
X168519615Y-68950000D01*
X168531188Y-68977940D01*
X168542858Y-68996860D01*
X168558188Y-69043124D01*
X168579555Y-69094709D01*
X168582372Y-69116109D01*
X168586951Y-69129927D01*
X168596510Y-69223497D01*
X168600000Y-69250000D01*
X168600000Y-70250000D01*
X168596510Y-70276506D01*
X168586951Y-70370072D01*
X168582372Y-70383888D01*
X168579555Y-70405291D01*
X168558186Y-70456879D01*
X168542858Y-70503139D01*
X168531189Y-70522056D01*
X168519615Y-70550000D01*
X168490755Y-70587610D01*
X168469846Y-70621510D01*
X168447916Y-70643439D01*
X168424264Y-70674264D01*
X168393439Y-70697916D01*
X168371510Y-70719846D01*
X168337610Y-70740755D01*
X168300000Y-70769615D01*
X168272056Y-70781189D01*
X168253139Y-70792858D01*
X168206879Y-70808186D01*
X168155291Y-70829555D01*
X168133888Y-70832372D01*
X168120072Y-70836951D01*
X168026506Y-70846510D01*
X168000000Y-70850000D01*
X166000000Y-70850000D01*
X165973497Y-70846510D01*
X165879927Y-70836951D01*
X165866109Y-70832372D01*
X165844709Y-70829555D01*
X165793124Y-70808188D01*
X165746860Y-70792858D01*
X165727940Y-70781188D01*
X165700000Y-70769615D01*
X165662393Y-70740758D01*
X165628489Y-70719846D01*
X165606555Y-70697912D01*
X165575736Y-70674264D01*
X165552087Y-70643444D01*
X165530153Y-70621510D01*
X165509239Y-70587604D01*
X165480385Y-70550000D01*
X165468812Y-70522061D01*
X165457141Y-70503139D01*
X165441808Y-70456867D01*
X165420445Y-70405291D01*
X165417627Y-70383893D01*
X165413048Y-70370072D01*
X165403485Y-70276472D01*
X165400000Y-70250000D01*
X165400000Y-69250000D01*
X165403484Y-69223531D01*
X165413048Y-69129927D01*
X165417628Y-69116104D01*
X165420445Y-69094709D01*
X165441806Y-69043136D01*
X165457141Y-68996860D01*
X165468813Y-68977935D01*
X165480385Y-68950000D01*
X165509236Y-68912399D01*
X165530153Y-68878489D01*
X165552090Y-68856551D01*
X165575736Y-68825736D01*
X165606551Y-68802090D01*
X165628489Y-68780153D01*
X165662399Y-68759236D01*
X165700000Y-68730385D01*
X165727935Y-68718813D01*
X165746860Y-68707141D01*
X165793136Y-68691806D01*
X165844709Y-68670445D01*
X165866104Y-68667628D01*
X165879927Y-68663048D01*
X165973531Y-68653484D01*
X166000000Y-68650000D01*
X168000000Y-68650000D01*
X168026472Y-68653485D01*
G37*
M02*
