%TF.GenerationSoftware,KiCad,Pcbnew,8.0.5*%
%TF.CreationDate,2024-10-26T10:21:32-07:00*%
%TF.ProjectId,cc-ring,63632d72-696e-4672-9e6b-696361645f70,rev?*%
%TF.SameCoordinates,Original*%
%TF.FileFunction,Profile,NP*%
%FSLAX46Y46*%
G04 Gerber Fmt 4.6, Leading zero omitted, Abs format (unit mm)*
G04 Created by KiCad (PCBNEW 8.0.5) date 2024-10-26 10:21:32*
%MOMM*%
%LPD*%
G01*
G04 APERTURE LIST*
%TA.AperFunction,Profile*%
%ADD10C,0.050000*%
%TD*%
G04 APERTURE END LIST*
D10*
X189149999Y-72749999D02*
X185000000Y-72750000D01*
X189150000Y-69250001D02*
X185000000Y-69250000D01*
X191350000Y-72749999D02*
G75*
G02*
X189149999Y-72749999I-1100000J1749999D01*
G01*
X189150000Y-69250001D02*
G75*
G02*
X191350000Y-69250001I1100000J-1749999D01*
G01*
X184250000Y-72000000D02*
G75*
G02*
X184500000Y-72250000I0J-250000D01*
G01*
X180750000Y-73000000D02*
G75*
G02*
X180000000Y-73750000I-750000J0D01*
G01*
X181250000Y-70000000D02*
X184250000Y-70000000D01*
X184250000Y-72000000D02*
X181250000Y-72000000D01*
X180750000Y-72500000D02*
G75*
G02*
X181250000Y-72000000I500000J0D01*
G01*
X191350000Y-69250001D02*
X239500000Y-69250000D01*
X165000000Y-73000000D02*
X165000000Y-69000000D01*
X180000000Y-73750000D02*
X165750000Y-73750000D01*
X185000000Y-72750000D02*
G75*
G02*
X184500000Y-72250000I0J500000D01*
G01*
X180000000Y-68250000D02*
G75*
G02*
X180750000Y-69000000I0J-750000D01*
G01*
X181250000Y-70000000D02*
G75*
G02*
X180750000Y-69500000I0J500000D01*
G01*
X240000000Y-69750000D02*
X240000000Y-72250000D01*
X239500000Y-72750000D02*
X191350000Y-72749999D01*
X165000000Y-69000000D02*
G75*
G02*
X165750000Y-68250000I750000J0D01*
G01*
X180750000Y-69500000D02*
X180750000Y-69000000D01*
X184500000Y-69750000D02*
G75*
G02*
X185000000Y-69250000I500000J0D01*
G01*
X240000000Y-72250000D02*
G75*
G02*
X239500000Y-72750000I-500000J0D01*
G01*
X184500000Y-69750000D02*
G75*
G02*
X184250000Y-70000000I-250000J0D01*
G01*
X180750000Y-72500000D02*
X180750000Y-73000000D01*
X239500000Y-69250000D02*
G75*
G02*
X240000000Y-69750000I0J-500000D01*
G01*
X165750000Y-73750000D02*
G75*
G02*
X165000000Y-73000000I0J750000D01*
G01*
X165750000Y-68250000D02*
X180000000Y-68250000D01*
M02*
