%TF.GenerationSoftware,KiCad,Pcbnew,8.0.6*%
%TF.CreationDate,2024-11-02T14:47:31-07:00*%
%TF.ProjectId,cc-ring,63632d72-696e-4672-9e6b-696361645f70,rev?*%
%TF.SameCoordinates,Original*%
%TF.FileFunction,Legend,Bot*%
%TF.FilePolarity,Positive*%
%FSLAX46Y46*%
G04 Gerber Fmt 4.6, Leading zero omitted, Abs format (unit mm)*
G04 Created by KiCad (PCBNEW 8.0.6) date 2024-11-02 14:47:31*
%MOMM*%
%LPD*%
G01*
G04 APERTURE LIST*
G04 Aperture macros list*
%AMRoundRect*
0 Rectangle with rounded corners*
0 $1 Rounding radius*
0 $2 $3 $4 $5 $6 $7 $8 $9 X,Y pos of 4 corners*
0 Add a 4 corners polygon primitive as box body*
4,1,4,$2,$3,$4,$5,$6,$7,$8,$9,$2,$3,0*
0 Add four circle primitives for the rounded corners*
1,1,$1+$1,$2,$3*
1,1,$1+$1,$4,$5*
1,1,$1+$1,$6,$7*
1,1,$1+$1,$8,$9*
0 Add four rect primitives between the rounded corners*
20,1,$1+$1,$2,$3,$4,$5,0*
20,1,$1+$1,$4,$5,$6,$7,0*
20,1,$1+$1,$6,$7,$8,$9,0*
20,1,$1+$1,$8,$9,$2,$3,0*%
G04 Aperture macros list end*
%ADD10C,0.177800*%
%ADD11C,0.120000*%
%ADD12C,0.200000*%
%ADD13C,0.100000*%
%ADD14C,0.000000*%
%ADD15RoundRect,0.250000X0.250000X0.250000X-0.250000X0.250000X-0.250000X-0.250000X0.250000X-0.250000X0*%
%ADD16C,1.200000*%
%ADD17C,0.700000*%
%ADD18RoundRect,0.197500X0.197500X0.222500X-0.197500X0.222500X-0.197500X-0.222500X0.197500X-0.222500X0*%
%ADD19RoundRect,0.100000X0.350000X0.350000X-0.350000X0.350000X-0.350000X-0.350000X0.350000X-0.350000X0*%
%ADD20RoundRect,0.190000X0.220000X-0.190000X0.220000X0.190000X-0.220000X0.190000X-0.220000X-0.190000X0*%
%ADD21RoundRect,0.190000X-0.220000X0.190000X-0.220000X-0.190000X0.220000X-0.190000X0.220000X0.190000X0*%
%ADD22RoundRect,0.190000X0.190000X0.220000X-0.190000X0.220000X-0.190000X-0.220000X0.190000X-0.220000X0*%
%ADD23RoundRect,0.185000X0.235000X-0.185000X0.235000X0.185000X-0.235000X0.185000X-0.235000X-0.185000X0*%
%ADD24RoundRect,0.185000X-0.235000X0.185000X-0.235000X-0.185000X0.235000X-0.185000X0.235000X0.185000X0*%
%ADD25RoundRect,0.550000X1.050000X0.550000X-1.050000X0.550000X-1.050000X-0.550000X1.050000X-0.550000X0*%
%ADD26RoundRect,0.190000X-0.190000X-0.220000X0.190000X-0.220000X0.190000X0.220000X-0.190000X0.220000X0*%
G04 APERTURE END LIST*
D10*
%TO.C,U4*%
X177653801Y-69720319D02*
X177653801Y-69920319D01*
X177653801Y-71279681D02*
X177653801Y-71479681D01*
X177853801Y-69720319D02*
X177653801Y-69720319D01*
X177853801Y-71479681D02*
X177653801Y-71479681D01*
X179046199Y-69720319D02*
X178846199Y-69720319D01*
X179046199Y-69720319D02*
X179046199Y-69920319D01*
X179046199Y-71029999D02*
X179046199Y-71479681D01*
X179046199Y-71479681D02*
X178560000Y-71479681D01*
D11*
%TO.C,J2*%
X168880000Y-70630000D02*
X169630000Y-70630000D01*
X168880000Y-71380000D02*
X168880000Y-70630000D01*
D12*
X171850000Y-71000000D02*
G75*
G02*
X171650000Y-71000000I-100000J0D01*
G01*
X171650000Y-71000000D02*
G75*
G02*
X171850000Y-71000000I100000J0D01*
G01*
D13*
%TO.C,D9*%
X178570000Y-72160000D02*
G75*
G02*
X178470000Y-72160000I-50000J0D01*
G01*
X178470000Y-72160000D02*
G75*
G02*
X178570000Y-72160000I50000J0D01*
G01*
D11*
%TO.C,D8*%
X212830000Y-69850000D02*
X215670000Y-69850000D01*
X212830000Y-72150000D02*
X215670000Y-72150000D01*
X215670000Y-70500000D02*
X215670000Y-69850000D01*
%TO.C,C14*%
X179250000Y-70862164D02*
X179250000Y-71077836D01*
X179970000Y-70862164D02*
X179970000Y-71077836D01*
%TO.C,C7*%
X187890000Y-71107836D02*
X187890000Y-70892164D01*
X188610000Y-71107836D02*
X188610000Y-70892164D01*
%TO.C,C5*%
X174892164Y-69640000D02*
X175107836Y-69640000D01*
X174892164Y-70360000D02*
X175107836Y-70360000D01*
%TO.C,R3*%
X170120000Y-69346359D02*
X170120000Y-69653641D01*
X170880000Y-69346359D02*
X170880000Y-69653641D01*
%TO.C,C3*%
X175140000Y-71392164D02*
X175140000Y-71607836D01*
X175860000Y-71392164D02*
X175860000Y-71607836D01*
%TO.C,C9*%
X203890000Y-71107836D02*
X203890000Y-70892164D01*
X204610000Y-71107836D02*
X204610000Y-70892164D01*
%TO.C,D5*%
X200830000Y-69850000D02*
X203670000Y-69850000D01*
X200830000Y-72150000D02*
X203670000Y-72150000D01*
X203670000Y-70500000D02*
X203670000Y-69850000D01*
%TO.C,R2*%
X191870000Y-71153641D02*
X191870000Y-70846359D01*
X192630000Y-71153641D02*
X192630000Y-70846359D01*
%TO.C,C12*%
X227890000Y-71107836D02*
X227890000Y-70892164D01*
X228610000Y-71107836D02*
X228610000Y-70892164D01*
%TO.C,D13*%
X224830000Y-69850000D02*
X227670000Y-69850000D01*
X224830000Y-72150000D02*
X227670000Y-72150000D01*
X227670000Y-70500000D02*
X227670000Y-69850000D01*
%TO.C,D2*%
X188830000Y-69850000D02*
X191670000Y-69850000D01*
X188830000Y-72150000D02*
X191670000Y-72150000D01*
X191670000Y-70500000D02*
X191670000Y-69850000D01*
%TO.C,C2*%
X173140000Y-70607836D02*
X173140000Y-70392164D01*
X173860000Y-70607836D02*
X173860000Y-70392164D01*
%TO.C,D14*%
X228830000Y-69850000D02*
X231670000Y-69850000D01*
X228830000Y-72150000D02*
X231670000Y-72150000D01*
X231670000Y-70500000D02*
X231670000Y-69850000D01*
%TO.C,C1*%
X171140000Y-69607836D02*
X171140000Y-69392164D01*
X171860000Y-69607836D02*
X171860000Y-69392164D01*
%TO.C,C8*%
X195890000Y-71107836D02*
X195890000Y-70892164D01*
X196610000Y-71107836D02*
X196610000Y-70892164D01*
%TO.C,C6*%
X178392164Y-68710000D02*
X178607836Y-68710000D01*
X178392164Y-69430000D02*
X178607836Y-69430000D01*
%TO.C,C13*%
X219890000Y-71107836D02*
X219890000Y-70892164D01*
X220610000Y-71107836D02*
X220610000Y-70892164D01*
%TO.C,D16*%
X236830000Y-69850000D02*
X239670000Y-69850000D01*
X236830000Y-72150000D02*
X239670000Y-72150000D01*
X239670000Y-70500000D02*
X239670000Y-69850000D01*
%TO.C,D7*%
X208830000Y-69850000D02*
X211670000Y-69850000D01*
X208830000Y-72150000D02*
X211670000Y-72150000D01*
X211670000Y-70500000D02*
X211670000Y-69850000D01*
%TO.C,D15*%
X232830000Y-69850000D02*
X235670000Y-69850000D01*
X232830000Y-72150000D02*
X235670000Y-72150000D01*
X235670000Y-70500000D02*
X235670000Y-69850000D01*
%TO.C,C15*%
X176740000Y-70107836D02*
X176740000Y-69892164D01*
X177460000Y-70107836D02*
X177460000Y-69892164D01*
%TO.C,D4*%
X196830000Y-69850000D02*
X199670000Y-69850000D01*
X196830000Y-72150000D02*
X199670000Y-72150000D01*
X199670000Y-70500000D02*
X199670000Y-69850000D01*
%TO.C,C11*%
X235890000Y-71107836D02*
X235890000Y-70892164D01*
X236610000Y-71107836D02*
X236610000Y-70892164D01*
%TO.C,D1*%
X184830000Y-69850000D02*
X187670000Y-69850000D01*
X184830000Y-72150000D02*
X187670000Y-72150000D01*
X187670000Y-70500000D02*
X187670000Y-69850000D01*
%TO.C,D6*%
X204830000Y-69850000D02*
X207670000Y-69850000D01*
X204830000Y-72150000D02*
X207670000Y-72150000D01*
X207670000Y-70500000D02*
X207670000Y-69850000D01*
%TO.C,D12*%
X220830000Y-69850000D02*
X223670000Y-69850000D01*
X220830000Y-72150000D02*
X223670000Y-72150000D01*
X223670000Y-70500000D02*
X223670000Y-69850000D01*
%TO.C,D11*%
X216830000Y-69850000D02*
X219670000Y-69850000D01*
X216830000Y-72150000D02*
X219670000Y-72150000D01*
X219670000Y-70500000D02*
X219670000Y-69850000D01*
%TO.C,C4*%
X174107836Y-71640000D02*
X173892164Y-71640000D01*
X174107836Y-72360000D02*
X173892164Y-72360000D01*
%TO.C,D3*%
X192830000Y-69850000D02*
X195670000Y-69850000D01*
X192830000Y-72150000D02*
X195670000Y-72150000D01*
X195670000Y-70500000D02*
X195670000Y-69850000D01*
%TO.C,C10*%
X211890000Y-71107836D02*
X211890000Y-70892164D01*
X212610000Y-71107836D02*
X212610000Y-70892164D01*
%TD*%
%LPC*%
D14*
%TO.C,U4*%
G36*
X178129998Y-70170006D02*
G01*
X177950003Y-70350000D01*
X177919998Y-70350000D01*
X177919998Y-69990001D01*
X178129998Y-69990001D01*
X178129998Y-70170006D01*
G37*
G36*
X178129998Y-71029994D02*
G01*
X178129998Y-71209999D01*
X177919998Y-71209999D01*
X177919998Y-70850000D01*
X177950003Y-70850000D01*
X178129998Y-71029994D01*
G37*
G36*
X178780002Y-70350000D02*
G01*
X178749997Y-70350000D01*
X178570002Y-70170006D01*
X178570002Y-69990001D01*
X178780002Y-69990001D01*
X178780002Y-70350000D01*
G37*
G36*
X178780002Y-71209999D02*
G01*
X178570002Y-71209999D01*
X178570002Y-71029994D01*
X178749997Y-70850000D01*
X178780002Y-70850000D01*
X178780002Y-71209999D01*
G37*
%TD*%
D15*
%TO.C,J2*%
X171135000Y-71550000D03*
D16*
X169865000Y-71615000D03*
D15*
X171135000Y-72950000D03*
D16*
X169865000Y-72885000D03*
%TD*%
D17*
%TO.C,MK1*%
X179000000Y-72270000D03*
%TD*%
D18*
%TO.C,D9*%
X177915000Y-72160000D03*
X176945000Y-72160000D03*
%TD*%
D19*
%TO.C,D8*%
X215165000Y-70450000D03*
X215165000Y-71550000D03*
X213335000Y-71550000D03*
X213335000Y-70450000D03*
%TD*%
D20*
%TO.C,C14*%
X179610000Y-71450000D03*
X179610000Y-70490000D03*
%TD*%
D21*
%TO.C,C7*%
X188250000Y-70520000D03*
X188250000Y-71480000D03*
%TD*%
D22*
%TO.C,C5*%
X175480000Y-70000000D03*
X174520000Y-70000000D03*
%TD*%
D23*
%TO.C,R3*%
X170500000Y-70010000D03*
X170500000Y-68990000D03*
%TD*%
D20*
%TO.C,C3*%
X175500000Y-71980000D03*
X175500000Y-71020000D03*
%TD*%
D21*
%TO.C,C9*%
X204250000Y-70520000D03*
X204250000Y-71480000D03*
%TD*%
D19*
%TO.C,D5*%
X203165000Y-70450000D03*
X203165000Y-71550000D03*
X201335000Y-71550000D03*
X201335000Y-70450000D03*
%TD*%
D24*
%TO.C,R2*%
X192250000Y-70490000D03*
X192250000Y-71510000D03*
%TD*%
D21*
%TO.C,C12*%
X228250000Y-70520000D03*
X228250000Y-71480000D03*
%TD*%
D19*
%TO.C,D13*%
X227165000Y-70450000D03*
X227165000Y-71550000D03*
X225335000Y-71550000D03*
X225335000Y-70450000D03*
%TD*%
%TO.C,D2*%
X191165000Y-70450000D03*
X191165000Y-71550000D03*
X189335000Y-71550000D03*
X189335000Y-70450000D03*
%TD*%
D21*
%TO.C,C2*%
X173500000Y-70020000D03*
X173500000Y-70980000D03*
%TD*%
D19*
%TO.C,D14*%
X231165000Y-70450000D03*
X231165000Y-71550000D03*
X229335000Y-71550000D03*
X229335000Y-70450000D03*
%TD*%
D21*
%TO.C,C1*%
X171500000Y-69020000D03*
X171500000Y-69980000D03*
%TD*%
%TO.C,C8*%
X196250000Y-70520000D03*
X196250000Y-71480000D03*
%TD*%
D22*
%TO.C,C6*%
X178980000Y-69070000D03*
X178020000Y-69070000D03*
%TD*%
D21*
%TO.C,C13*%
X220250000Y-70520000D03*
X220250000Y-71480000D03*
%TD*%
D25*
%TO.C,J3*%
X167000000Y-69750000D03*
X167000000Y-72250000D03*
%TD*%
D19*
%TO.C,D16*%
X239165000Y-70450000D03*
X239165000Y-71550000D03*
X237335000Y-71550000D03*
X237335000Y-70450000D03*
%TD*%
%TO.C,D7*%
X211165000Y-70450000D03*
X211165000Y-71550000D03*
X209335000Y-71550000D03*
X209335000Y-70450000D03*
%TD*%
%TO.C,D15*%
X235165000Y-70450000D03*
X235165000Y-71550000D03*
X233335000Y-71550000D03*
X233335000Y-70450000D03*
%TD*%
D21*
%TO.C,C15*%
X177100000Y-69520000D03*
X177100000Y-70480000D03*
%TD*%
D19*
%TO.C,D4*%
X199165000Y-70450000D03*
X199165000Y-71550000D03*
X197335000Y-71550000D03*
X197335000Y-70450000D03*
%TD*%
D21*
%TO.C,C11*%
X236250000Y-70520000D03*
X236250000Y-71480000D03*
%TD*%
D19*
%TO.C,D1*%
X187165000Y-70450000D03*
X187165000Y-71550000D03*
X185335000Y-71550000D03*
X185335000Y-70450000D03*
%TD*%
%TO.C,D6*%
X207165000Y-70450000D03*
X207165000Y-71550000D03*
X205335000Y-71550000D03*
X205335000Y-70450000D03*
%TD*%
%TO.C,D12*%
X223165000Y-70450000D03*
X223165000Y-71550000D03*
X221335000Y-71550000D03*
X221335000Y-70450000D03*
%TD*%
%TO.C,D11*%
X219165000Y-70450000D03*
X219165000Y-71550000D03*
X217335000Y-71550000D03*
X217335000Y-70450000D03*
%TD*%
D26*
%TO.C,C4*%
X173520000Y-72000000D03*
X174480000Y-72000000D03*
%TD*%
D19*
%TO.C,D3*%
X195165000Y-70450000D03*
X195165000Y-71550000D03*
X193335000Y-71550000D03*
X193335000Y-70450000D03*
%TD*%
D21*
%TO.C,C10*%
X212250000Y-70520000D03*
X212250000Y-71480000D03*
%TD*%
%LPD*%
M02*
