M48
; DRILL file {KiCad 8.0.5} date 2024-10-26T16:12:01-0700
; FORMAT={-:-/ absolute / metric / decimal}
; #@! TF.CreationDate,2024-10-26T16:12:01-07:00
; #@! TF.GenerationSoftware,Kicad,Pcbnew,8.0.5
; #@! TF.FileFunction,Plated,1,2,PTH
FMAT,2
METRIC
; #@! TA.AperFunction,Plated,PTH,ViaDrill
T1C0.150
%
G90
G05
T1
X167.0Y-69.75
X167.0Y-72.25
X168.9Y-69.7
X168.9Y-73.2
X169.2Y-72.3
X169.79Y-68.915
X171.72Y-70.52
X171.8Y-71.04
X171.968Y-71.59
X172.0Y-73.2
X172.1Y-69.75
X172.2Y-68.915
X172.245Y-71.235
X172.39Y-72.45
X172.7Y-69.3
X172.87Y-72.01
X172.9Y-70.53
X172.95Y-69.99
X173.5Y-73.2
X173.75Y-69.3
X174.3Y-72.59
X174.7Y-69.42
X175.2Y-73.2
X176.15Y-71.98
X176.155Y-69.732
X176.2Y-71.04
X176.5Y-72.5
X176.784Y-70.204
X176.9Y-68.8
X177.8Y-72.8
X179.55Y-69.14
X180.1Y-68.9
X180.169Y-73.214
X180.2Y-71.7
X180.6Y-71.13
X181.7Y-71.1
X183.0Y-71.1
X184.25Y-71.1
X188.25Y-72.25
X190.46Y-71.92
X196.25Y-72.25
X200.25Y-71.75
X204.25Y-72.25
X208.25Y-71.75
X212.25Y-72.25
X216.25Y-71.75
X220.25Y-72.25
X224.25Y-71.75
X228.25Y-72.25
X232.25Y-71.75
X236.25Y-72.25
M30
