M48
; DRILL file {KiCad 8.0.6} date 2024-11-02T14:47:33-0700
; FORMAT={-:-/ absolute / metric / decimal}
; #@! TF.CreationDate,2024-11-02T14:47:33-07:00
; #@! TF.GenerationSoftware,Kicad,Pcbnew,8.0.6
; #@! TF.FileFunction,Plated,1,2,PTH
FMAT,2
METRIC
; #@! TA.AperFunction,Plated,PTH,ViaDrill
T1C0.150
%
G90
G05
T1
X167.0Y-69.75
X167.0Y-72.25
X168.9Y-69.7
X169.005Y-73.048
X169.17Y-71.05
X169.2Y-72.3
X169.56Y-68.98
X171.79Y-70.5
X171.83Y-71.01
X171.968Y-71.59
X172.0Y-73.2
X172.18Y-69.65
X172.245Y-71.235
X172.364Y-68.75
X172.39Y-72.45
X172.7Y-69.3
X172.82Y-70.49
X172.838Y-69.99
X172.93Y-72.22
X173.5Y-73.2
X173.75Y-69.3
X174.31Y-72.74
X174.99Y-73.25
X175.012Y-69.311
X176.15Y-71.98
X176.155Y-69.732
X176.2Y-71.04
X176.9Y-68.8
X176.94Y-72.74
X177.38Y-69.79
X177.5Y-71.0
X177.5Y-72.94
X179.55Y-69.14
X180.0Y-72.63
X180.1Y-68.9
X180.169Y-73.214
X180.28Y-71.76
X180.6Y-71.4
X181.03Y-71.1
X181.7Y-71.1
X183.0Y-71.1
X184.25Y-71.1
X186.52Y-71.56
X187.8Y-72.0
X190.482Y-70.972
X191.4Y-71.68
X194.01Y-72.23
X194.55Y-71.6
X195.81Y-72.04
X198.26Y-71.57
X200.25Y-71.75
X202.49Y-71.5
X203.83Y-72.04
X206.24Y-71.54
X208.25Y-71.75
X210.54Y-71.54
X211.82Y-72.0
X214.3Y-71.54
X216.25Y-71.75
X218.61Y-71.57
X219.8Y-72.01
X222.22Y-71.64
X224.25Y-71.75
X226.57Y-71.58
X227.82Y-72.03
X230.24Y-71.61
X232.25Y-71.75
X234.54Y-71.58
X235.83Y-72.01
X238.29Y-69.88
X238.37Y-71.6
M30
