%TF.GenerationSoftware,KiCad,Pcbnew,8.0.5*%
%TF.CreationDate,2024-10-26T10:21:32-07:00*%
%TF.ProjectId,cc-ring,63632d72-696e-4672-9e6b-696361645f70,rev?*%
%TF.SameCoordinates,Original*%
%TF.FileFunction,Copper,L1,Top*%
%TF.FilePolarity,Positive*%
%FSLAX46Y46*%
G04 Gerber Fmt 4.6, Leading zero omitted, Abs format (unit mm)*
G04 Created by KiCad (PCBNEW 8.0.5) date 2024-10-26 10:21:32*
%MOMM*%
%LPD*%
G01*
G04 APERTURE LIST*
G04 Aperture macros list*
%AMRoundRect*
0 Rectangle with rounded corners*
0 $1 Rounding radius*
0 $2 $3 $4 $5 $6 $7 $8 $9 X,Y pos of 4 corners*
0 Add a 4 corners polygon primitive as box body*
4,1,4,$2,$3,$4,$5,$6,$7,$8,$9,$2,$3,0*
0 Add four circle primitives for the rounded corners*
1,1,$1+$1,$2,$3*
1,1,$1+$1,$4,$5*
1,1,$1+$1,$6,$7*
1,1,$1+$1,$8,$9*
0 Add four rect primitives between the rounded corners*
20,1,$1+$1,$2,$3,$4,$5,0*
20,1,$1+$1,$4,$5,$6,$7,0*
20,1,$1+$1,$6,$7,$8,$9,0*
20,1,$1+$1,$8,$9,$2,$3,0*%
%AMFreePoly0*
4,1,88,-1.238810,1.732880,-0.983455,1.674597,-0.739639,1.578906,-0.512808,1.447945,-0.308029,1.284639,-0.129877,1.092637,0.017669,0.876227,0.131313,0.640243,0.208516,0.389958,0.247553,0.130961,0.250000,0.000000,0.249224,0.000000,0.247151,-0.110927,0.208114,-0.369924,0.130911,-0.620209,0.017267,-0.856193,-0.130279,-1.072603,-0.308431,-1.264605,-0.513210,-1.427911,-0.740041,-1.558872,
-0.983857,-1.654563,-1.239212,-1.712846,-1.500402,-1.732420,-1.761592,-1.712846,-2.016947,-1.654563,-2.260763,-1.558872,-2.487594,-1.427911,-2.692373,-1.264605,-2.870525,-1.072603,-3.018071,-0.856193,-3.131715,-0.620209,-3.208918,-0.369924,-3.247955,-0.110927,-3.250042,0.000790,-2.749982,0.000790,-2.748024,-0.089119,-2.710115,-0.304108,-2.635451,-0.509248,-2.526298,-0.698306,-2.385974,-0.865538,
-2.218742,-1.005862,-2.029684,-1.115015,-1.824544,-1.189679,-1.609555,-1.227588,-1.391249,-1.227588,-1.176260,-1.189679,-0.971120,-1.115015,-0.782062,-1.005862,-0.614830,-0.865538,-0.474506,-0.698306,-0.365353,-0.509248,-0.290689,-0.304108,-0.252780,-0.089119,-0.250419,0.019243,-0.252378,0.109153,-0.290287,0.324142,-0.364951,0.529282,-0.474104,0.718340,-0.614428,0.885572,-0.781660,1.025896,
-0.970718,1.135049,-1.175858,1.209713,-1.390847,1.247622,-1.609153,1.247622,-1.824142,1.209713,-2.029282,1.135049,-2.218340,1.025896,-2.385572,0.885572,-2.525896,0.718340,-2.635049,0.529282,-2.709713,0.324142,-2.747622,0.109153,-2.749982,0.000790,-3.250042,0.000790,-3.250402,0.020034,-3.249626,0.020034,-3.247553,0.130961,-3.208516,0.389958,-3.131313,0.640243,-3.017669,0.876227,
-2.870123,1.092637,-2.691971,1.284639,-2.487192,1.447945,-2.260361,1.578906,-2.016545,1.674597,-1.761190,1.732880,-1.500000,1.752454,-1.238810,1.732880,-1.238810,1.732880,$1*%
%AMFreePoly1*
4,1,53,0.180798,1.454629,0.352531,1.394537,0.506585,1.297738,0.635238,1.169085,0.732037,1.015031,0.792129,0.843298,0.812500,0.662500,0.792129,0.481702,0.732037,0.309969,0.635238,0.155915,0.506585,0.027262,0.352531,-0.069537,0.180798,-0.129629,0.000000,-0.150000,-0.180798,-0.129629,-0.352531,-0.069537,-0.506585,0.027262,-0.635238,0.155915,-0.732037,0.309969,-0.792129,0.481702,
-0.812500,0.662500,-0.517770,0.662500,-0.496797,0.516627,-0.435576,0.382572,-0.339067,0.271196,-0.215089,0.191520,-0.073686,0.150000,0.073686,0.150000,0.215089,0.191520,0.339067,0.271196,0.435576,0.382572,0.496797,0.516627,0.517770,0.662500,0.496797,0.808373,0.435576,0.942428,0.339067,1.053804,0.215089,1.133480,0.073686,1.175000,-0.073686,1.175000,-0.215089,1.133480,
-0.339067,1.053804,-0.435576,0.942428,-0.496797,0.808373,-0.517770,0.662500,-0.812500,0.662500,-0.792129,0.843298,-0.732037,1.015031,-0.635238,1.169085,-0.506585,1.297738,-0.352531,1.394537,-0.180798,1.454629,0.000000,1.475000,0.180798,1.454629,0.180798,1.454629,$1*%
G04 Aperture macros list end*
%TA.AperFunction,SMDPad,CuDef*%
%ADD10C,1.500000*%
%TD*%
%TA.AperFunction,SMDPad,CuDef*%
%ADD11FreePoly0,0.000000*%
%TD*%
%TA.AperFunction,BGAPad,CuDef*%
%ADD12C,0.225000*%
%TD*%
%TA.AperFunction,SMDPad,CuDef*%
%ADD13RoundRect,0.500000X1.000000X0.500000X-1.000000X0.500000X-1.000000X-0.500000X1.000000X-0.500000X0*%
%TD*%
%TA.AperFunction,SMDPad,CuDef*%
%ADD14C,0.299999*%
%TD*%
%TA.AperFunction,SMDPad,CuDef*%
%ADD15RoundRect,0.070000X-0.355000X0.070000X-0.355000X-0.070000X0.355000X-0.070000X0.355000X0.070000X0*%
%TD*%
%TA.AperFunction,SMDPad,CuDef*%
%ADD16RoundRect,0.070000X-0.305000X0.070000X-0.305000X-0.070000X0.305000X-0.070000X0.305000X0.070000X0*%
%TD*%
%TA.AperFunction,SMDPad,CuDef*%
%ADD17R,0.725000X0.522000*%
%TD*%
%TA.AperFunction,SMDPad,CuDef*%
%ADD18FreePoly1,0.000000*%
%TD*%
%TA.AperFunction,ViaPad*%
%ADD19C,0.350000*%
%TD*%
%TA.AperFunction,Conductor*%
%ADD20C,0.381000*%
%TD*%
%TA.AperFunction,Conductor*%
%ADD21C,0.127000*%
%TD*%
%TA.AperFunction,Conductor*%
%ADD22C,0.254000*%
%TD*%
%TA.AperFunction,Conductor*%
%ADD23C,0.076200*%
%TD*%
%TA.AperFunction,Conductor*%
%ADD24C,0.177800*%
%TD*%
G04 APERTURE END LIST*
D10*
%TO.P,J4,1,Pin_1*%
%TO.N,Net-(J4-Pin_1)*%
X190250000Y-71000000D03*
D11*
%TO.P,J4,2,Pin_2*%
%TO.N,GND*%
X191750000Y-71000000D03*
%TD*%
D12*
%TO.P,U1,A1,VDD*%
%TO.N,VDD*%
X173300000Y-69800000D03*
%TO.P,U1,A2,PA14*%
%TO.N,SWCLK*%
X173700000Y-69800000D03*
%TO.P,U1,A3,PB3*%
%TO.N,SPI_CLK*%
X174100000Y-69800000D03*
%TO.P,U1,A4,PB4*%
%TO.N,SPI_MISO*%
X174500000Y-69800000D03*
%TO.P,U1,A5,PH3*%
%TO.N,unconnected-(U1-PH3-PadA5)*%
X174900000Y-69800000D03*
%TO.P,U1,A6,VSS*%
%TO.N,GND*%
X175300000Y-69800000D03*
%TO.P,U1,A7,VDD*%
%TO.N,VDD*%
X175700000Y-69800000D03*
%TO.P,U1,B1,VSS*%
%TO.N,GND*%
X173300000Y-70200000D03*
%TO.P,U1,B2,PA13*%
%TO.N,SWDIO*%
X173700000Y-70200000D03*
%TO.P,U1,B3,PA15*%
%TO.N,unconnected-(U1-PA15-PadB3)*%
X174100000Y-70200000D03*
%TO.P,U1,B4,PB5*%
%TO.N,unconnected-(U1-PB5-PadB4)*%
X174500000Y-70200000D03*
%TO.P,U1,B5,PB8*%
%TO.N,unconnected-(U1-PB8-PadB5)*%
X174900000Y-70200000D03*
%TO.P,U1,B6,VBAT*%
%TO.N,+BATT*%
X175300000Y-70200000D03*
%TO.P,U1,C2,PA10*%
%TO.N,unconnected-(U1-PA10-PadC2)*%
X173700000Y-70600000D03*
%TO.P,U1,C3,PA12*%
%TO.N,unconnected-(U1-PA12-PadC3)*%
X174100000Y-70600000D03*
%TO.P,U1,C4,PB6*%
%TO.N,unconnected-(U1-PB6-PadC4)*%
X174500000Y-70600000D03*
%TO.P,U1,C5,PB9*%
%TO.N,unconnected-(U1-PB9-PadC5)*%
X174900000Y-70600000D03*
%TO.P,U1,C6,PC15*%
%TO.N,unconnected-(U1-PC15-PadC6)*%
X175300000Y-70600000D03*
%TO.P,U1,C7,PC14*%
%TO.N,unconnected-(U1-PC14-PadC7)*%
X175700000Y-70600000D03*
%TO.P,U1,D1,PA8*%
%TO.N,unconnected-(U1-PA8-PadD1)*%
X173300000Y-71000000D03*
%TO.P,U1,D2,PA9*%
%TO.N,unconnected-(U1-PA9-PadD2)*%
X173700000Y-71000000D03*
%TO.P,U1,D3,PB15*%
%TO.N,unconnected-(U1-PB15-PadD3)*%
X174100000Y-71000000D03*
%TO.P,U1,D4,PB7*%
%TO.N,unconnected-(U1-PB7-PadD4)*%
X174500000Y-71000000D03*
%TO.P,U1,D5,NRST*%
%TO.N,unconnected-(U1-NRST-PadD5)*%
X174900000Y-71000000D03*
%TO.P,U1,D6,PH1*%
%TO.N,unconnected-(U1-PH1-PadD6)*%
X175300000Y-71000000D03*
%TO.P,U1,D7,PH0*%
%TO.N,unconnected-(U1-PH0-PadD7)*%
X175700000Y-71000000D03*
%TO.P,U1,E1,PB14*%
%TO.N,unconnected-(U1-PB14-PadE1)*%
X173300000Y-71400000D03*
%TO.P,U1,E2,PB13*%
%TO.N,unconnected-(U1-PB13-PadE2)*%
X173700000Y-71400000D03*
%TO.P,U1,E3,PB10*%
%TO.N,unconnected-(U1-PB10-PadE3)*%
X174100000Y-71400000D03*
%TO.P,U1,E4,PA3*%
%TO.N,unconnected-(U1-PA3-PadE4)*%
X174500000Y-71400000D03*
%TO.P,U1,E5,PA2*%
%TO.N,unconnected-(U1-PA2-PadE5)*%
X174900000Y-71400000D03*
%TO.P,U1,E6,PC3*%
%TO.N,unconnected-(U1-PC3-PadE6)*%
X175300000Y-71400000D03*
%TO.P,U1,E7,VSSA*%
%TO.N,GND*%
X175700000Y-71400000D03*
%TO.P,U1,F1,PB12*%
%TO.N,unconnected-(U1-PB12-PadF1)*%
X173300000Y-71800000D03*
%TO.P,U1,F2,PB11*%
%TO.N,unconnected-(U1-PB11-PadF2)*%
X173700000Y-71800000D03*
%TO.P,U1,F3,PA7*%
%TO.N,unconnected-(U1-PA7-PadF3)*%
X174100000Y-71800000D03*
%TO.P,U1,F4,PA6*%
%TO.N,unconnected-(U1-PA6-PadF4)*%
X174500000Y-71800000D03*
%TO.P,U1,F5,PA5*%
%TO.N,unconnected-(U1-PA5-PadF5)*%
X174900000Y-71800000D03*
%TO.P,U1,F6,PA0*%
%TO.N,unconnected-(U1-PA0-PadF6)*%
X175300000Y-71800000D03*
%TO.P,U1,F7,VDDA*%
%TO.N,VDD*%
X175700000Y-71800000D03*
%TO.P,U1,G1,VDD*%
X173300000Y-72200000D03*
%TO.P,U1,G2,VSS*%
%TO.N,GND*%
X173700000Y-72200000D03*
%TO.P,U1,G3,PB2*%
%TO.N,unconnected-(U1-PB2-PadG3)*%
X174100000Y-72200000D03*
%TO.P,U1,G4,PB1*%
%TO.N,unconnected-(U1-PB1-PadG4)*%
X174500000Y-72200000D03*
%TO.P,U1,G5,PB0*%
%TO.N,LED_D*%
X174900000Y-72200000D03*
%TO.P,U1,G6,PA4*%
%TO.N,unconnected-(U1-PA4-PadG6)*%
X175300000Y-72200000D03*
%TO.P,U1,G7,PA1*%
%TO.N,LED_SNS*%
X175700000Y-72200000D03*
%TD*%
D13*
%TO.P,J1,1,Pin_1*%
%TO.N,+BATT*%
X167000000Y-72250000D03*
%TO.P,J1,2,Pin_2*%
%TO.N,-BATT*%
X167000000Y-69750000D03*
%TD*%
D14*
%TO.P,U3,A1,S1*%
%TO.N,-BATT*%
X171150001Y-71924999D03*
%TO.P,U3,A2,S2*%
%TO.N,GND*%
X171150001Y-72575001D03*
%TO.P,U3,B1,G1*%
%TO.N,Net-(U2-Dout)*%
X170500000Y-71924999D03*
%TO.P,U3,B2,G2*%
%TO.N,Net-(U2-Cout)*%
X170500000Y-72575001D03*
%TO.P,U3,C1,S1*%
%TO.N,-BATT*%
X169850001Y-71924999D03*
%TO.P,U3,C2,S2*%
%TO.N,GND*%
X169850001Y-72575001D03*
%TD*%
D15*
%TO.P,U2,1,NC*%
%TO.N,unconnected-(U2-NC-Pad1)*%
X169975000Y-69750000D03*
D16*
%TO.P,U2,2,Cout*%
%TO.N,Net-(U2-Cout)*%
X169925000Y-70250000D03*
%TO.P,U2,3,Dout*%
%TO.N,Net-(U2-Dout)*%
X169925000Y-70750000D03*
%TO.P,U2,4,VSS*%
%TO.N,-BATT*%
X171075000Y-70750000D03*
%TO.P,U2,5,BAT*%
%TO.N,Net-(U2-BAT)*%
X171075000Y-70250000D03*
%TO.P,U2,6,V-*%
%TO.N,GND*%
X171075000Y-69750000D03*
%TD*%
D17*
%TO.P,MK1,1,DATA*%
%TO.N,SPI_MISO*%
X178162500Y-70196000D03*
%TO.P,MK1,2,SEL*%
%TO.N,GND*%
X178162500Y-71018000D03*
D18*
%TO.P,MK1,3,GND*%
X179000000Y-72932500D03*
D17*
%TO.P,MK1,4,CLOCK*%
%TO.N,SPI_CLK*%
X179837500Y-71018000D03*
%TO.P,MK1,5,VDD*%
%TO.N,VDD*%
X179837500Y-70196000D03*
%TD*%
D19*
%TO.N,+BATT*%
X167000000Y-72250000D03*
%TO.N,GND*%
X171800000Y-71040000D03*
%TO.N,VDD*%
X171968071Y-71589701D03*
%TO.N,Net-(J4-Pin_1)*%
X190460000Y-71920000D03*
%TO.N,Net-(U2-BAT)*%
X172100000Y-69750000D03*
%TO.N,-BATT*%
X167000000Y-69750000D03*
X171720000Y-70520000D03*
%TO.N,VDD*%
X176155231Y-69731725D03*
X172950000Y-69990000D03*
X180600000Y-71130000D03*
X172870000Y-72010000D03*
X179550000Y-69140000D03*
X176150000Y-71980000D03*
%TO.N,GND*%
X180100000Y-68900000D03*
X181700000Y-71100000D03*
X173500000Y-73200000D03*
X196250000Y-72250000D03*
X168900000Y-73200000D03*
X172000000Y-73200000D03*
X180200000Y-71700000D03*
X175200000Y-73200000D03*
X172390000Y-72450000D03*
X174700000Y-69420000D03*
X204250000Y-72250000D03*
X216250000Y-71750000D03*
X208250000Y-71750000D03*
X200250000Y-71750000D03*
X188250000Y-72250000D03*
X172900000Y-70530000D03*
X228250000Y-72250000D03*
X176900000Y-68800000D03*
X232250000Y-71750000D03*
X169200000Y-72300000D03*
X176200000Y-71040000D03*
X177800000Y-72800000D03*
X212250000Y-72250000D03*
X183000000Y-71100000D03*
X168900000Y-69700000D03*
X184250000Y-71100000D03*
X224250000Y-71750000D03*
X220250000Y-72250000D03*
X236250000Y-72250000D03*
X174300000Y-72590000D03*
X172700000Y-69300000D03*
%TO.N,LED_D*%
X180169300Y-73213709D03*
%TO.N,+BATT*%
X176784500Y-70204500D03*
X169790000Y-68914500D03*
X172200000Y-68914500D03*
%TO.N,LED_SNS*%
X176500000Y-72500000D03*
%TO.N,SWDIO*%
X172245000Y-71235000D03*
%TO.N,SWCLK*%
X173750000Y-69300000D03*
%TD*%
D20*
%TO.N,-BATT*%
X167000000Y-69750000D02*
X167587501Y-69750000D01*
X167587501Y-69750000D02*
X169762500Y-71924999D01*
X169762500Y-71924999D02*
X169850001Y-71924999D01*
X167000000Y-69750000D02*
X167323289Y-70073289D01*
D21*
%TO.N,Net-(U2-BAT)*%
X172100000Y-69750000D02*
X172040000Y-69810000D01*
X172040000Y-69810000D02*
X171890000Y-69810000D01*
X171890000Y-69810000D02*
X171450000Y-70250000D01*
X171450000Y-70250000D02*
X171075000Y-70250000D01*
D20*
%TO.N,+BATT*%
X169790000Y-68914500D02*
X172200000Y-68914500D01*
D21*
%TO.N,-BATT*%
X171720000Y-70520000D02*
X171490000Y-70750000D01*
X171490000Y-70750000D02*
X171075000Y-70750000D01*
D22*
%TO.N,VDD*%
X171968071Y-71589701D02*
X172031187Y-71589701D01*
X172031187Y-71589701D02*
X172239486Y-71798000D01*
X172239486Y-71798000D02*
X172658000Y-71798000D01*
X172658000Y-71798000D02*
X172870000Y-72010000D01*
D23*
%TO.N,SWDIO*%
X173050000Y-70850000D02*
X173700000Y-70200000D01*
X172245000Y-71235000D02*
X172630000Y-70850000D01*
X172630000Y-70850000D02*
X173050000Y-70850000D01*
D22*
%TO.N,Net-(J4-Pin_1)*%
X190460000Y-71920000D02*
X190460000Y-71210000D01*
X190460000Y-71210000D02*
X190250000Y-71000000D01*
D24*
%TO.N,-BATT*%
X170630519Y-72890100D02*
X170815099Y-72705520D01*
X170165100Y-72685719D02*
X170369481Y-72890100D01*
X170815099Y-72705520D02*
X170815099Y-72259901D01*
D21*
X171075000Y-71849998D02*
X171150001Y-71924999D01*
D24*
X169850001Y-72129383D02*
X170165100Y-72444482D01*
X170369481Y-72890100D02*
X170630519Y-72890100D01*
X169850001Y-71924999D02*
X169850001Y-72129383D01*
X170165100Y-72444482D02*
X170165100Y-72685719D01*
D21*
X171075000Y-70750000D02*
X171075000Y-71849998D01*
D24*
X170815099Y-72259901D02*
X171150001Y-71924999D01*
D21*
%TO.N,VDD*%
X173140000Y-69800000D02*
X173300000Y-69800000D01*
X173060000Y-72200000D02*
X172870000Y-72010000D01*
D20*
X179837500Y-70196000D02*
X179837500Y-69427500D01*
D21*
X180600000Y-70958500D02*
X179837500Y-70196000D01*
X172950000Y-69990000D02*
X173140000Y-69800000D01*
D20*
X179837500Y-69427500D02*
X179550000Y-69140000D01*
D21*
X176086956Y-69800000D02*
X176155231Y-69731725D01*
X180600000Y-71130000D02*
X180600000Y-70958500D01*
X173300000Y-72200000D02*
X173060000Y-72200000D01*
X175700000Y-71800000D02*
X175970000Y-71800000D01*
X175970000Y-71800000D02*
X176150000Y-71980000D01*
X175700000Y-69800000D02*
X176086956Y-69800000D01*
%TO.N,GND*%
X175300000Y-69800000D02*
X174920000Y-69420000D01*
X179317500Y-72932500D02*
X180000000Y-72250000D01*
X179000000Y-72932500D02*
X178317500Y-72932500D01*
X179000000Y-71316155D02*
X179000000Y-71563845D01*
X172900000Y-70530000D02*
X173230000Y-70200000D01*
X173230000Y-70200000D02*
X173300000Y-70200000D01*
X174920000Y-69420000D02*
X174700000Y-69420000D01*
X175840000Y-71400000D02*
X176200000Y-71040000D01*
X178317500Y-72932500D02*
X178250000Y-73000000D01*
X173700000Y-72200000D02*
X174090000Y-72590000D01*
X174090000Y-72590000D02*
X174300000Y-72590000D01*
X175700000Y-71400000D02*
X175840000Y-71400000D01*
X179000000Y-72932500D02*
X179317500Y-72932500D01*
%TO.N,LED_D*%
X176000000Y-73300000D02*
X174900000Y-72200000D01*
X180169300Y-73213709D02*
X180083009Y-73300000D01*
X180083009Y-73300000D02*
X176000000Y-73300000D01*
D23*
%TO.N,+BATT*%
X175300000Y-70200000D02*
X176780000Y-70200000D01*
X176780000Y-70200000D02*
X176784500Y-70204500D01*
D21*
%TO.N,LED_SNS*%
X176000000Y-72500000D02*
X175700000Y-72200000D01*
X176500000Y-72500000D02*
X176000000Y-72500000D01*
%TO.N,SPI_CLK*%
X178100000Y-69150000D02*
X175330000Y-69150000D01*
X175010000Y-68830000D02*
X174410000Y-68830000D01*
X179468000Y-71018000D02*
X178910000Y-70460000D01*
X174410000Y-68830000D02*
X174100000Y-69140000D01*
X174100000Y-69140000D02*
X174100000Y-69800000D01*
X175330000Y-69150000D02*
X175010000Y-68830000D01*
X178910000Y-69960000D02*
X178100000Y-69150000D01*
X179837500Y-71018000D02*
X179468000Y-71018000D01*
X178910000Y-70460000D02*
X178910000Y-69960000D01*
%TO.N,SPI_MISO*%
X174330000Y-69630000D02*
X174500000Y-69800000D01*
X174330000Y-69280000D02*
X174330000Y-69630000D01*
X178162500Y-70196000D02*
X178090000Y-70123500D01*
X174528500Y-69081500D02*
X174330000Y-69280000D01*
X174901500Y-69081500D02*
X174528500Y-69081500D01*
X177533225Y-69393225D02*
X175213225Y-69393225D01*
X178090000Y-69950000D02*
X177533225Y-69393225D01*
X178090000Y-70123500D02*
X178090000Y-69950000D01*
X175213225Y-69393225D02*
X174901500Y-69081500D01*
D23*
%TO.N,SWCLK*%
X173750000Y-69300000D02*
X173750000Y-69750000D01*
X173750000Y-69750000D02*
X173700000Y-69800000D01*
D21*
%TO.N,Net-(U2-Dout)*%
X170500000Y-71924999D02*
X170500000Y-71325000D01*
X170500000Y-71325000D02*
X169925000Y-70750000D01*
%TO.N,Net-(U2-Cout)*%
X169410300Y-70591200D02*
X169751500Y-70250000D01*
X170210000Y-72044696D02*
X170210000Y-71708500D01*
X169751500Y-70250000D02*
X169925000Y-70250000D01*
X170500000Y-72334696D02*
X170210000Y-72044696D01*
X170500000Y-72575001D02*
X170500000Y-72334696D01*
X169410300Y-70908800D02*
X169410300Y-70591200D01*
X170210000Y-71708500D02*
X169410300Y-70908800D01*
%TD*%
%TA.AperFunction,Conductor*%
%TO.N,GND*%
G36*
X169677037Y-68568806D02*
G01*
X169695343Y-68613000D01*
X169677037Y-68657194D01*
X169667566Y-68664967D01*
X169591375Y-68715875D01*
X169530485Y-68807003D01*
X169530484Y-68807005D01*
X169509103Y-68914499D01*
X169509103Y-68914500D01*
X169530484Y-69021994D01*
X169530485Y-69021996D01*
X169591375Y-69113124D01*
X169682503Y-69174014D01*
X169682505Y-69174015D01*
X169789999Y-69195397D01*
X169790000Y-69195397D01*
X169790001Y-69195397D01*
X169852822Y-69182901D01*
X169865015Y-69181700D01*
X172124985Y-69181700D01*
X172137178Y-69182901D01*
X172199999Y-69195397D01*
X172200000Y-69195397D01*
X172200001Y-69195397D01*
X172262822Y-69182901D01*
X172307495Y-69174015D01*
X172398624Y-69113124D01*
X172459515Y-69021995D01*
X172480897Y-68914500D01*
X172473250Y-68876058D01*
X172459515Y-68807005D01*
X172459514Y-68807003D01*
X172398624Y-68715875D01*
X172322434Y-68664967D01*
X172295858Y-68625193D01*
X172305190Y-68578277D01*
X172344964Y-68551701D01*
X172357157Y-68550500D01*
X179952405Y-68550500D01*
X179995906Y-68550500D01*
X180004064Y-68551035D01*
X180108181Y-68564742D01*
X180123941Y-68568965D01*
X180217147Y-68607573D01*
X180231275Y-68615728D01*
X180311319Y-68677149D01*
X180322850Y-68688680D01*
X180384269Y-68768722D01*
X180392426Y-68782852D01*
X180431034Y-68876058D01*
X180435257Y-68891818D01*
X180448965Y-68995936D01*
X180449500Y-69004094D01*
X180449500Y-69578842D01*
X180480262Y-69733495D01*
X180540606Y-69879180D01*
X180628210Y-70010288D01*
X180739711Y-70121789D01*
X180870819Y-70209393D01*
X180870820Y-70209393D01*
X180870821Y-70209394D01*
X181016503Y-70269737D01*
X181171158Y-70300500D01*
X184312025Y-70300500D01*
X184312026Y-70300500D01*
X184432969Y-70272895D01*
X184544737Y-70219071D01*
X184641725Y-70141725D01*
X184719071Y-70044737D01*
X184772895Y-69932969D01*
X184800500Y-69812026D01*
X184800500Y-69754921D01*
X184801269Y-69745145D01*
X184805648Y-69717494D01*
X184808715Y-69698126D01*
X184814758Y-69679531D01*
X184823997Y-69661399D01*
X184834108Y-69641553D01*
X184845598Y-69625739D01*
X184875739Y-69595598D01*
X184891553Y-69584108D01*
X184929531Y-69564757D01*
X184948127Y-69558715D01*
X184984101Y-69553018D01*
X184995145Y-69551269D01*
X185004921Y-69550500D01*
X189137800Y-69550500D01*
X189141995Y-69550641D01*
X189143173Y-69550720D01*
X189177322Y-69553018D01*
X189181312Y-69552011D01*
X189188460Y-69550645D01*
X189189554Y-69550500D01*
X189189562Y-69550501D01*
X189225298Y-69540924D01*
X189225934Y-69540759D01*
X189269623Y-69529744D01*
X189304159Y-69508034D01*
X189306128Y-69506846D01*
X189314780Y-69501851D01*
X189316509Y-69500890D01*
X189524414Y-69389725D01*
X189532404Y-69386149D01*
X189756719Y-69304082D01*
X189765113Y-69301664D01*
X189998695Y-69251771D01*
X190007366Y-69250546D01*
X190245630Y-69233806D01*
X190254370Y-69233806D01*
X190492631Y-69250546D01*
X190501304Y-69251771D01*
X190566617Y-69265721D01*
X190734882Y-69301663D01*
X190743283Y-69304084D01*
X190967602Y-69386151D01*
X190975578Y-69389721D01*
X191092811Y-69452405D01*
X191183470Y-69500880D01*
X191185249Y-69501869D01*
X191193837Y-69506827D01*
X191195840Y-69508034D01*
X191230377Y-69529744D01*
X191274056Y-69540757D01*
X191274754Y-69540939D01*
X191310438Y-69550501D01*
X191310443Y-69550500D01*
X191311552Y-69550647D01*
X191318688Y-69552012D01*
X191320451Y-69552456D01*
X191322678Y-69553018D01*
X191358004Y-69550640D01*
X191362199Y-69550500D01*
X239495078Y-69550500D01*
X239504854Y-69551269D01*
X239515898Y-69553018D01*
X239551871Y-69558715D01*
X239570468Y-69564758D01*
X239608443Y-69584107D01*
X239624263Y-69595601D01*
X239654398Y-69625736D01*
X239665892Y-69641556D01*
X239685241Y-69679531D01*
X239691283Y-69698127D01*
X239698730Y-69745143D01*
X239699500Y-69754921D01*
X239699500Y-72245078D01*
X239698730Y-72254856D01*
X239691283Y-72301872D01*
X239685241Y-72320468D01*
X239665892Y-72358443D01*
X239654398Y-72374263D01*
X239624263Y-72404398D01*
X239608443Y-72415892D01*
X239570468Y-72435241D01*
X239551871Y-72441284D01*
X239517321Y-72446755D01*
X239504854Y-72448730D01*
X239495080Y-72449499D01*
X191362197Y-72449499D01*
X191358003Y-72449358D01*
X191322678Y-72446982D01*
X191322671Y-72446982D01*
X191318680Y-72447989D01*
X191311568Y-72449349D01*
X191310442Y-72449497D01*
X191274844Y-72459034D01*
X191273955Y-72459265D01*
X191230378Y-72470255D01*
X191230376Y-72470256D01*
X191195853Y-72491956D01*
X191193842Y-72493168D01*
X191185230Y-72498140D01*
X191183454Y-72499127D01*
X190975584Y-72610275D01*
X190967592Y-72613853D01*
X190743294Y-72695913D01*
X190734875Y-72698339D01*
X190501304Y-72748229D01*
X190492630Y-72749454D01*
X190254380Y-72766194D01*
X190245618Y-72766194D01*
X190007368Y-72749454D01*
X189998694Y-72748229D01*
X189765123Y-72698339D01*
X189756704Y-72695913D01*
X189532403Y-72613851D01*
X189524413Y-72610275D01*
X189405351Y-72546613D01*
X189316559Y-72499136D01*
X189314782Y-72498148D01*
X189306157Y-72493169D01*
X189304144Y-72491956D01*
X189283150Y-72478760D01*
X189269621Y-72470256D01*
X189226039Y-72459265D01*
X189225152Y-72459035D01*
X189189552Y-72449496D01*
X189188432Y-72449349D01*
X189181320Y-72447989D01*
X189177328Y-72446982D01*
X189177321Y-72446982D01*
X189141995Y-72449358D01*
X189137801Y-72449499D01*
X185004919Y-72449499D01*
X184995144Y-72448730D01*
X184978807Y-72446142D01*
X184948128Y-72441284D01*
X184929531Y-72435241D01*
X184891556Y-72415892D01*
X184875736Y-72404398D01*
X184845601Y-72374263D01*
X184834107Y-72358443D01*
X184814758Y-72320468D01*
X184808715Y-72301870D01*
X184801269Y-72254854D01*
X184800500Y-72245078D01*
X184800500Y-72187974D01*
X184786395Y-72126178D01*
X184772895Y-72067031D01*
X184719071Y-71955263D01*
X184719070Y-71955262D01*
X184719070Y-71955261D01*
X184719067Y-71955258D01*
X184641726Y-71858276D01*
X184641723Y-71858273D01*
X184544741Y-71780932D01*
X184544738Y-71780929D01*
X184432967Y-71727104D01*
X184312026Y-71699500D01*
X184289562Y-71699500D01*
X181297595Y-71699500D01*
X181250000Y-71699500D01*
X181171158Y-71699500D01*
X181016504Y-71730262D01*
X180870819Y-71790606D01*
X180739711Y-71878210D01*
X180628210Y-71989711D01*
X180540606Y-72120819D01*
X180480262Y-72266504D01*
X180449500Y-72421157D01*
X180449500Y-72952662D01*
X180431194Y-72996856D01*
X180387000Y-73015162D01*
X180352277Y-73004629D01*
X180276796Y-72954194D01*
X180276794Y-72954193D01*
X180169301Y-72932812D01*
X180169299Y-72932812D01*
X180061805Y-72954193D01*
X180061803Y-72954194D01*
X179970675Y-73015084D01*
X179909785Y-73106212D01*
X179909784Y-73106215D01*
X179909133Y-73109491D01*
X179882559Y-73149266D01*
X179847834Y-73159800D01*
X179480619Y-73159800D01*
X179436425Y-73141494D01*
X179418119Y-73097300D01*
X179436425Y-73053106D01*
X179447367Y-73044380D01*
X179552986Y-72978014D01*
X179552994Y-72978009D01*
X179567203Y-72966677D01*
X179567215Y-72966666D01*
X179696666Y-72837215D01*
X179696677Y-72837203D01*
X179708009Y-72822994D01*
X179708014Y-72822986D01*
X179805425Y-72667958D01*
X179813312Y-72651581D01*
X179873784Y-72478760D01*
X179873786Y-72478751D01*
X179877828Y-72461043D01*
X179877831Y-72461023D01*
X179898330Y-72279088D01*
X179898330Y-72260911D01*
X179877831Y-72078976D01*
X179877828Y-72078956D01*
X179873786Y-72061248D01*
X179873784Y-72061239D01*
X179813312Y-71888418D01*
X179805425Y-71872041D01*
X179708014Y-71717013D01*
X179708009Y-71717005D01*
X179696677Y-71702796D01*
X179696666Y-71702784D01*
X179567215Y-71573333D01*
X179567203Y-71573322D01*
X179552994Y-71561990D01*
X179552986Y-71561985D01*
X179399267Y-71465397D01*
X179393630Y-71457452D01*
X179381291Y-71456586D01*
X179208760Y-71396215D01*
X179208751Y-71396213D01*
X179191043Y-71392171D01*
X179191023Y-71392168D01*
X179009089Y-71371670D01*
X178990911Y-71371670D01*
X178808976Y-71392168D01*
X178808956Y-71392171D01*
X178791248Y-71396213D01*
X178791239Y-71396215D01*
X178618418Y-71456687D01*
X178602041Y-71464574D01*
X178447013Y-71561985D01*
X178447005Y-71561990D01*
X178432796Y-71573322D01*
X178432784Y-71573333D01*
X178303333Y-71702784D01*
X178303322Y-71702796D01*
X178291990Y-71717005D01*
X178291985Y-71717013D01*
X178194574Y-71872041D01*
X178186687Y-71888418D01*
X178126215Y-72061239D01*
X178126213Y-72061248D01*
X178122171Y-72078956D01*
X178122168Y-72078977D01*
X178101670Y-72260903D01*
X178101670Y-72260904D01*
X178101953Y-72270008D01*
X178101964Y-72270412D01*
X178101967Y-72270534D01*
X178101865Y-72275956D01*
X178101669Y-72279088D01*
X178122168Y-72461022D01*
X178122171Y-72461043D01*
X178126213Y-72478751D01*
X178126215Y-72478760D01*
X178186687Y-72651581D01*
X178194574Y-72667958D01*
X178291985Y-72822986D01*
X178291990Y-72822994D01*
X178303322Y-72837203D01*
X178303333Y-72837215D01*
X178432784Y-72966666D01*
X178432796Y-72966677D01*
X178447005Y-72978009D01*
X178447013Y-72978014D01*
X178552633Y-73044380D01*
X178580314Y-73083393D01*
X178572301Y-73130552D01*
X178533288Y-73158233D01*
X178519381Y-73159800D01*
X176083961Y-73159800D01*
X176039767Y-73141494D01*
X175369330Y-72471057D01*
X175351024Y-72426863D01*
X175369330Y-72382669D01*
X175378801Y-72374896D01*
X175436406Y-72336406D01*
X175448034Y-72319003D01*
X175487806Y-72292428D01*
X175534723Y-72301760D01*
X175551965Y-72319002D01*
X175563594Y-72336406D01*
X175626178Y-72378223D01*
X175674705Y-72387875D01*
X175706707Y-72404980D01*
X175881144Y-72579417D01*
X175920583Y-72618856D01*
X175972112Y-72640200D01*
X176228931Y-72640200D01*
X176273125Y-72658506D01*
X176280898Y-72667977D01*
X176301375Y-72698624D01*
X176392503Y-72759514D01*
X176392505Y-72759515D01*
X176499999Y-72780897D01*
X176500000Y-72780897D01*
X176500001Y-72780897D01*
X176553747Y-72770206D01*
X176607495Y-72759515D01*
X176698624Y-72698624D01*
X176759515Y-72607495D01*
X176780897Y-72500000D01*
X176779421Y-72492582D01*
X176759515Y-72392505D01*
X176759514Y-72392503D01*
X176698624Y-72301375D01*
X176607496Y-72240485D01*
X176607494Y-72240484D01*
X176500001Y-72219103D01*
X176499999Y-72219103D01*
X176442217Y-72230596D01*
X176395300Y-72221264D01*
X176368725Y-72181490D01*
X176378056Y-72134575D01*
X176409515Y-72087495D01*
X176430897Y-71980000D01*
X176427968Y-71965277D01*
X176409515Y-71872505D01*
X176409514Y-71872503D01*
X176348624Y-71781375D01*
X176257496Y-71720485D01*
X176257494Y-71720484D01*
X176150001Y-71699103D01*
X176149998Y-71699103D01*
X176113847Y-71706293D01*
X176066931Y-71696960D01*
X176057461Y-71689188D01*
X176049418Y-71681145D01*
X176049417Y-71681144D01*
X175997888Y-71659800D01*
X175997887Y-71659800D01*
X175849687Y-71659800D01*
X175814964Y-71649267D01*
X175773824Y-71621778D01*
X175773820Y-71621776D01*
X175700001Y-71607093D01*
X175699999Y-71607093D01*
X175626179Y-71621776D01*
X175626175Y-71621778D01*
X175563595Y-71663593D01*
X175563594Y-71663594D01*
X175551965Y-71680996D01*
X175512193Y-71707571D01*
X175465276Y-71698239D01*
X175448034Y-71680997D01*
X175436406Y-71663594D01*
X175419003Y-71651965D01*
X175392428Y-71612194D01*
X175401760Y-71565277D01*
X175419002Y-71548034D01*
X175436406Y-71536406D01*
X175478223Y-71473822D01*
X175492907Y-71400000D01*
X175490821Y-71389515D01*
X175480712Y-71338692D01*
X175478223Y-71326178D01*
X175436406Y-71263594D01*
X175419003Y-71251965D01*
X175392428Y-71212194D01*
X175401760Y-71165277D01*
X175419002Y-71148034D01*
X175436406Y-71136406D01*
X175448034Y-71119003D01*
X175487806Y-71092428D01*
X175534723Y-71101760D01*
X175551965Y-71119002D01*
X175563594Y-71136406D01*
X175626178Y-71178223D01*
X175663089Y-71185565D01*
X175699999Y-71192907D01*
X175700000Y-71192907D01*
X175700001Y-71192907D01*
X175725640Y-71187807D01*
X175773822Y-71178223D01*
X175836406Y-71136406D01*
X175878223Y-71073822D01*
X175892907Y-71000000D01*
X175878223Y-70926178D01*
X175836406Y-70863594D01*
X175819003Y-70851965D01*
X175792428Y-70812194D01*
X175801760Y-70765277D01*
X175819002Y-70748034D01*
X175836406Y-70736406D01*
X175878223Y-70673822D01*
X175892907Y-70600000D01*
X175878223Y-70526178D01*
X175836406Y-70463594D01*
X175785032Y-70429267D01*
X175758456Y-70389493D01*
X175767788Y-70342577D01*
X175807562Y-70316001D01*
X175819755Y-70314800D01*
X176493452Y-70314800D01*
X176537646Y-70333106D01*
X176545419Y-70342577D01*
X176585873Y-70403121D01*
X176585874Y-70403122D01*
X176585875Y-70403122D01*
X176585876Y-70403124D01*
X176677005Y-70464015D01*
X176784499Y-70485397D01*
X176784500Y-70485397D01*
X176784501Y-70485397D01*
X176850127Y-70472343D01*
X176891995Y-70464015D01*
X176983124Y-70403124D01*
X177044015Y-70311995D01*
X177065397Y-70204500D01*
X177060191Y-70178330D01*
X177044015Y-70097005D01*
X177044014Y-70097003D01*
X176983124Y-70005875D01*
X176891996Y-69944985D01*
X176891994Y-69944984D01*
X176784501Y-69923603D01*
X176784499Y-69923603D01*
X176677005Y-69944984D01*
X176677003Y-69944985D01*
X176585878Y-70005873D01*
X176585877Y-70005874D01*
X176575135Y-70021951D01*
X176551432Y-70057424D01*
X176511659Y-70083999D01*
X176499466Y-70085200D01*
X176328140Y-70085200D01*
X176283946Y-70066894D01*
X176265640Y-70022700D01*
X176283946Y-69978506D01*
X176293417Y-69970733D01*
X176353855Y-69930349D01*
X176379193Y-69892428D01*
X176414746Y-69839220D01*
X176436128Y-69731725D01*
X176435881Y-69730485D01*
X176414746Y-69624230D01*
X176412929Y-69619844D01*
X176412928Y-69572008D01*
X176446752Y-69538183D01*
X176470671Y-69533425D01*
X177449264Y-69533425D01*
X177493458Y-69551731D01*
X177632871Y-69691144D01*
X177739165Y-69797437D01*
X177757471Y-69841631D01*
X177746939Y-69876353D01*
X177727750Y-69905072D01*
X177727749Y-69905073D01*
X177723300Y-69927442D01*
X177723300Y-70464557D01*
X177727749Y-70486926D01*
X177727750Y-70486928D01*
X177736226Y-70499612D01*
X177744702Y-70512298D01*
X177763686Y-70524982D01*
X177770071Y-70529249D01*
X177770073Y-70529250D01*
X177792444Y-70533700D01*
X178532556Y-70533700D01*
X178554927Y-70529250D01*
X178580298Y-70512298D01*
X178597250Y-70486927D01*
X178601700Y-70464556D01*
X178601700Y-70000861D01*
X178620006Y-69956667D01*
X178664200Y-69938361D01*
X178708394Y-69956667D01*
X178751494Y-69999767D01*
X178769800Y-70043961D01*
X178769800Y-70432112D01*
X178769800Y-70487888D01*
X178779540Y-70511403D01*
X178791143Y-70539415D01*
X178791145Y-70539418D01*
X179379994Y-71128267D01*
X179398300Y-71172461D01*
X179398300Y-71286557D01*
X179402749Y-71308926D01*
X179402750Y-71308928D01*
X179409445Y-71318947D01*
X179419702Y-71334298D01*
X179436656Y-71345626D01*
X179440406Y-71351238D01*
X179444713Y-71351178D01*
X179445072Y-71351249D01*
X179445073Y-71351250D01*
X179467444Y-71355700D01*
X179467445Y-71355700D01*
X180207556Y-71355700D01*
X180229927Y-71351250D01*
X180255298Y-71334298D01*
X180272250Y-71308927D01*
X180272250Y-71308926D01*
X180275670Y-71303809D01*
X180277001Y-71304698D01*
X180305699Y-71275996D01*
X180353535Y-71275991D01*
X180381590Y-71299013D01*
X180401375Y-71328624D01*
X180492503Y-71389514D01*
X180492505Y-71389515D01*
X180599999Y-71410897D01*
X180600000Y-71410897D01*
X180600001Y-71410897D01*
X180654788Y-71399999D01*
X180707495Y-71389515D01*
X180798624Y-71328624D01*
X180859515Y-71237495D01*
X180880897Y-71130000D01*
X180880400Y-71127503D01*
X180859515Y-71022506D01*
X180859515Y-71022505D01*
X180844478Y-71000000D01*
X189418746Y-71000000D01*
X189436911Y-71172829D01*
X189490609Y-71338095D01*
X189490611Y-71338099D01*
X189490612Y-71338101D01*
X189500058Y-71354462D01*
X189577498Y-71488596D01*
X189577502Y-71488601D01*
X189693781Y-71617741D01*
X189693782Y-71617742D01*
X189834368Y-71719884D01*
X189834377Y-71719889D01*
X189993116Y-71790565D01*
X189993120Y-71790566D01*
X189993128Y-71790570D01*
X189993131Y-71790570D01*
X189993132Y-71790571D01*
X189993297Y-71790606D01*
X190135921Y-71820921D01*
X190175343Y-71848014D01*
X190184225Y-71894246D01*
X190179103Y-71919998D01*
X190179103Y-71920000D01*
X190200484Y-72027494D01*
X190200485Y-72027496D01*
X190261375Y-72118624D01*
X190352503Y-72179514D01*
X190352505Y-72179515D01*
X190459999Y-72200897D01*
X190460000Y-72200897D01*
X190460001Y-72200897D01*
X190513747Y-72190206D01*
X190567495Y-72179515D01*
X190658624Y-72118624D01*
X190719515Y-72027495D01*
X190740897Y-71920000D01*
X190739581Y-71913386D01*
X190719515Y-71812505D01*
X190719513Y-71812502D01*
X190693629Y-71773764D01*
X190684296Y-71726848D01*
X190708857Y-71688477D01*
X190806217Y-71617742D01*
X190922499Y-71488599D01*
X190923073Y-71487606D01*
X190939495Y-71459161D01*
X191009388Y-71338101D01*
X191063089Y-71172827D01*
X191081254Y-71000000D01*
X191063089Y-70827173D01*
X191047184Y-70778223D01*
X191009390Y-70661904D01*
X191009388Y-70661900D01*
X191009388Y-70661899D01*
X190958413Y-70573606D01*
X190922501Y-70511403D01*
X190922497Y-70511398D01*
X190806218Y-70382258D01*
X190806217Y-70382257D01*
X190665631Y-70280115D01*
X190665622Y-70280110D01*
X190506883Y-70209434D01*
X190506867Y-70209428D01*
X190336890Y-70173300D01*
X190163110Y-70173300D01*
X189993132Y-70209428D01*
X189993116Y-70209434D01*
X189834377Y-70280110D01*
X189834368Y-70280115D01*
X189693782Y-70382257D01*
X189693781Y-70382258D01*
X189577502Y-70511398D01*
X189577498Y-70511403D01*
X189490611Y-70661900D01*
X189490609Y-70661904D01*
X189436911Y-70827170D01*
X189418746Y-71000000D01*
X180844478Y-71000000D01*
X180798624Y-70931376D01*
X180798622Y-70931375D01*
X180798622Y-70931374D01*
X180798621Y-70931373D01*
X180720938Y-70879467D01*
X180711471Y-70871698D01*
X180679417Y-70839644D01*
X180679416Y-70839643D01*
X180675854Y-70836081D01*
X180675847Y-70836075D01*
X180295006Y-70455233D01*
X180276700Y-70411039D01*
X180276700Y-69927444D01*
X180272250Y-69905073D01*
X180272249Y-69905071D01*
X180263801Y-69892428D01*
X180255298Y-69879702D01*
X180242612Y-69871226D01*
X180229928Y-69862750D01*
X180229926Y-69862749D01*
X180207557Y-69858300D01*
X180207556Y-69858300D01*
X180167200Y-69858300D01*
X180123006Y-69839994D01*
X180104700Y-69795800D01*
X180104700Y-69374352D01*
X180104641Y-69374209D01*
X180064021Y-69276143D01*
X179988857Y-69200979D01*
X179791982Y-69004104D01*
X179784209Y-68994633D01*
X179774607Y-68980263D01*
X179748624Y-68941376D01*
X179748623Y-68941375D01*
X179748621Y-68941373D01*
X179657496Y-68880485D01*
X179657494Y-68880484D01*
X179550001Y-68859103D01*
X179549999Y-68859103D01*
X179442505Y-68880484D01*
X179442503Y-68880485D01*
X179351375Y-68941375D01*
X179290485Y-69032503D01*
X179290484Y-69032505D01*
X179269103Y-69139999D01*
X179269103Y-69140000D01*
X179290484Y-69247494D01*
X179290485Y-69247496D01*
X179351373Y-69338621D01*
X179351376Y-69338624D01*
X179389295Y-69363961D01*
X179404633Y-69374209D01*
X179414104Y-69381982D01*
X179551994Y-69519872D01*
X179570300Y-69564066D01*
X179570300Y-69795800D01*
X179551994Y-69839994D01*
X179507800Y-69858300D01*
X179467442Y-69858300D01*
X179445073Y-69862749D01*
X179445071Y-69862750D01*
X179419702Y-69879702D01*
X179402750Y-69905071D01*
X179402749Y-69905073D01*
X179398300Y-69927442D01*
X179398300Y-70464557D01*
X179402749Y-70486926D01*
X179402750Y-70486928D01*
X179411226Y-70499612D01*
X179419702Y-70512298D01*
X179438686Y-70524982D01*
X179445071Y-70529249D01*
X179445073Y-70529250D01*
X179467444Y-70533700D01*
X179951039Y-70533700D01*
X179995233Y-70552006D01*
X180016833Y-70573606D01*
X180035139Y-70617800D01*
X180016833Y-70661994D01*
X179972639Y-70680300D01*
X179467442Y-70680300D01*
X179445073Y-70684749D01*
X179445072Y-70684750D01*
X179420550Y-70701135D01*
X179373634Y-70710466D01*
X179341634Y-70693361D01*
X179068506Y-70420233D01*
X179050200Y-70376039D01*
X179050200Y-69932112D01*
X179039000Y-69905073D01*
X179028856Y-69880583D01*
X178989417Y-69841144D01*
X178179417Y-69031144D01*
X178127888Y-69009800D01*
X178127887Y-69009800D01*
X175413961Y-69009800D01*
X175369767Y-68991494D01*
X175089418Y-68711145D01*
X175089417Y-68711144D01*
X175037888Y-68689800D01*
X174437887Y-68689800D01*
X174382112Y-68689800D01*
X174330584Y-68711143D01*
X174330581Y-68711145D01*
X174165669Y-68876058D01*
X174020583Y-69021144D01*
X173981144Y-69060583D01*
X173979934Y-69061793D01*
X173935739Y-69080098D01*
X173901017Y-69069565D01*
X173857496Y-69040485D01*
X173857494Y-69040484D01*
X173750001Y-69019103D01*
X173749999Y-69019103D01*
X173642505Y-69040484D01*
X173642503Y-69040485D01*
X173551375Y-69101375D01*
X173490485Y-69192503D01*
X173490484Y-69192505D01*
X173469103Y-69299999D01*
X173469103Y-69300000D01*
X173490484Y-69407494D01*
X173490485Y-69407496D01*
X173551373Y-69498621D01*
X173551376Y-69498624D01*
X173603159Y-69533224D01*
X173629735Y-69572998D01*
X173620403Y-69619914D01*
X173603159Y-69637157D01*
X173563594Y-69663594D01*
X173551965Y-69680996D01*
X173512193Y-69707571D01*
X173465276Y-69698239D01*
X173448034Y-69680997D01*
X173436406Y-69663594D01*
X173401273Y-69640119D01*
X173373824Y-69621778D01*
X173373820Y-69621776D01*
X173300001Y-69607093D01*
X173299999Y-69607093D01*
X173226179Y-69621776D01*
X173226175Y-69621778D01*
X173185036Y-69649267D01*
X173150313Y-69659800D01*
X173112112Y-69659800D01*
X173060584Y-69681143D01*
X173060581Y-69681145D01*
X173042537Y-69699189D01*
X172998343Y-69717494D01*
X172986152Y-69716293D01*
X172950002Y-69709103D01*
X172949999Y-69709103D01*
X172842505Y-69730484D01*
X172842503Y-69730485D01*
X172751375Y-69791375D01*
X172690485Y-69882503D01*
X172690484Y-69882505D01*
X172669103Y-69989999D01*
X172669103Y-69990000D01*
X172690484Y-70097494D01*
X172690485Y-70097496D01*
X172751375Y-70188624D01*
X172842503Y-70249514D01*
X172842505Y-70249515D01*
X172949999Y-70270897D01*
X172950000Y-70270897D01*
X172950001Y-70270897D01*
X173003747Y-70260206D01*
X173057495Y-70249515D01*
X173148624Y-70188624D01*
X173209515Y-70097495D01*
X173220777Y-70040872D01*
X173247352Y-70001100D01*
X173294268Y-69991767D01*
X173294269Y-69991767D01*
X173300000Y-69992907D01*
X173373822Y-69978223D01*
X173436406Y-69936406D01*
X173448034Y-69919003D01*
X173487806Y-69892428D01*
X173534723Y-69901760D01*
X173551965Y-69919002D01*
X173563594Y-69936406D01*
X173580996Y-69948034D01*
X173607571Y-69987807D01*
X173598239Y-70034724D01*
X173580997Y-70051965D01*
X173563594Y-70063594D01*
X173563593Y-70063595D01*
X173521778Y-70126175D01*
X173521776Y-70126179D01*
X173507093Y-70199999D01*
X173507093Y-70204666D01*
X173488787Y-70248860D01*
X173020754Y-70716894D01*
X172976560Y-70735200D01*
X172607165Y-70735200D01*
X172564972Y-70752676D01*
X172564969Y-70752678D01*
X172532676Y-70784972D01*
X172367499Y-70950147D01*
X172323305Y-70968453D01*
X172311113Y-70967252D01*
X172245001Y-70954103D01*
X172244999Y-70954103D01*
X172137505Y-70975484D01*
X172137503Y-70975485D01*
X172046375Y-71036375D01*
X171985485Y-71127503D01*
X171985484Y-71127505D01*
X171968639Y-71212194D01*
X171964103Y-71235000D01*
X171966183Y-71245457D01*
X171956849Y-71292373D01*
X171917077Y-71318947D01*
X171860575Y-71330186D01*
X171860574Y-71330186D01*
X171769446Y-71391076D01*
X171708556Y-71482204D01*
X171708555Y-71482206D01*
X171687174Y-71589700D01*
X171687174Y-71589701D01*
X171708555Y-71697195D01*
X171708556Y-71697197D01*
X171769446Y-71788325D01*
X171860574Y-71849215D01*
X171860576Y-71849216D01*
X171968070Y-71870598D01*
X171968071Y-71870598D01*
X171968072Y-71870598D01*
X171973170Y-71869583D01*
X171981959Y-71867835D01*
X172028875Y-71877164D01*
X172038349Y-71884939D01*
X172066796Y-71913386D01*
X172066797Y-71913387D01*
X172124099Y-71970689D01*
X172198967Y-72001700D01*
X172536160Y-72001700D01*
X172580354Y-72020006D01*
X172597458Y-72052005D01*
X172599764Y-72063595D01*
X172610484Y-72117494D01*
X172610485Y-72117496D01*
X172671375Y-72208624D01*
X172762503Y-72269514D01*
X172762505Y-72269515D01*
X172870000Y-72290897D01*
X172906151Y-72283705D01*
X172953064Y-72293036D01*
X172962537Y-72300810D01*
X172980583Y-72318856D01*
X173032112Y-72340200D01*
X173032113Y-72340200D01*
X173087888Y-72340200D01*
X173150313Y-72340200D01*
X173185035Y-72350732D01*
X173226178Y-72378223D01*
X173248530Y-72382669D01*
X173299999Y-72392907D01*
X173300000Y-72392907D01*
X173300001Y-72392907D01*
X173325298Y-72387875D01*
X173373822Y-72378223D01*
X173436406Y-72336406D01*
X173478223Y-72273822D01*
X173492907Y-72200000D01*
X173491574Y-72193301D01*
X173480683Y-72138545D01*
X173478223Y-72126178D01*
X173436406Y-72063594D01*
X173419003Y-72051965D01*
X173392428Y-72012194D01*
X173401760Y-71965277D01*
X173419002Y-71948034D01*
X173436406Y-71936406D01*
X173448034Y-71919003D01*
X173487806Y-71892428D01*
X173534723Y-71901760D01*
X173551965Y-71919002D01*
X173563594Y-71936406D01*
X173626178Y-71978223D01*
X173635107Y-71979999D01*
X173699999Y-71992907D01*
X173700000Y-71992907D01*
X173700001Y-71992907D01*
X173725640Y-71987807D01*
X173773822Y-71978223D01*
X173836406Y-71936406D01*
X173848034Y-71919003D01*
X173887806Y-71892428D01*
X173934723Y-71901760D01*
X173951965Y-71919002D01*
X173963594Y-71936406D01*
X173980996Y-71948034D01*
X174007571Y-71987807D01*
X173998239Y-72034724D01*
X173980997Y-72051965D01*
X173963594Y-72063594D01*
X173963593Y-72063595D01*
X173921778Y-72126175D01*
X173921776Y-72126179D01*
X173907093Y-72199999D01*
X173907093Y-72200000D01*
X173921776Y-72273820D01*
X173921778Y-72273824D01*
X173933185Y-72290896D01*
X173963594Y-72336406D01*
X174026178Y-72378223D01*
X174048530Y-72382669D01*
X174099999Y-72392907D01*
X174100000Y-72392907D01*
X174100001Y-72392907D01*
X174125298Y-72387875D01*
X174173822Y-72378223D01*
X174236406Y-72336406D01*
X174248034Y-72319003D01*
X174287806Y-72292428D01*
X174334723Y-72301760D01*
X174351965Y-72319002D01*
X174363594Y-72336406D01*
X174426178Y-72378223D01*
X174448530Y-72382669D01*
X174499999Y-72392907D01*
X174500000Y-72392907D01*
X174500001Y-72392907D01*
X174525298Y-72387875D01*
X174573822Y-72378223D01*
X174636406Y-72336406D01*
X174648034Y-72319003D01*
X174687806Y-72292428D01*
X174734723Y-72301760D01*
X174751965Y-72319002D01*
X174763594Y-72336406D01*
X174826178Y-72378223D01*
X174874705Y-72387875D01*
X174906707Y-72404980D01*
X175844533Y-73342806D01*
X175862839Y-73387000D01*
X175844533Y-73431194D01*
X175800339Y-73449500D01*
X168058594Y-73449500D01*
X168014400Y-73431194D01*
X167996094Y-73387000D01*
X168014400Y-73342806D01*
X168050437Y-73325035D01*
X168150541Y-73311857D01*
X168150540Y-73311857D01*
X168150549Y-73311856D01*
X168290838Y-73253746D01*
X168411307Y-73161307D01*
X168503746Y-73040838D01*
X168561856Y-72900549D01*
X168576700Y-72787797D01*
X168576699Y-71712204D01*
X168574861Y-71698239D01*
X168561857Y-71599458D01*
X168561856Y-71599457D01*
X168561856Y-71599451D01*
X168509819Y-71473824D01*
X168503747Y-71459164D01*
X168503745Y-71459161D01*
X168411307Y-71338692D01*
X168290838Y-71246254D01*
X168290835Y-71246252D01*
X168150552Y-71188145D01*
X168150550Y-71188144D01*
X168150549Y-71188144D01*
X168150547Y-71188143D01*
X168150541Y-71188142D01*
X168037797Y-71173300D01*
X165962210Y-71173300D01*
X165962196Y-71173301D01*
X165849458Y-71188142D01*
X165849447Y-71188145D01*
X165709164Y-71246252D01*
X165709161Y-71246254D01*
X165588692Y-71338692D01*
X165496254Y-71459161D01*
X165496252Y-71459164D01*
X165438145Y-71599447D01*
X165438142Y-71599458D01*
X165424965Y-71699555D01*
X165401048Y-71740982D01*
X165354843Y-71753363D01*
X165313416Y-71729446D01*
X165300500Y-71691398D01*
X165300500Y-70308594D01*
X165318806Y-70264400D01*
X165363000Y-70246094D01*
X165407194Y-70264400D01*
X165424965Y-70300437D01*
X165438142Y-70400541D01*
X165438145Y-70400552D01*
X165496252Y-70540835D01*
X165496254Y-70540838D01*
X165588692Y-70661307D01*
X165652758Y-70710466D01*
X165709162Y-70753746D01*
X165849451Y-70811856D01*
X165849457Y-70811856D01*
X165849458Y-70811857D01*
X165852018Y-70812194D01*
X165962203Y-70826700D01*
X168037796Y-70826699D01*
X168150549Y-70811856D01*
X168197478Y-70792416D01*
X168245310Y-70792416D01*
X168265588Y-70805965D01*
X169535979Y-72076356D01*
X169611143Y-72151520D01*
X169670254Y-72176004D01*
X169704078Y-72209829D01*
X169704568Y-72211010D01*
X169709612Y-72223189D01*
X169981194Y-72494770D01*
X169999500Y-72538964D01*
X169999500Y-72652779D01*
X169999500Y-72718659D01*
X170024711Y-72779524D01*
X170229092Y-72983905D01*
X170275676Y-73030489D01*
X170336541Y-73055700D01*
X170663459Y-73055700D01*
X170724324Y-73030489D01*
X170900114Y-72854696D01*
X170900117Y-72854695D01*
X170908903Y-72845909D01*
X170908904Y-72845909D01*
X170955488Y-72799325D01*
X170980699Y-72738460D01*
X170980699Y-72354382D01*
X170999004Y-72310189D01*
X171140408Y-72168784D01*
X171172406Y-72151681D01*
X171238454Y-72138545D01*
X171313442Y-72088440D01*
X171363547Y-72013452D01*
X171381141Y-71924999D01*
X171380146Y-71919999D01*
X171370961Y-71873822D01*
X171363547Y-71836546D01*
X171313442Y-71761558D01*
X171261878Y-71727104D01*
X171242976Y-71714474D01*
X171216401Y-71674700D01*
X171215200Y-71662507D01*
X171215200Y-71029200D01*
X171233506Y-70985006D01*
X171277700Y-70966700D01*
X171394447Y-70966700D01*
X171394448Y-70966700D01*
X171437239Y-70958188D01*
X171485765Y-70925765D01*
X171495795Y-70910752D01*
X171523843Y-70887733D01*
X171569417Y-70868856D01*
X171627462Y-70810810D01*
X171671653Y-70792504D01*
X171683840Y-70793704D01*
X171720000Y-70800897D01*
X171827495Y-70779515D01*
X171918624Y-70718624D01*
X171979515Y-70627495D01*
X172000897Y-70520000D01*
X171994493Y-70487807D01*
X171979515Y-70412505D01*
X171979514Y-70412503D01*
X171918624Y-70321375D01*
X171827496Y-70260485D01*
X171827494Y-70260484D01*
X171783943Y-70251822D01*
X171744169Y-70225246D01*
X171734837Y-70178330D01*
X171751940Y-70146331D01*
X171894044Y-70004227D01*
X171938237Y-69985922D01*
X171972961Y-69996456D01*
X171992502Y-70009514D01*
X171992505Y-70009515D01*
X172099999Y-70030897D01*
X172100000Y-70030897D01*
X172100001Y-70030897D01*
X172164471Y-70018073D01*
X172207495Y-70009515D01*
X172298624Y-69948624D01*
X172359515Y-69857495D01*
X172380897Y-69750000D01*
X172377614Y-69733497D01*
X172359515Y-69642505D01*
X172359514Y-69642503D01*
X172298624Y-69551375D01*
X172207496Y-69490485D01*
X172207494Y-69490484D01*
X172100001Y-69469103D01*
X172099999Y-69469103D01*
X171992505Y-69490484D01*
X171992503Y-69490485D01*
X171901375Y-69551375D01*
X171840485Y-69642503D01*
X171840484Y-69642507D01*
X171838959Y-69650171D01*
X171814668Y-69686524D01*
X171814935Y-69686791D01*
X171813596Y-69688129D01*
X171812390Y-69689935D01*
X171810583Y-69691142D01*
X171479774Y-70021951D01*
X171435580Y-70040257D01*
X171423387Y-70039056D01*
X171394449Y-70033300D01*
X171394448Y-70033300D01*
X170755552Y-70033300D01*
X170741288Y-70036137D01*
X170712759Y-70041812D01*
X170664235Y-70074234D01*
X170664234Y-70074235D01*
X170631812Y-70122759D01*
X170623300Y-70165552D01*
X170623300Y-70334447D01*
X170623299Y-70334447D01*
X170631812Y-70377240D01*
X170661570Y-70421777D01*
X170664235Y-70425765D01*
X170673734Y-70432112D01*
X170697562Y-70448033D01*
X170724138Y-70487807D01*
X170714806Y-70534723D01*
X170697562Y-70551967D01*
X170664234Y-70574235D01*
X170631812Y-70622759D01*
X170623300Y-70665552D01*
X170623300Y-70834447D01*
X170623299Y-70834447D01*
X170631812Y-70877240D01*
X170664234Y-70925764D01*
X170664235Y-70925765D01*
X170712759Y-70958187D01*
X170712761Y-70958188D01*
X170755552Y-70966700D01*
X170872300Y-70966700D01*
X170916494Y-70985006D01*
X170934800Y-71029200D01*
X170934800Y-71838710D01*
X170933599Y-71850904D01*
X170923317Y-71902592D01*
X170906212Y-71934592D01*
X170830975Y-72009830D01*
X170786781Y-72028136D01*
X170742587Y-72009830D01*
X170724281Y-71965636D01*
X170725482Y-71953442D01*
X170731140Y-71924998D01*
X170720960Y-71873822D01*
X170713546Y-71836546D01*
X170663441Y-71761558D01*
X170663440Y-71761557D01*
X170659089Y-71757206D01*
X170661455Y-71754839D01*
X170641394Y-71724782D01*
X170640200Y-71712622D01*
X170640200Y-71297112D01*
X170635828Y-71286557D01*
X170618856Y-71245583D01*
X170579417Y-71206144D01*
X170579416Y-71206143D01*
X170575854Y-71202581D01*
X170575847Y-71202575D01*
X170446666Y-71073394D01*
X170357321Y-70984048D01*
X170339016Y-70939856D01*
X170349547Y-70905137D01*
X170368188Y-70877239D01*
X170376700Y-70834448D01*
X170376700Y-70665552D01*
X170368188Y-70622761D01*
X170364873Y-70617800D01*
X170335765Y-70574235D01*
X170335764Y-70574234D01*
X170302438Y-70551967D01*
X170275861Y-70512194D01*
X170285193Y-70465278D01*
X170302438Y-70448033D01*
X170319059Y-70436927D01*
X170335765Y-70425765D01*
X170368188Y-70377239D01*
X170376700Y-70334448D01*
X170376700Y-70165552D01*
X170368188Y-70122761D01*
X170351803Y-70098239D01*
X170335765Y-70074235D01*
X170331412Y-70069882D01*
X170333414Y-70067879D01*
X170312619Y-70036743D01*
X170321960Y-69989828D01*
X170361726Y-69963262D01*
X170387239Y-69958188D01*
X170435765Y-69925765D01*
X170468188Y-69877239D01*
X170476700Y-69834448D01*
X170476700Y-69665552D01*
X170468188Y-69622761D01*
X170467531Y-69621778D01*
X170435765Y-69574235D01*
X170435764Y-69574234D01*
X170387240Y-69541812D01*
X170365843Y-69537556D01*
X170344448Y-69533300D01*
X169605552Y-69533300D01*
X169591288Y-69536137D01*
X169562759Y-69541812D01*
X169514235Y-69574234D01*
X169514234Y-69574235D01*
X169481812Y-69622759D01*
X169473300Y-69665552D01*
X169473300Y-69834447D01*
X169473299Y-69834447D01*
X169481812Y-69877240D01*
X169514234Y-69925764D01*
X169547562Y-69948033D01*
X169574138Y-69987807D01*
X169564806Y-70034723D01*
X169547562Y-70051967D01*
X169514234Y-70074235D01*
X169481812Y-70122759D01*
X169473300Y-70165552D01*
X169473300Y-70304038D01*
X169454994Y-70348232D01*
X169322100Y-70481124D01*
X169322091Y-70481136D01*
X169291443Y-70511784D01*
X169270100Y-70563312D01*
X169270100Y-70903833D01*
X169251794Y-70948027D01*
X169207600Y-70966333D01*
X169163406Y-70948027D01*
X168589940Y-70374561D01*
X168571634Y-70330367D01*
X168572169Y-70322208D01*
X168572279Y-70321375D01*
X168576700Y-70287797D01*
X168576699Y-69212204D01*
X168575034Y-69199555D01*
X168561857Y-69099458D01*
X168561856Y-69099457D01*
X168561856Y-69099451D01*
X168503746Y-68959162D01*
X168469475Y-68914499D01*
X168411307Y-68838692D01*
X168290838Y-68746254D01*
X168290835Y-68746252D01*
X168150552Y-68688145D01*
X168150550Y-68688144D01*
X168150549Y-68688144D01*
X168150547Y-68688143D01*
X168150541Y-68688142D01*
X168050445Y-68674965D01*
X168009018Y-68651048D01*
X167996637Y-68604843D01*
X168020554Y-68563416D01*
X168058602Y-68550500D01*
X169632843Y-68550500D01*
X169677037Y-68568806D01*
G37*
%TD.AperFunction*%
%TA.AperFunction,Conductor*%
G36*
X174861733Y-69240006D02*
G01*
X175090800Y-69469072D01*
X175090806Y-69469079D01*
X175094368Y-69472641D01*
X175094369Y-69472642D01*
X175133808Y-69512081D01*
X175185337Y-69533425D01*
X175185338Y-69533425D01*
X175241113Y-69533425D01*
X175552371Y-69533425D01*
X175596565Y-69551731D01*
X175614871Y-69595925D01*
X175596565Y-69640119D01*
X175587094Y-69647892D01*
X175563594Y-69663594D01*
X175521778Y-69726175D01*
X175521776Y-69726179D01*
X175507093Y-69799999D01*
X175507093Y-69800000D01*
X175521776Y-69873820D01*
X175521778Y-69873824D01*
X175526295Y-69880584D01*
X175563594Y-69936406D01*
X175603787Y-69963262D01*
X175614968Y-69970733D01*
X175641544Y-70010507D01*
X175632212Y-70057423D01*
X175592438Y-70083999D01*
X175580245Y-70085200D01*
X175483901Y-70085200D01*
X175439710Y-70066897D01*
X175436408Y-70063595D01*
X175373824Y-70021778D01*
X175373820Y-70021776D01*
X175300001Y-70007093D01*
X175299999Y-70007093D01*
X175226179Y-70021776D01*
X175226175Y-70021778D01*
X175163595Y-70063593D01*
X175163594Y-70063594D01*
X175151965Y-70080996D01*
X175112193Y-70107571D01*
X175065276Y-70098239D01*
X175048034Y-70080997D01*
X175036406Y-70063594D01*
X175019003Y-70051965D01*
X174992428Y-70012194D01*
X175001760Y-69965277D01*
X175019002Y-69948034D01*
X175036406Y-69936406D01*
X175078223Y-69873822D01*
X175092907Y-69800000D01*
X175091191Y-69791375D01*
X175079080Y-69730485D01*
X175078223Y-69726178D01*
X175036406Y-69663594D01*
X174979747Y-69625736D01*
X174973824Y-69621778D01*
X174973820Y-69621776D01*
X174900001Y-69607093D01*
X174899999Y-69607093D01*
X174826179Y-69621776D01*
X174826175Y-69621778D01*
X174769272Y-69659800D01*
X174763594Y-69663594D01*
X174751965Y-69680996D01*
X174712193Y-69707571D01*
X174665276Y-69698239D01*
X174648034Y-69680997D01*
X174636406Y-69663594D01*
X174573822Y-69621777D01*
X174564798Y-69619982D01*
X174525291Y-69612123D01*
X174493291Y-69595018D01*
X174488506Y-69590233D01*
X174470200Y-69546039D01*
X174470200Y-69363961D01*
X174488506Y-69319767D01*
X174568267Y-69240006D01*
X174612461Y-69221700D01*
X174817539Y-69221700D01*
X174861733Y-69240006D01*
G37*
%TD.AperFunction*%
%TD*%
M02*
